ply
format ascii 1.0
comment Created by Blender 2.59 (sub 0) - www.blender.org, source file: ''
element vertex 273
property float x
property float y
property float z
property float nx
property float ny
property float nz
element face 148
property list uchar uint vertex_indices
end_header
-0.021906 0.473373 -0.021906 -0.993095 0.117316 0.000000 
-0.021906 0.473373 0.021906 -0.993095 0.117316 0.000000 
0.000000 0.658807 0.000000 -0.993095 0.117316 0.000000 
0.021906 0.473373 0.021906 0.993095 0.117316 -0.000000 
0.021906 0.473373 -0.021906 0.993095 0.117316 -0.000000 
0.000000 0.658807 0.000000 0.993095 0.117316 -0.000000 
-0.021906 0.473373 0.021906 0.000000 0.117316 0.993095 
0.021906 0.473373 0.021906 0.000000 0.117316 0.993095 
0.000000 0.658807 0.000000 0.000000 0.117316 0.993095 
0.021906 0.473373 -0.021906 0.000000 0.117316 -0.993095 
-0.021906 0.473373 -0.021906 0.000000 0.117316 -0.993095 
0.000000 0.658807 0.000000 0.000000 0.117316 -0.993095 
0.473373 -0.021906 -0.021906 0.117316 0.000000 -0.993095 
0.473373 0.021906 -0.021906 0.117316 0.000000 -0.993095 
0.658807 0.000000 0.000000 0.117316 0.000000 -0.993095 
0.473373 0.021906 0.021906 0.117316 -0.000000 0.993095 
0.473373 -0.021906 0.021906 0.117316 -0.000000 0.993095 
0.658807 0.000000 0.000000 0.117316 -0.000000 0.993095 
0.473373 -0.021906 0.021906 0.117316 -0.993095 0.000000 
0.473373 -0.021906 -0.021906 0.117316 -0.993095 0.000000 
0.658807 0.000000 0.000000 0.117316 -0.993095 0.000000 
0.473373 0.021906 -0.021906 0.117316 0.993095 0.000000 
0.473373 0.021906 0.021906 0.117316 0.993095 0.000000 
0.658807 0.000000 0.000000 0.117316 0.993095 0.000000 
-0.021906 -0.021906 0.473373 0.000000 -0.993095 0.117316 
0.021906 -0.021906 0.473373 0.000000 -0.993095 0.117316 
0.000000 0.000000 0.658807 0.000000 -0.993095 0.117316 
0.021906 0.021906 0.473373 0.000000 0.993095 0.117316 
-0.021906 0.021906 0.473373 0.000000 0.993095 0.117316 
0.000000 0.000000 0.658807 0.000000 0.993095 0.117316 
0.021906 -0.021906 0.473373 0.993095 0.000000 0.117316 
0.021906 0.021906 0.473373 0.993095 0.000000 0.117316 
0.000000 0.000000 0.658807 0.993095 0.000000 0.117316 
-0.021906 0.021906 0.473373 -0.993095 0.000000 0.117316 
-0.021906 -0.021906 0.473373 -0.993095 0.000000 0.117316 
0.000000 0.000000 0.658807 -0.993095 0.000000 0.117316 
-0.000794 0.010290 0.696577 0.000000 -1.000000 0.000000 
-0.012392 0.010290 0.696577 0.000000 -1.000000 0.000000 
-0.012392 0.010290 0.684985 0.000000 -1.000000 0.000000 
-0.000794 0.010290 0.684985 0.000000 -1.000000 0.000000 
-0.000794 0.010290 0.684985 1.000000 0.000000 0.000000 
-0.000794 0.051794 0.684696 1.000000 0.000000 0.000000 
-0.000794 0.032981 0.696288 1.000000 0.000000 0.000000 
-0.000794 0.010290 0.696577 1.000000 0.000000 0.000000 
-0.012392 0.010290 0.684985 -0.000000 -0.006964 -0.999976 
-0.012392 0.051794 0.684696 -0.000000 -0.006964 -0.999976 
-0.000794 0.051794 0.684696 -0.000000 -0.006964 -0.999976 
-0.000794 0.010290 0.684985 0.000000 -0.006964 -0.999976 
-0.000794 0.010290 0.696577 -0.000000 0.012739 0.999919 
-0.000794 0.032981 0.696288 -0.000000 0.012739 0.999919 
-0.012392 0.032981 0.696288 -0.000000 0.012739 0.999919 
-0.012392 0.010290 0.696577 0.000000 0.012739 0.999919 
-0.012392 0.010290 0.696577 -1.000000 0.000000 0.000000 
-0.012392 0.032981 0.696288 -1.000000 0.000000 0.000000 
-0.012392 0.010290 0.684985 -1.000000 0.000000 0.000000 
-0.012392 0.051794 0.684696 -1.000000 0.000000 0.000000 
-0.012392 0.032981 0.696288 0.000000 0.524558 0.851375 
-0.000794 0.032981 0.696288 0.000000 0.524558 0.851375 
-0.000794 0.051794 0.684696 0.000000 0.524558 0.851375 
-0.012392 0.051794 0.684696 -0.000000 0.524558 0.851375 
-0.000794 0.000883 0.753016 1.000000 0.000000 0.000000 
-0.000794 0.019696 0.741424 1.000000 0.000000 0.000000 
-0.012392 0.000883 0.753016 -0.000000 -0.870339 -0.492453 
-0.012392 0.032981 0.696288 -0.000000 -0.870339 -0.492453 
-0.000794 0.032981 0.696288 -0.000000 -0.870339 -0.492453 
-0.000794 0.000883 0.753016 0.000000 -0.870339 -0.492453 
-0.000794 0.019696 0.741424 -0.000000 0.870339 0.492453 
-0.000794 0.051794 0.684696 -0.000000 0.870339 0.492453 
-0.012392 0.051794 0.684696 -0.000000 0.870339 0.492453 
-0.012392 0.019696 0.741424 0.000000 0.870339 0.492453 
-0.012392 0.019696 0.741424 -1.000000 0.000000 0.000000 
-0.012392 0.000883 0.753016 -1.000000 0.000000 0.000000 
-0.012392 0.042285 0.741424 -1.000000 0.000000 -0.000000 
-0.012392 0.042285 0.753016 -1.000000 0.000000 -0.000000 
-0.000794 0.042285 0.741424 0.000000 0.000000 -1.000000 
-0.000794 0.019696 0.741424 0.000000 0.000000 -1.000000 
-0.012392 0.019696 0.741424 0.000000 0.000000 -1.000000 
-0.012392 0.042285 0.741424 0.000000 0.000000 -1.000000 
-0.012392 0.042285 0.753016 0.000000 -0.000000 1.000000 
-0.012392 0.000883 0.753016 0.000000 -0.000000 1.000000 
-0.000794 0.000883 0.753016 0.000000 -0.000000 1.000000 
-0.000794 0.042285 0.753016 0.000000 0.000000 1.000000 
-0.000794 0.042285 0.753016 1.000000 0.000000 -0.000000 
-0.000794 0.042285 0.741424 1.000000 0.000000 -0.000000 
-0.000794 0.042285 0.741424 -0.000000 1.000000 0.000000 
-0.012392 0.042285 0.741424 -0.000000 1.000000 0.000000 
-0.012392 0.042285 0.753016 -0.000000 1.000000 0.000000 
-0.000794 0.042285 0.753016 0.000000 1.000000 0.000000 
-0.001008 0.727607 0.011331 0.928006 0.372566 -0.000008 
-0.001008 0.727607 -0.000267 0.928006 0.372566 -0.000008 
-0.011019 0.752544 -0.000267 0.928006 0.372566 -0.000008 
-0.001008 0.727607 0.011331 0.928005 0.372569 0.000000 
-0.011019 0.752544 -0.000267 0.928005 0.372569 0.000000 
-0.011019 0.752544 0.011331 0.928005 0.372569 0.000000 
-0.007366 0.712384 -0.000267 -0.927755 -0.373191 -0.000000 
-0.007366 0.712384 0.011331 -0.927755 -0.373191 -0.000000 
-0.021773 0.748199 0.011331 -0.927755 -0.373191 -0.000000 
-0.021773 0.748199 -0.000267 -0.927755 -0.373191 0.000000 
-0.007366 0.712384 0.011331 0.000000 0.000000 1.000000 
-0.001008 0.727607 0.011331 0.000000 0.000000 1.000000 
-0.021773 0.748199 0.011331 0.000000 0.000000 1.000000 
-0.011019 0.752544 0.011331 -0.000000 0.000000 1.000000 
-0.001008 0.727607 -0.000267 0.000000 0.000000 -1.000000 
-0.007366 0.712384 -0.000267 0.000000 0.000000 -1.000000 
-0.021773 0.748199 -0.000267 0.000000 0.000000 -1.000000 
-0.011019 0.752544 -0.000267 0.000000 -0.000000 -1.000000 
0.682083 0.022213 0.011331 0.927184 -0.374607 0.000000 
0.677738 0.011459 0.011331 0.927184 -0.374607 0.000000 
0.682083 0.022213 -0.000267 0.927184 -0.374607 0.000000 
0.677738 0.011459 0.011331 0.927184 -0.374607 0.000000 
0.677738 0.011459 -0.000267 0.927184 -0.374607 0.000000 
0.682083 0.022213 -0.000267 0.927184 -0.374607 0.000000 
0.677738 0.011459 -0.000267 0.000003 0.000008 -1.000000 
0.682083 0.022213 -0.000267 0.000003 0.000008 -1.000000 
0.757784 -0.008372 -0.000267 0.000003 0.000008 -1.000000 
0.677738 0.011459 -0.000267 0.000001 -0.000000 -1.000000 
0.757784 -0.008372 -0.000267 0.000001 -0.000000 -1.000000 
0.753440 -0.019126 -0.000267 0.000001 -0.000000 -1.000000 
0.682083 0.022213 0.011331 0.000000 -0.000000 1.000000 
0.677738 0.011459 0.011331 0.000000 -0.000000 1.000000 
0.757784 -0.008372 0.011331 0.000000 -0.000000 1.000000 
0.753440 -0.019126 0.011331 0.000000 0.000000 1.000000 
0.677738 0.011459 0.011331 -0.374606 -0.927184 0.000000 
0.677738 0.011459 -0.000267 -0.374606 -0.927184 0.000000 
0.753440 -0.019126 -0.000267 -0.374606 -0.927184 0.000000 
0.753440 -0.019126 0.011331 -0.374606 -0.927184 -0.000000 
0.682083 0.022213 -0.000267 0.374606 0.927184 0.000000 
0.682083 0.022213 0.011331 0.374606 0.927184 0.000000 
0.757784 -0.008372 0.011331 0.374606 0.927184 0.000000 
0.682083 0.022213 -0.000267 0.374606 0.927184 -0.000000 
0.757784 -0.008372 0.011331 0.374606 0.927184 -0.000000 
0.757784 -0.008372 -0.000267 0.374606 0.927184 -0.000000 
0.753440 -0.019126 -0.000267 0.927182 -0.374611 0.000000 
0.757784 -0.008372 -0.000267 0.927182 -0.374611 0.000000 
0.757784 -0.008372 0.011331 0.927182 -0.374611 0.000000 
0.753440 -0.019126 0.011331 0.927182 -0.374611 0.000000 
0.757551 0.012100 -0.000267 0.920509 0.390722 0.000000 
0.753019 0.022776 -0.000267 0.920509 0.390722 0.000000 
0.753019 0.022776 0.011331 0.920509 0.390722 0.000000 
0.757551 0.012100 0.011331 0.920509 0.390722 0.000000 
0.677863 -0.009126 -0.000267 -0.390732 0.920505 0.000000 
0.677863 -0.009126 0.011331 -0.390732 0.920505 0.000000 
0.753019 0.022776 0.011331 -0.390732 0.920505 0.000000 
0.753019 0.022776 -0.000267 -0.390732 0.920505 0.000000 
0.682395 -0.019802 0.011331 0.390731 -0.920505 0.000000 
0.682395 -0.019802 -0.000267 0.390731 -0.920505 0.000000 
0.757551 0.012100 -0.000267 0.390731 -0.920505 0.000000 
0.757551 0.012100 0.011331 0.390731 -0.920505 0.000000 
0.677863 -0.009126 0.011331 0.000000 0.000000 1.000000 
0.682395 -0.019802 0.011331 0.000000 0.000000 1.000000 
0.757551 0.012100 0.011331 0.000000 0.000000 1.000000 
0.753019 0.022776 0.011331 0.000000 0.000000 1.000000 
0.682395 -0.019802 -0.000267 -0.000002 0.000008 -1.000000 
0.677863 -0.009126 -0.000267 -0.000002 0.000008 -1.000000 
0.757551 0.012100 -0.000267 -0.000002 0.000008 -1.000000 
0.677863 -0.009126 -0.000267 -0.000000 0.000000 -1.000000 
0.753019 0.022776 -0.000267 -0.000000 0.000000 -1.000000 
0.757551 0.012100 -0.000267 -0.000000 0.000000 -1.000000 
0.677863 -0.009126 0.011331 0.920506 0.390730 0.000000 
0.682395 -0.019802 0.011331 0.920506 0.390730 0.000000 
0.677863 -0.009126 -0.000267 0.920506 0.390730 0.000000 
0.682395 -0.019802 -0.000267 0.920506 0.390730 -0.000000 
-0.011773 0.672623 0.011331 -0.390734 -0.920504 0.000000 
-0.022449 0.677155 0.011331 -0.390734 -0.920504 0.000000 
-0.011773 0.672623 -0.000267 -0.390734 -0.920504 0.000000 
-0.022449 0.677155 -0.000267 -0.390734 -0.920504 0.000000 
-0.022449 0.677155 -0.000267 0.000000 0.000001 -1.000000 
0.009452 0.752311 -0.000267 0.000000 0.000001 -1.000000 
0.020129 0.747779 -0.000267 0.000000 0.000001 -1.000000 
-0.022449 0.677155 -0.000267 0.000008 -0.000003 -1.000000 
0.020129 0.747779 -0.000267 0.000008 -0.000003 -1.000000 
-0.011773 0.672623 -0.000267 0.000008 -0.000003 -1.000000 
-0.011773 0.672623 0.011331 -0.000000 0.000000 1.000000 
0.020129 0.747779 0.011331 -0.000000 0.000000 1.000000 
-0.022449 0.677155 0.011331 -0.000000 0.000000 1.000000 
0.009452 0.752311 0.011331 -0.000000 0.000000 1.000000 
-0.022449 0.677155 0.011331 -0.920505 0.390731 0.000000 
0.009452 0.752311 0.011331 -0.920505 0.390731 0.000000 
0.009452 0.752311 -0.000267 -0.920505 0.390731 0.000000 
-0.022449 0.677155 -0.000267 -0.920505 0.390731 0.000000 
-0.011773 0.672623 -0.000267 0.920505 -0.390732 0.000000 
0.020129 0.747779 -0.000267 0.920505 -0.390732 0.000000 
0.020129 0.747779 0.011331 0.920505 -0.390732 0.000000 
-0.011773 0.672623 0.011331 0.920505 -0.390732 0.000000 
0.009452 0.752311 -0.000267 0.390727 0.920507 0.000000 
0.009452 0.752311 0.011331 0.390727 0.920507 0.000000 
0.020129 0.747779 0.011331 0.390727 0.920507 0.000000 
0.020129 0.747779 -0.000267 0.390727 0.920507 -0.000000 
-0.021773 0.748199 -0.000267 -0.374624 0.927177 0.000000 
-0.021773 0.748199 0.011331 -0.374624 0.927177 0.000000 
-0.011019 0.752544 0.011331 -0.374624 0.927177 0.000000 
-0.011019 0.752544 -0.000267 -0.374624 0.927177 0.000000 
0.016788 0.016788 -0.016788 -0.000000 1.000000 0.000000 
-0.016788 0.016788 -0.016788 -0.000000 1.000000 0.000000 
-0.016788 0.016788 0.016788 -0.000000 1.000000 0.000000 
0.016788 0.016788 0.016788 0.000000 1.000000 0.000000 
-0.016788 -0.016788 0.473373 0.000000 0.000000 -1.000000 
0.016788 -0.016788 0.473373 0.000000 0.000000 -1.000000 
0.021906 -0.021906 0.473373 0.000000 0.000000 -1.000000 
-0.021906 -0.021906 0.473373 0.000000 0.000000 -1.000000 
0.016788 0.016788 0.473373 -0.000004 0.000004 -1.000000 
-0.016788 0.016788 0.473373 -0.000004 0.000004 -1.000000 
0.021906 0.021906 0.473373 -0.000004 0.000004 -1.000000 
-0.016788 0.016788 0.473373 -0.000003 -0.000003 -1.000000 
-0.021906 0.021906 0.473373 -0.000003 -0.000003 -1.000000 
0.021906 0.021906 0.473373 -0.000003 -0.000003 -1.000000 
0.016788 -0.016788 0.473373 0.000004 -0.000004 -1.000000 
0.016788 0.016788 0.473373 0.000004 -0.000004 -1.000000 
0.021906 0.021906 0.473373 0.000004 -0.000004 -1.000000 
0.016788 -0.016788 0.473373 -0.000003 -0.000003 -1.000000 
0.021906 -0.021906 0.473373 -0.000003 -0.000003 -1.000000 
-0.016788 0.016788 0.473373 0.000000 0.000000 -1.000000 
-0.021906 0.021906 0.473373 0.000000 0.000000 -1.000000 
-0.016788 0.016788 0.016788 -1.000000 0.000000 0.000000 
-0.016788 -0.016788 0.016788 -1.000000 0.000000 0.000000 
-0.016788 -0.016788 0.473373 -1.000000 0.000000 0.000000 
-0.016788 0.016788 0.473373 -1.000000 -0.000000 -0.000000 
0.016788 -0.016788 0.016788 1.000000 0.000000 -0.000000 
0.016788 0.016788 0.016788 1.000000 0.000000 -0.000000 
0.016788 0.016788 0.473373 1.000000 0.000000 -0.000000 
0.016788 -0.016788 0.473373 1.000000 -0.000000 -0.000000 
0.016788 0.016788 0.473373 0.000000 1.000000 -0.000000 
-0.016788 0.016788 0.473373 -0.000000 1.000000 -0.000000 
-0.016788 -0.016788 0.016788 -0.000000 -1.000000 0.000000 
0.016788 -0.016788 0.016788 -0.000000 -1.000000 0.000000 
0.016788 -0.016788 0.473373 -0.000000 -1.000000 0.000000 
-0.016788 -0.016788 0.473373 0.000000 -1.000000 -0.000000 
-0.016788 -0.016788 -0.016788 0.000000 -1.000000 0.000000 
0.016788 -0.016788 -0.016788 0.000000 -1.000000 0.000000 
-0.016788 0.016788 -0.016788 -1.000000 0.000000 0.000000 
-0.016788 -0.016788 -0.016788 -1.000000 0.000000 0.000000 
0.473373 0.016788 0.016788 -0.000000 1.000000 0.000000 
0.473373 0.016788 -0.016788 -0.000000 1.000000 0.000000 
0.473373 -0.016788 -0.016788 0.000000 -1.000000 0.000000 
0.473373 -0.016788 0.016788 -0.000000 -1.000000 -0.000000 
0.016788 0.016788 0.016788 0.000000 -0.000000 1.000000 
0.016788 -0.016788 0.016788 0.000000 -0.000000 1.000000 
0.473373 -0.016788 0.016788 0.000000 -0.000000 1.000000 
0.473373 0.016788 0.016788 0.000000 0.000000 1.000000 
0.016788 -0.016788 -0.016788 -0.000000 -0.000000 -1.000000 
0.016788 0.016788 -0.016788 -0.000000 -0.000000 -1.000000 
0.473373 -0.016788 -0.016788 -0.000000 -0.000000 -1.000000 
0.473373 0.016788 -0.016788 -0.000000 0.000000 -1.000000 
0.473373 -0.016788 -0.016788 -1.000000 0.000000 0.000000 
0.473373 0.016788 -0.016788 -1.000000 0.000000 0.000000 
0.473373 0.021906 -0.021906 -1.000000 0.000000 0.000000 
0.473373 -0.021906 -0.021906 -1.000000 0.000000 0.000000 
0.473373 0.016788 0.016788 -1.000000 0.000000 -0.000000 
0.473373 -0.016788 0.016788 -1.000000 0.000000 -0.000000 
0.473373 0.021906 0.021906 -1.000000 0.000000 -0.000000 
0.473373 -0.021906 0.021906 -1.000000 -0.000000 -0.000000 
0.016788 0.016788 -0.016788 1.000000 -0.000000 0.000000 
0.016788 -0.016788 -0.016788 1.000000 -0.000000 0.000000 
-0.016788 0.473373 -0.016788 0.000000 -1.000000 0.000000 
-0.016788 0.473373 0.016788 0.000000 -1.000000 0.000000 
-0.021906 0.473373 0.021906 0.000000 -1.000000 0.000000 
-0.021906 0.473373 -0.021906 0.000000 -1.000000 0.000000 
0.016788 0.473373 0.016788 0.000000 -1.000000 0.000000 
0.016788 0.473373 -0.016788 0.000000 -1.000000 0.000000 
0.021906 0.473373 -0.021906 0.000000 -1.000000 0.000000 
0.021906 0.473373 0.021906 -0.000000 -1.000000 -0.000000 
-0.016788 0.016788 -0.016788 0.000000 0.000000 -1.000000 
-0.016788 0.473373 -0.016788 0.000000 0.000000 -1.000000 
0.016788 0.473373 -0.016788 -0.000000 -0.000000 -1.000000 
-0.016788 0.016788 0.016788 0.000000 0.000000 1.000000 
0.016788 0.473373 0.016788 0.000000 0.000000 1.000000 
-0.016788 0.473373 0.016788 -0.000000 0.000000 1.000000 
0.016788 0.473373 -0.016788 1.000000 0.000000 -0.000000 
0.016788 0.473373 0.016788 1.000000 0.000000 0.000000 
-0.016788 0.473373 0.016788 -1.000000 -0.000000 -0.000000 
-0.016788 0.473373 -0.016788 -1.000000 -0.000000 0.000000 
-0.016788 -0.016788 0.016788 0.000000 0.000000 1.000000 
-0.016788 -0.016788 -0.016788 -0.000000 -0.000000 -1.000000 
3 0 1 2
3 3 4 5
3 6 7 8
3 9 10 11
3 12 13 14
3 15 16 17
3 18 19 20
3 21 22 23
3 24 25 26
3 27 28 29
3 30 31 32
3 33 34 35
3 36 37 38
3 36 38 39
3 40 41 42
3 40 42 43
3 44 45 46
3 44 46 47
3 48 49 50
3 48 50 51
3 52 53 54
3 53 55 54
3 56 57 58
3 56 58 59
3 60 42 61
3 42 41 61
3 62 63 64
3 62 64 65
3 66 67 68
3 66 68 69
3 70 55 53
3 70 53 71
3 72 70 73
3 70 71 73
3 74 75 76
3 74 76 77
3 78 79 80
3 78 80 81
3 82 60 61
3 82 61 83
3 84 85 86
3 84 86 87
3 88 89 90
3 91 92 93
3 94 95 96
3 94 96 97
3 98 99 100
3 99 101 100
3 102 103 104
3 102 104 105
3 106 107 108
3 109 110 111
3 112 113 114
3 115 116 117
3 118 119 120
3 119 121 120
3 122 123 124
3 122 124 125
3 126 127 128
3 129 130 131
3 132 133 134
3 132 134 135
3 136 137 138
3 136 138 139
3 140 141 142
3 140 142 143
3 144 145 146
3 144 146 147
3 148 149 150
3 148 150 151
3 152 153 154
3 155 156 157
3 158 159 160
3 159 161 160
3 162 163 164
3 163 165 164
3 166 167 168
3 169 170 171
3 172 173 174
3 173 175 174
3 176 177 178
3 176 178 179
3 180 181 182
3 180 182 183
3 184 185 186
3 184 186 187
3 188 189 190
3 188 190 191
3 192 193 194
3 192 194 195
3 196 197 198
3 196 198 199
3 200 201 202
3 203 204 205
3 206 207 208
3 209 205 210
3 211 196 199
3 211 199 212
3 213 214 215
3 213 215 216
3 217 218 219
3 217 219 220
3 195 194 221
3 194 222 221
3 223 224 225
3 223 225 226
3 224 223 227
3 224 227 228
3 213 229 230
3 213 230 214
3 192 195 231
3 192 231 232
3 224 228 233
3 224 233 234
3 235 236 237
3 235 237 238
3 239 240 241
3 240 242 241
3 243 244 245
3 243 245 246
3 247 248 249
3 248 250 249
3 248 243 246
3 248 246 250
3 244 247 249
3 244 249 245
3 251 218 217
3 251 217 252
3 253 254 255
3 253 255 256
3 257 258 259
3 257 259 260
3 254 257 260
3 254 260 255
3 258 253 256
3 258 256 259
3 240 261 262
3 240 262 263
3 264 235 265
3 264 265 266
3 218 251 267
3 218 267 268
3 229 213 269
3 229 269 270
3 235 264 271
3 235 271 236
3 272 261 240
3 272 240 239
