ply
format ascii 1.0
comment Created by Blender 2.59 (sub 0) - www.blender.org, source file: 'A7VU.blend'
element vertex 273
property float x
property float y
property float z
property float nx
property float ny
property float nz
element face 148
property list uchar uint vertex_indices
end_header
-0.219055 4.733733 -0.219055 -0.993095 0.117316 0.000000 
-0.219055 4.733733 0.219056 -0.993095 0.117316 0.000000 
0.000000 6.588064 0.000001 -0.993095 0.117316 0.000000 
0.219055 4.733733 0.219056 0.993095 0.117316 -0.000000 
0.219055 4.733733 -0.219055 0.993095 0.117316 -0.000000 
0.000000 6.588064 0.000001 0.993095 0.117316 -0.000000 
-0.219055 4.733733 0.219056 0.000000 0.117316 0.993095 
0.219055 4.733733 0.219056 0.000000 0.117316 0.993095 
0.000000 6.588064 0.000001 0.000000 0.117316 0.993095 
0.219055 4.733733 -0.219055 0.000000 0.117316 -0.993095 
-0.219055 4.733733 -0.219055 0.000000 0.117316 -0.993095 
0.000000 6.588064 0.000001 0.000000 0.117316 -0.993095 
4.733732 -0.219055 -0.219055 0.117316 0.000000 -0.993095 
4.733732 0.219056 -0.219055 0.117316 0.000000 -0.993095 
6.588064 0.000001 0.000001 0.117316 0.000000 -0.993095 
4.733732 0.219056 0.219056 0.117316 -0.000000 0.993095 
4.733732 -0.219055 0.219056 0.117316 -0.000000 0.993095 
6.588064 0.000001 0.000001 0.117316 -0.000000 0.993095 
4.733732 -0.219055 0.219056 0.117316 -0.993095 0.000000 
4.733732 -0.219055 -0.219055 0.117316 -0.993095 0.000000 
6.588064 0.000001 0.000001 0.117316 -0.993095 0.000000 
4.733732 0.219056 -0.219055 0.117316 0.993095 0.000000 
4.733732 0.219056 0.219056 0.117316 0.993095 0.000000 
6.588064 0.000001 0.000001 0.117316 0.993095 0.000000 
-0.219055 -0.219055 4.733733 0.000000 -0.993095 0.117316 
0.219055 -0.219055 4.733733 0.000000 -0.993095 0.117316 
0.000000 0.000000 6.588064 0.000000 -0.993095 0.117316 
0.219055 0.219056 4.733732 0.000000 0.993095 0.117316 
-0.219055 0.219056 4.733733 0.000000 0.993095 0.117316 
0.000000 0.000000 6.588064 0.000000 0.993095 0.117316 
0.219055 -0.219055 4.733733 0.993095 0.000000 0.117316 
0.219055 0.219056 4.733732 0.993095 0.000000 0.117316 
0.000000 0.000000 6.588064 0.993095 0.000000 0.117316 
-0.219055 0.219056 4.733733 -0.993095 0.000000 0.117316 
-0.219055 -0.219055 4.733733 -0.993095 0.000000 0.117316 
0.000000 0.000000 6.588064 -0.993095 0.000000 0.117316 
-0.007938 0.102900 6.965765 0.000000 -1.000000 0.000000 
-0.123922 0.102900 6.965765 0.000000 -1.000000 0.000000 
-0.123922 0.102900 6.849852 0.000000 -1.000000 0.000000 
-0.007938 0.102900 6.849852 0.000000 -1.000000 0.000000 
-0.007938 0.102900 6.849852 1.000000 0.000000 0.000000 
-0.007938 0.517941 6.846962 1.000000 0.000000 0.000000 
-0.007938 0.329812 6.962874 1.000000 0.000000 0.000000 
-0.007938 0.102900 6.965765 1.000000 0.000000 0.000000 
-0.123922 0.102900 6.849852 -0.000000 -0.006962 -0.999976 
-0.123922 0.517941 6.846962 -0.000000 -0.006962 -0.999976 
-0.007938 0.517941 6.846962 -0.000000 -0.006962 -0.999976 
-0.007938 0.102900 6.849852 0.000000 -0.006962 -0.999976 
-0.007938 0.102900 6.965765 -0.000000 0.012738 0.999919 
-0.007938 0.329812 6.962874 -0.000000 0.012738 0.999919 
-0.123922 0.329812 6.962874 -0.000000 0.012738 0.999919 
-0.123922 0.102900 6.965765 0.000000 0.012738 0.999919 
-0.123922 0.102900 6.965765 -1.000000 0.000000 0.000000 
-0.123922 0.329812 6.962874 -1.000000 0.000000 0.000000 
-0.123922 0.102900 6.849852 -1.000000 0.000000 0.000000 
-0.123922 0.517941 6.846962 -1.000000 0.000000 0.000000 
-0.123922 0.329812 6.962874 0.000000 0.524558 0.851374 
-0.007938 0.329812 6.962874 0.000000 0.524558 0.851374 
-0.007938 0.517941 6.846962 0.000000 0.524558 0.851374 
-0.123922 0.517941 6.846962 -0.000000 0.524558 0.851374 
-0.007938 0.008834 7.530155 1.000000 0.000000 0.000000 
-0.007938 0.196964 7.414242 1.000000 0.000000 0.000000 
-0.123922 0.008834 7.530155 -0.000000 -0.870339 -0.492453 
-0.123922 0.329812 6.962874 -0.000000 -0.870339 -0.492453 
-0.007938 0.329812 6.962874 -0.000000 -0.870339 -0.492453 
-0.007938 0.008834 7.530155 0.000000 -0.870339 -0.492453 
-0.007938 0.196964 7.414242 -0.000000 0.870339 0.492453 
-0.007938 0.517941 6.846962 -0.000000 0.870339 0.492453 
-0.123922 0.517941 6.846962 -0.000000 0.870339 0.492453 
-0.123922 0.196964 7.414242 0.000000 0.870339 0.492453 
-0.123922 0.196964 7.414242 -1.000000 0.000000 0.000000 
-0.123922 0.008834 7.530155 -1.000000 0.000000 0.000000 
-0.123922 0.422853 7.414242 -1.000000 0.000000 -0.000000 
-0.123922 0.422853 7.530155 -1.000000 0.000000 -0.000000 
-0.007938 0.422853 7.414242 0.000000 0.000000 -1.000000 
-0.007938 0.196964 7.414242 0.000000 0.000000 -1.000000 
-0.123922 0.196964 7.414242 0.000000 0.000000 -1.000000 
-0.123922 0.422853 7.414242 0.000000 0.000000 -1.000000 
-0.123922 0.422853 7.530155 0.000000 -0.000000 1.000000 
-0.123922 0.008834 7.530155 0.000000 -0.000000 1.000000 
-0.007938 0.008834 7.530155 0.000000 -0.000000 1.000000 
-0.007938 0.422853 7.530155 0.000000 0.000000 1.000000 
-0.007938 0.422853 7.530155 1.000000 0.000000 -0.000000 
-0.007938 0.422853 7.414242 1.000000 0.000000 -0.000000 
-0.007938 0.422853 7.414242 -0.000000 1.000000 0.000000 
-0.123922 0.422853 7.414242 -0.000000 1.000000 0.000000 
-0.123922 0.422853 7.530155 -0.000000 1.000000 0.000000 
-0.007938 0.422853 7.530155 0.000000 1.000000 0.000000 
-0.010078 7.276073 0.113312 0.928005 0.372568 -0.000002 
-0.010079 7.276073 -0.002672 0.928005 0.372568 -0.000002 
-0.110193 7.525442 -0.002672 0.928005 0.372568 -0.000002 
-0.010078 7.276073 0.113312 0.928005 0.372569 0.000000 
-0.110193 7.525442 -0.002672 0.928005 0.372569 0.000000 
-0.110193 7.525442 0.113312 0.928005 0.372569 0.000000 
-0.073662 7.123835 -0.002672 -0.927755 -0.373191 -0.000000 
-0.073662 7.123835 0.113312 -0.927755 -0.373191 -0.000000 
-0.217731 7.481992 0.113312 -0.927755 -0.373191 -0.000000 
-0.217731 7.481992 -0.002672 -0.927755 -0.373191 0.000000 
-0.073662 7.123835 0.113312 0.000000 0.000000 1.000000 
-0.010078 7.276073 0.113312 0.000000 0.000000 1.000000 
-0.217731 7.481992 0.113312 0.000000 0.000000 1.000000 
-0.110193 7.525442 0.113312 -0.000000 0.000000 1.000000 
-0.010079 7.276073 -0.002672 0.000000 0.000000 -1.000000 
-0.073662 7.123835 -0.002672 0.000000 0.000000 -1.000000 
-0.217731 7.481992 -0.002672 0.000000 0.000000 -1.000000 
-0.110193 7.525442 -0.002672 0.000000 -0.000000 -1.000000 
6.820831 0.222132 0.113312 0.927184 -0.374607 0.000002 
6.777383 0.114594 0.113312 0.927184 -0.374607 0.000002 
6.820831 0.222132 -0.002672 0.927184 -0.374607 0.000002 
6.777383 0.114594 0.113312 0.927183 -0.374608 0.000000 
6.777383 0.114594 -0.002673 0.927183 -0.374608 0.000000 
6.820831 0.222132 -0.002672 0.927183 -0.374608 0.000000 
6.777383 0.114594 -0.002673 0.000002 0.000004 -1.000000 
6.820831 0.222132 -0.002672 0.000002 0.000004 -1.000000 
7.577842 -0.083720 -0.002672 0.000002 0.000004 -1.000000 
6.777383 0.114594 -0.002673 0.000001 -0.000000 -1.000000 
7.577842 -0.083720 -0.002672 0.000001 -0.000000 -1.000000 
7.534394 -0.191258 -0.002672 0.000001 -0.000000 -1.000000 
6.820831 0.222132 0.113312 0.000000 -0.000000 1.000000 
6.777383 0.114594 0.113312 0.000000 -0.000000 1.000000 
7.577842 -0.083720 0.113312 0.000000 -0.000000 1.000000 
7.534394 -0.191258 0.113312 0.000000 0.000000 1.000000 
6.777383 0.114594 0.113312 -0.374606 -0.927184 0.000000 
6.777383 0.114594 -0.002673 -0.374606 -0.927184 0.000000 
7.534394 -0.191258 -0.002672 -0.374606 -0.927184 0.000000 
7.534394 -0.191258 0.113312 -0.374606 -0.927184 -0.000000 
6.820831 0.222132 -0.002672 0.374607 0.927184 -0.000004 
6.820831 0.222132 0.113312 0.374607 0.927184 -0.000004 
7.577842 -0.083720 0.113312 0.374607 0.927184 -0.000004 
6.820831 0.222132 -0.002672 0.374607 0.927184 -0.000000 
7.577842 -0.083720 0.113312 0.374607 0.927184 -0.000000 
7.577842 -0.083720 -0.002672 0.374607 0.927184 -0.000000 
7.534394 -0.191258 -0.002672 0.927186 -0.374602 0.000000 
7.577842 -0.083720 -0.002672 0.927186 -0.374602 0.000000 
7.577842 -0.083720 0.113312 0.927186 -0.374602 0.000000 
7.534394 -0.191258 0.113312 0.927186 -0.374602 0.000000 
7.575505 0.120997 -0.002672 0.920505 0.390731 0.000000 
7.530187 0.227761 -0.002672 0.920505 0.390731 0.000000 
7.530187 0.227761 0.113312 0.920505 0.390731 0.000000 
7.575505 0.120997 0.113312 0.920505 0.390731 0.000000 
6.778629 -0.091257 -0.002672 -0.390732 0.920504 0.000000 
6.778629 -0.091257 0.113312 -0.390732 0.920504 0.000000 
7.530187 0.227761 0.113312 -0.390732 0.920504 0.000000 
7.530187 0.227761 -0.002672 -0.390732 0.920504 0.000000 
6.823947 -0.198020 0.113312 0.390731 -0.920505 0.000000 
6.823947 -0.198020 -0.002673 0.390731 -0.920505 0.000000 
7.575505 0.120997 -0.002672 0.390731 -0.920505 0.000000 
7.575505 0.120997 0.113312 0.390731 -0.920505 0.000000 
6.778629 -0.091257 0.113312 0.000000 0.000000 1.000000 
6.823947 -0.198020 0.113312 0.000000 0.000000 1.000000 
7.575505 0.120997 0.113312 0.000000 0.000000 1.000000 
7.530187 0.227761 0.113312 0.000000 0.000000 1.000000 
6.823947 -0.198020 -0.002673 -0.000001 0.000004 -1.000000 
6.778629 -0.091257 -0.002672 -0.000001 0.000004 -1.000000 
7.575505 0.120997 -0.002672 -0.000001 0.000004 -1.000000 
6.778629 -0.091257 -0.002672 -0.000000 0.000000 -1.000000 
7.530187 0.227761 -0.002672 -0.000000 0.000000 -1.000000 
7.575505 0.120997 -0.002672 -0.000000 0.000000 -1.000000 
6.778629 -0.091257 0.113312 0.920506 0.390728 0.000000 
6.823947 -0.198020 0.113312 0.920506 0.390728 0.000000 
6.778629 -0.091257 -0.002672 0.920506 0.390728 0.000000 
6.823947 -0.198020 -0.002673 0.920506 0.390728 -0.000000 
-0.117730 6.726228 0.113312 -0.390732 -0.920504 0.000000 
-0.224493 6.771547 0.113312 -0.390732 -0.920504 0.000000 
-0.117730 6.726228 -0.002672 -0.390732 -0.920504 0.000000 
-0.224493 6.771547 -0.002673 -0.390732 -0.920504 0.000000 
-0.224493 6.771547 -0.002673 0.000000 0.000001 -1.000000 
0.094524 7.523104 -0.002672 0.000000 0.000001 -1.000000 
0.201288 7.477786 -0.002672 0.000000 0.000001 -1.000000 
-0.224493 6.771547 -0.002673 0.000004 -0.000002 -1.000000 
0.201288 7.477786 -0.002672 0.000004 -0.000002 -1.000000 
-0.117730 6.726228 -0.002672 0.000004 -0.000002 -1.000000 
-0.117730 6.726228 0.113312 -0.000000 0.000000 1.000000 
0.201288 7.477786 0.113312 -0.000000 0.000000 1.000000 
-0.224493 6.771547 0.113312 -0.000000 0.000000 1.000000 
0.094524 7.523104 0.113312 -0.000000 0.000000 1.000000 
-0.224493 6.771547 0.113312 -0.920505 0.390731 0.000000 
0.094524 7.523104 0.113312 -0.920505 0.390731 0.000000 
0.094524 7.523104 -0.002672 -0.920505 0.390731 0.000000 
-0.224493 6.771547 -0.002673 -0.920505 0.390731 0.000000 
-0.117730 6.726228 -0.002672 0.920505 -0.390731 0.000000 
0.201288 7.477786 -0.002672 0.920505 -0.390731 0.000000 
0.201288 7.477786 0.113312 0.920505 -0.390731 0.000000 
-0.117730 6.726228 0.113312 0.920505 -0.390731 0.000000 
0.094524 7.523104 -0.002672 0.390732 0.920504 0.000000 
0.094524 7.523104 0.113312 0.390732 0.920504 0.000000 
0.201288 7.477786 0.113312 0.390732 0.920504 0.000000 
0.201288 7.477786 -0.002672 0.390732 0.920504 -0.000000 
-0.217731 7.481992 -0.002672 -0.374615 0.927180 0.000000 
-0.217731 7.481992 0.113312 -0.374615 0.927180 0.000000 
-0.110193 7.525442 0.113312 -0.374615 0.927180 0.000000 
-0.110193 7.525442 -0.002672 -0.374615 0.927180 0.000000 
0.167881 0.167881 -0.167881 -0.000000 1.000000 0.000000 
-0.167881 0.167881 -0.167881 -0.000000 1.000000 0.000000 
-0.167881 0.167881 0.167882 -0.000000 1.000000 0.000000 
0.167881 0.167881 0.167882 0.000000 1.000000 0.000000 
-0.167881 -0.167881 4.733733 0.000000 0.000000 -1.000000 
0.167882 -0.167881 4.733733 0.000000 0.000000 -1.000000 
0.219055 -0.219055 4.733733 0.000000 0.000000 -1.000000 
-0.219055 -0.219055 4.733733 0.000000 0.000000 -1.000000 
0.167882 0.167882 4.733732 -0.000003 0.000003 -1.000000 
-0.167881 0.167882 4.733733 -0.000003 0.000003 -1.000000 
0.219055 0.219056 4.733732 -0.000003 0.000003 -1.000000 
-0.167881 0.167882 4.733733 -0.000002 -0.000002 -1.000000 
-0.219055 0.219056 4.733733 -0.000002 -0.000002 -1.000000 
0.219055 0.219056 4.733732 -0.000002 -0.000002 -1.000000 
0.167882 -0.167881 4.733733 0.000003 -0.000003 -1.000000 
0.167882 0.167882 4.733732 0.000003 -0.000003 -1.000000 
0.219055 0.219056 4.733732 0.000003 -0.000003 -1.000000 
0.167882 -0.167881 4.733733 -0.000002 -0.000002 -1.000000 
0.219055 -0.219055 4.733733 -0.000002 -0.000002 -1.000000 
-0.167881 0.167882 4.733733 0.000000 0.000000 -1.000000 
-0.219055 0.219056 4.733733 0.000000 0.000000 -1.000000 
-0.167881 0.167881 0.167882 -1.000000 0.000000 0.000000 
-0.167881 -0.167881 0.167882 -1.000000 0.000000 0.000000 
-0.167881 -0.167881 4.733733 -1.000000 0.000000 0.000000 
-0.167881 0.167882 4.733733 -1.000000 -0.000000 -0.000000 
0.167881 -0.167881 0.167882 1.000000 0.000000 -0.000000 
0.167881 0.167881 0.167882 1.000000 0.000000 -0.000000 
0.167882 0.167882 4.733732 1.000000 0.000000 -0.000000 
0.167882 -0.167881 4.733733 1.000000 -0.000000 -0.000000 
0.167882 0.167882 4.733732 0.000000 1.000000 -0.000000 
-0.167881 0.167882 4.733733 -0.000000 1.000000 -0.000000 
-0.167881 -0.167881 0.167882 -0.000000 -1.000000 0.000000 
0.167881 -0.167881 0.167882 -0.000000 -1.000000 0.000000 
0.167882 -0.167881 4.733733 -0.000000 -1.000000 0.000000 
-0.167881 -0.167881 4.733733 0.000000 -1.000000 -0.000000 
-0.167881 -0.167881 -0.167881 0.000000 -1.000000 0.000000 
0.167881 -0.167881 -0.167881 0.000000 -1.000000 0.000000 
-0.167881 0.167881 -0.167881 -1.000000 0.000000 0.000000 
-0.167881 -0.167881 -0.167881 -1.000000 0.000000 0.000000 
4.733732 0.167882 0.167882 -0.000000 1.000000 0.000000 
4.733732 0.167882 -0.167881 -0.000000 1.000000 0.000000 
4.733732 -0.167881 -0.167881 0.000000 -1.000000 0.000000 
4.733732 -0.167881 0.167882 0.000000 -1.000000 0.000000 
0.167881 0.167881 0.167882 0.000000 -0.000000 1.000000 
0.167881 -0.167881 0.167882 0.000000 -0.000000 1.000000 
4.733732 -0.167881 0.167882 0.000000 -0.000000 1.000000 
4.733732 0.167882 0.167882 0.000000 0.000000 1.000000 
0.167881 -0.167881 -0.167881 -0.000000 -0.000000 -1.000000 
0.167881 0.167881 -0.167881 -0.000000 -0.000000 -1.000000 
4.733732 -0.167881 -0.167881 -0.000000 -0.000000 -1.000000 
4.733732 0.167882 -0.167881 -0.000000 0.000000 -1.000000 
4.733732 -0.167881 -0.167881 -1.000000 0.000000 0.000000 
4.733732 0.167882 -0.167881 -1.000000 0.000000 0.000000 
4.733732 0.219056 -0.219055 -1.000000 0.000000 0.000000 
4.733732 -0.219055 -0.219055 -1.000000 0.000000 0.000000 
4.733732 0.167882 0.167882 -1.000000 0.000000 -0.000000 
4.733732 -0.167881 0.167882 -1.000000 0.000000 -0.000000 
4.733732 0.219056 0.219056 -1.000000 0.000000 -0.000000 
4.733732 -0.219055 0.219056 -1.000000 -0.000000 -0.000000 
0.167881 0.167881 -0.167881 1.000000 -0.000000 0.000000 
0.167881 -0.167881 -0.167881 1.000000 -0.000000 0.000000 
-0.167881 4.733733 -0.167881 0.000000 -1.000000 0.000000 
-0.167881 4.733733 0.167882 0.000000 -1.000000 0.000000 
-0.219055 4.733733 0.219056 0.000000 -1.000000 0.000000 
-0.219055 4.733733 -0.219055 0.000000 -1.000000 0.000000 
0.167881 4.733733 0.167882 0.000000 -1.000000 0.000000 
0.167881 4.733733 -0.167881 0.000000 -1.000000 0.000000 
0.219055 4.733733 -0.219055 0.000000 -1.000000 0.000000 
0.219055 4.733733 0.219056 -0.000000 -1.000000 -0.000000 
-0.167881 0.167881 -0.167881 0.000000 0.000000 -1.000000 
-0.167881 4.733733 -0.167881 0.000000 0.000000 -1.000000 
0.167881 4.733733 -0.167881 -0.000000 -0.000000 -1.000000 
-0.167881 0.167881 0.167882 0.000000 0.000000 1.000000 
0.167881 4.733733 0.167882 0.000000 0.000000 1.000000 
-0.167881 4.733733 0.167882 -0.000000 0.000000 1.000000 
0.167881 4.733733 -0.167881 1.000000 0.000000 -0.000000 
0.167881 4.733733 0.167882 1.000000 0.000000 0.000000 
-0.167881 4.733733 0.167882 -1.000000 -0.000000 -0.000000 
-0.167881 4.733733 -0.167881 -1.000000 -0.000000 0.000000 
-0.167881 -0.167881 0.167882 0.000000 0.000000 1.000000 
-0.167881 -0.167881 -0.167881 -0.000000 -0.000000 -1.000000 
3 0 1 2
3 3 4 5
3 6 7 8
3 9 10 11
3 12 13 14
3 15 16 17
3 18 19 20
3 21 22 23
3 24 25 26
3 27 28 29
3 30 31 32
3 33 34 35
3 36 37 38
3 36 38 39
3 40 41 42
3 40 42 43
3 44 45 46
3 44 46 47
3 48 49 50
3 48 50 51
3 52 53 54
3 53 55 54
3 56 57 58
3 56 58 59
3 60 42 61
3 42 41 61
3 62 63 64
3 62 64 65
3 66 67 68
3 66 68 69
3 70 55 53
3 70 53 71
3 72 70 73
3 70 71 73
3 74 75 76
3 74 76 77
3 78 79 80
3 78 80 81
3 82 60 61
3 82 61 83
3 84 85 86
3 84 86 87
3 88 89 90
3 91 92 93
3 94 95 96
3 94 96 97
3 98 99 100
3 99 101 100
3 102 103 104
3 102 104 105
3 106 107 108
3 109 110 111
3 112 113 114
3 115 116 117
3 118 119 120
3 119 121 120
3 122 123 124
3 122 124 125
3 126 127 128
3 129 130 131
3 132 133 134
3 132 134 135
3 136 137 138
3 136 138 139
3 140 141 142
3 140 142 143
3 144 145 146
3 144 146 147
3 148 149 150
3 148 150 151
3 152 153 154
3 155 156 157
3 158 159 160
3 159 161 160
3 162 163 164
3 163 165 164
3 166 167 168
3 169 170 171
3 172 173 174
3 173 175 174
3 176 177 178
3 176 178 179
3 180 181 182
3 180 182 183
3 184 185 186
3 184 186 187
3 188 189 190
3 188 190 191
3 192 193 194
3 192 194 195
3 196 197 198
3 196 198 199
3 200 201 202
3 203 204 205
3 206 207 208
3 209 205 210
3 211 196 199
3 211 199 212
3 213 214 215
3 213 215 216
3 217 218 219
3 217 219 220
3 195 194 221
3 194 222 221
3 223 224 225
3 223 225 226
3 224 223 227
3 224 227 228
3 213 229 230
3 213 230 214
3 192 195 231
3 192 231 232
3 224 228 233
3 224 233 234
3 235 236 237
3 235 237 238
3 239 240 241
3 240 242 241
3 243 244 245
3 243 245 246
3 247 248 249
3 248 250 249
3 248 243 246
3 248 246 250
3 244 247 249
3 244 249 245
3 251 218 217
3 251 217 252
3 253 254 255
3 253 255 256
3 257 258 259
3 257 259 260
3 254 257 260
3 254 260 255
3 258 253 256
3 258 256 259
3 240 261 262
3 240 262 263
3 264 235 265
3 264 265 266
3 218 251 267
3 218 267 268
3 229 213 269
3 229 269 270
3 235 264 271
3 235 271 236
3 272 261 240
3 272 240 239
