ply
format ascii 1.0
comment Created by Blender 2.72 (sub 0) - www.blender.org, source file: ''
element vertex 158
property float x
property float y
property float z
property float nx
property float ny
property float nz
element face 72
property list uchar uint vertex_indices
end_header
0.794895 0.821544 -0.006961 0.000000 0.000000 -1.000000
0.794895 -0.776657 -0.006961 0.000000 0.000000 -1.000000
-0.803306 -0.776657 -0.006961 0.000000 0.000000 -1.000000
0.794895 0.821543 1.591240 -0.000000 0.000000 1.000000
-0.803306 0.821544 1.591240 -0.000000 0.000000 1.000000
-0.803306 -0.776657 1.591240 -0.000000 0.000000 1.000000
0.794895 0.821543 1.591240 1.000000 -0.000001 0.000000
0.794894 -0.776657 1.591240 1.000000 -0.000001 0.000000
0.794895 -0.776657 -0.006961 1.000000 -0.000001 0.000000
0.794895 -0.776657 -0.006961 -0.000000 -1.000000 -0.000000
0.794894 -0.776657 1.591240 -0.000000 -1.000000 -0.000000
-0.803306 -0.776657 1.591240 -0.000000 -1.000000 -0.000000
-0.803306 -0.776657 1.591240 -1.000000 0.000000 -0.000000
-0.803306 0.821544 1.591240 -1.000000 0.000000 -0.000000
-0.803306 0.821544 -0.006961 -1.000000 0.000000 -0.000000
0.794895 0.821544 -0.006961 0.000000 1.000000 0.000000
-0.803306 0.821544 -0.006961 0.000000 1.000000 0.000000
-0.803306 0.821544 1.591240 0.000000 1.000000 0.000000
-0.398007 0.396668 5.612720 0.000000 -0.000000 -1.000000
-0.714034 0.396668 5.612720 0.000000 -0.000000 -1.000000
-0.714034 0.712695 5.612720 0.000000 -0.000000 -1.000000
-0.398007 0.712695 5.928746 -0.000000 0.000000 1.000000
-0.714034 0.712695 5.928746 -0.000000 0.000000 1.000000
-0.714034 0.396668 5.928746 -0.000000 0.000000 1.000000
-0.398007 0.712695 5.612720 1.000000 -0.000001 -0.000000
-0.398007 0.712695 5.928746 1.000000 -0.000001 -0.000000
-0.398007 0.396668 5.928746 1.000000 -0.000001 -0.000000
-0.398007 0.396668 5.612720 -0.000000 -1.000000 -0.000000
-0.398007 0.396668 5.928746 -0.000000 -1.000000 -0.000000
-0.714034 0.396668 5.928746 -0.000000 -1.000000 -0.000000
-0.714034 0.396668 5.928746 -1.000000 0.000000 -0.000000
-0.714034 0.712695 5.928746 -1.000000 0.000000 -0.000000
-0.714034 0.712695 5.612720 -1.000000 0.000000 -0.000000
-0.398007 0.712695 5.612720 0.000000 1.000000 0.000000
-0.714034 0.712695 5.612720 0.000000 1.000000 0.000000
-0.714034 0.712695 5.928746 0.000000 1.000000 0.000000
0.680272 -0.630568 5.612720 0.000000 -0.000000 -1.000000
0.364245 -0.630568 5.612720 0.000000 -0.000000 -1.000000
0.364245 -0.314541 5.612720 0.000000 -0.000000 -1.000000
0.364245 -0.314541 5.928746 0.000000 -0.000000 1.000000
0.364244 -0.630568 5.928746 0.000000 -0.000000 1.000000
0.680272 -0.630568 5.928746 0.000000 -0.000000 1.000000
0.680272 -0.314541 5.612720 1.000000 -0.000001 -0.000000
0.680272 -0.314541 5.928746 1.000000 -0.000001 -0.000000
0.680272 -0.630568 5.928746 1.000000 -0.000001 -0.000000
0.680272 -0.630568 5.612720 -0.000000 -1.000000 -0.000000
0.680272 -0.630568 5.928746 -0.000000 -1.000000 -0.000000
0.364244 -0.630568 5.928746 -0.000000 -1.000000 -0.000000
0.364244 -0.630568 5.928746 -1.000000 0.000000 -0.000000
0.364245 -0.314541 5.928746 -1.000000 0.000000 -0.000000
0.364245 -0.314541 5.612720 -1.000000 0.000000 -0.000000
0.680272 -0.314541 5.612720 0.000000 1.000000 0.000000
0.364245 -0.314541 5.612720 0.000000 1.000000 0.000000
0.364245 -0.314541 5.928746 0.000000 1.000000 0.000000
-0.398007 -0.592286 5.612720 0.000000 -0.000000 -1.000000
-0.714034 -0.592286 5.612720 0.000000 -0.000000 -1.000000
-0.714034 -0.276258 5.612720 0.000000 -0.000000 -1.000000
-0.714034 -0.276258 5.928746 0.000000 -0.000000 1.000000
-0.714034 -0.592286 5.928746 0.000000 -0.000000 1.000000
-0.398007 -0.592286 5.928746 0.000000 -0.000000 1.000000
-0.398007 -0.276258 5.612720 1.000000 -0.000001 -0.000000
-0.398007 -0.276259 5.928746 1.000000 -0.000001 -0.000000
-0.398007 -0.592286 5.928746 1.000000 -0.000001 -0.000000
-0.398007 -0.592286 5.612720 -0.000001 -1.000000 -0.000000
-0.398007 -0.592286 5.928746 -0.000001 -1.000000 -0.000000
-0.714034 -0.592286 5.928746 -0.000001 -1.000000 -0.000000
-0.714034 -0.592286 5.928746 -1.000000 0.000000 -0.000000
-0.714034 -0.276258 5.928746 -1.000000 0.000000 -0.000000
-0.714034 -0.276258 5.612720 -1.000000 0.000000 -0.000000
-0.398007 -0.276258 5.612720 0.000000 1.000000 0.000000
-0.714034 -0.276258 5.612720 0.000000 1.000000 0.000000
-0.714034 -0.276258 5.928746 0.000000 1.000000 0.000000
0.711161 0.389637 5.616347 0.000000 -0.000000 -1.000000
0.395134 0.389637 5.616347 0.000000 -0.000000 -1.000000
0.395134 0.705664 5.616347 0.000000 -0.000000 -1.000000
0.711161 0.705664 5.932374 -0.000000 0.000000 1.000000
0.395134 0.705664 5.932374 -0.000000 0.000000 1.000000
0.395134 0.389637 5.932374 -0.000000 0.000000 1.000000
0.711161 0.705664 5.616347 1.000000 -0.000001 -0.000000
0.711161 0.705664 5.932374 1.000000 -0.000001 -0.000000
0.711161 0.389637 5.932374 1.000000 -0.000001 -0.000000
0.711161 0.389637 5.616347 -0.000000 -1.000000 -0.000000
0.711161 0.389637 5.932374 -0.000000 -1.000000 -0.000000
0.395134 0.389637 5.932374 -0.000000 -1.000000 -0.000000
0.395134 0.389637 5.932374 -1.000000 0.000000 -0.000000
0.395134 0.705664 5.932374 -1.000000 0.000000 -0.000000
0.395134 0.705664 5.616347 -1.000000 0.000000 -0.000000
0.711161 0.705664 5.616347 0.000000 1.000000 0.000000
0.395134 0.705664 5.616347 0.000000 1.000000 0.000000
0.395134 0.705664 5.932374 0.000000 1.000000 0.000000
0.435624 -0.417386 1.308832 0.000000 -0.000000 -1.000000
-0.444035 -0.417386 1.308832 0.000000 -0.000000 -1.000000
-0.444035 0.462273 1.308832 0.000000 -0.000000 -1.000000
-0.444035 0.462273 5.671295 0.000000 -0.000000 1.000000
-0.444035 -0.417386 5.671295 0.000000 -0.000000 1.000000
0.435624 -0.417386 5.671295 0.000000 -0.000000 1.000000
0.435624 0.462273 5.671295 1.000000 -0.000001 0.000000
0.435624 -0.417386 5.671295 1.000000 -0.000001 0.000000
0.435624 -0.417386 1.308832 1.000000 -0.000001 0.000000
0.435624 -0.417386 5.671295 -0.000000 -1.000000 0.000000
-0.444035 -0.417386 5.671295 -0.000000 -1.000000 0.000000
-0.444035 -0.417386 1.308832 -0.000000 -1.000000 0.000000
-0.444035 -0.417386 5.671295 -1.000000 0.000000 -0.000000
-0.444035 0.462273 5.671295 -1.000000 0.000000 -0.000000
-0.444035 0.462273 1.308832 -1.000000 0.000000 -0.000000
0.435624 0.462273 1.308832 0.000000 1.000000 0.000000
-0.444035 0.462273 1.308832 0.000000 1.000000 0.000000
-0.444035 0.462273 5.671295 0.000000 1.000000 0.000000
-0.803306 0.821544 -0.006961 0.000000 0.000000 -1.000000
0.794894 -0.776657 1.591240 -0.000000 0.000000 1.000000
0.794895 0.821544 -0.006961 1.000000 0.000000 -0.000000
0.794895 0.821543 1.591240 1.000000 0.000000 -0.000000
0.794895 -0.776657 -0.006961 1.000000 0.000000 -0.000000
-0.803306 -0.776657 -0.006961 -0.000000 -1.000000 0.000000
-0.803306 -0.776657 -0.006961 -1.000000 0.000000 -0.000000
0.794895 0.821543 1.591240 0.000000 1.000000 0.000000
-0.398007 0.712695 5.612720 0.000000 0.000000 -1.000000
-0.398007 0.396668 5.928746 -0.000000 0.000000 1.000000
-0.398007 0.396668 5.612720 1.000000 0.000000 0.000000
-0.398007 0.712695 5.612720 1.000000 0.000000 0.000000
-0.398007 0.396668 5.928746 1.000000 0.000000 0.000000
-0.714034 0.396668 5.612720 -0.000000 -1.000000 0.000000
-0.714034 0.396668 5.612720 -1.000000 0.000000 -0.000000
-0.398007 0.712695 5.928746 0.000000 1.000000 0.000000
0.680272 -0.314541 5.612720 0.000000 0.000000 -1.000000
0.680272 -0.314541 5.928746 -0.000000 -0.000000 1.000000
0.680272 -0.630568 5.612720 1.000000 0.000000 0.000000
0.680272 -0.314541 5.612720 1.000000 0.000000 0.000000
0.680272 -0.630568 5.928746 1.000000 0.000000 0.000000
0.364245 -0.630568 5.612720 -0.000000 -1.000000 -0.000000
0.364245 -0.630568 5.612720 -1.000000 0.000000 -0.000000
0.680272 -0.314541 5.928746 0.000000 1.000000 0.000000
-0.398007 -0.276258 5.612720 0.000000 0.000000 -1.000000
-0.398007 -0.276259 5.928746 -0.000000 -0.000000 1.000000
-0.398007 -0.592286 5.612720 1.000000 0.000000 0.000000
-0.398007 -0.276258 5.612720 1.000000 0.000000 0.000000
-0.398007 -0.592286 5.928746 1.000000 0.000000 0.000000
-0.714034 -0.592286 5.612720 0.000000 -1.000000 0.000000
-0.398007 -0.592286 5.612720 0.000000 -1.000000 0.000000
-0.714034 -0.592286 5.928746 0.000000 -1.000000 0.000000
-0.714034 -0.592286 5.612720 -1.000000 0.000000 -0.000000
-0.398007 -0.276259 5.928746 0.000000 1.000000 0.000000
0.711161 0.705664 5.616347 0.000000 0.000000 -1.000000
0.711161 0.389637 5.932374 -0.000000 0.000000 1.000000
0.711161 0.389637 5.616347 1.000000 0.000000 0.000000
0.711161 0.705664 5.616347 1.000000 0.000000 0.000000
0.711161 0.389637 5.932374 1.000000 0.000000 0.000000
0.395134 0.389637 5.616347 -0.000000 -1.000000 0.000000
0.395134 0.389637 5.616347 -1.000000 0.000000 -0.000000
0.711161 0.705664 5.932374 0.000000 1.000000 0.000000
0.435624 0.462273 1.308832 0.000000 0.000000 -1.000000
0.435624 0.462273 5.671295 -0.000000 -0.000000 1.000000
0.435624 0.462273 1.308832 1.000000 0.000000 -0.000000
0.435624 0.462273 5.671295 1.000000 0.000000 -0.000000
0.435624 -0.417386 1.308832 1.000000 0.000000 -0.000000
0.435624 -0.417386 1.308832 -0.000000 -1.000000 -0.000000
-0.444035 -0.417386 1.308832 -1.000000 0.000000 -0.000000
0.435624 0.462273 5.671295 0.000000 1.000000 0.000000
3 0 1 2
3 3 4 5
3 6 7 8
3 9 10 11
3 12 13 14
3 15 16 17
3 18 19 20
3 21 22 23
3 24 25 26
3 27 28 29
3 30 31 32
3 33 34 35
3 36 37 38
3 39 40 41
3 42 43 44
3 45 46 47
3 48 49 50
3 51 52 53
3 54 55 56
3 57 58 59
3 60 61 62
3 63 64 65
3 66 67 68
3 69 70 71
3 72 73 74
3 75 76 77
3 78 79 80
3 81 82 83
3 84 85 86
3 87 88 89
3 90 91 92
3 93 94 95
3 96 97 98
3 99 100 101
3 102 103 104
3 105 106 107
3 108 0 2
3 109 3 5
3 110 111 112
3 113 9 11
3 114 12 14
3 115 15 17
3 116 18 20
3 117 21 23
3 118 119 120
3 121 27 29
3 122 30 32
3 123 33 35
3 124 36 38
3 125 39 41
3 126 127 128
3 129 45 47
3 130 48 50
3 131 51 53
3 132 54 56
3 133 57 59
3 134 135 136
3 137 138 139
3 140 66 68
3 141 69 71
3 142 72 74
3 143 75 77
3 144 145 146
3 147 81 83
3 148 84 86
3 149 87 89
3 150 90 92
3 151 93 95
3 152 153 154
3 155 99 101
3 156 102 104
3 157 105 107
