ply
format ascii 1.0
element vertex 163
property float x
property float y
property float z
element face 480
property list uchar uint vertex_indices
end_header
0.000000 0.000000 0.0000000
0.000000 -1.000000 0.000000
0.723607 -0.447220 0.525725
-0.276388 -0.447220 0.850649
-0.894426 -0.447216 0.000000
-0.276388 -0.447220 -0.850649
0.723607 -0.447220 -0.525725
0.276388 0.447220 0.850649
-0.723607 0.447220 0.525725
-0.723607 0.447220 -0.525725
0.276388 0.447220 -0.850649
0.894426 0.447216 0.000000
0.000000 1.000000 0.000000
-0.232822 -0.657519 0.716563
-0.162456 -0.850654 0.499995
-0.077607 -0.967950 0.238853
0.203181 -0.967950 0.147618
0.425323 -0.850654 0.309011
0.609547 -0.657519 0.442856
0.531941 -0.502302 0.681712
0.262869 -0.525738 0.809012
-0.029639 -0.502302 0.864184
0.812729 -0.502301 -0.295238
0.850648 -0.525736 0.000000
0.812729 -0.502301 0.295238
0.203181 -0.967950 -0.147618
0.425323 -0.850654 -0.309011
0.609547 -0.657519 -0.442856
-0.753442 -0.657515 0.000000
-0.525730 -0.850652 0.000000
-0.251147 -0.967949 0.000000
-0.483971 -0.502302 0.716565
-0.688189 -0.525736 0.499997
-0.831051 -0.502299 0.238853
-0.232822 -0.657519 -0.716563
-0.162456 -0.850654 -0.499995
-0.077607 -0.967950 -0.238853
-0.831051 -0.502299 -0.238853
-0.688189 -0.525736 -0.499997
-0.483971 -0.502302 -0.716565
-0.029639 -0.502302 -0.864184
0.262869 -0.525738 -0.809012
0.531941 -0.502302 -0.681712
0.956626 0.251149 0.147618
0.951058 -0.000000 0.309013
0.860698 -0.251151 0.442858
0.860698 -0.251151 -0.442858
0.951058 0.000000 -0.309013
0.956626 0.251149 -0.147618
0.155215 0.251152 0.955422
0.000000 -0.000000 1.000000
-0.155215 -0.251152 0.955422
0.687159 -0.251152 0.681715
0.587786 0.000000 0.809017
0.436007 0.251152 0.864188
-0.860698 0.251151 0.442858
-0.951058 -0.000000 0.309013
-0.956626 -0.251149 0.147618
-0.436007 -0.251152 0.864188
-0.587786 0.000000 0.809017
-0.687159 0.251152 0.681715
-0.687159 0.251152 -0.681715
-0.587786 -0.000000 -0.809017
-0.436007 -0.251152 -0.864188
-0.956626 -0.251149 -0.147618
-0.951058 0.000000 -0.309013
-0.860698 0.251151 -0.442858
0.436007 0.251152 -0.864188
0.587786 -0.000000 -0.809017
0.687159 -0.251152 -0.681715
-0.155215 -0.251152 -0.955422
0.000000 0.000000 -1.000000
0.155215 0.251152 -0.955422
0.831051 0.502299 0.238853
0.688189 0.525736 0.499997
0.483971 0.502302 0.716565
0.029639 0.502302 0.864184
-0.262869 0.525738 0.809012
-0.531941 0.502302 0.681712
-0.812729 0.502301 0.295238
-0.850648 0.525736 0.000000
-0.812729 0.502301 -0.295238
-0.531941 0.502302 -0.681712
-0.262869 0.525738 -0.809012
0.029639 0.502302 -0.864184
0.483971 0.502302 -0.716565
0.688189 0.525736 -0.499997
0.831051 0.502299 -0.238853
0.077607 0.967950 0.238853
0.162456 0.850654 0.499995
0.232822 0.657519 0.716563
0.753442 0.657515 0.000000
0.525730 0.850652 0.000000
0.251147 0.967949 0.000000
-0.203181 0.967950 0.147618
-0.425323 0.850654 0.309011
-0.609547 0.657519 0.442856
-0.203181 0.967950 -0.147618
-0.425323 0.850654 -0.309011
-0.609547 0.657519 -0.442856
0.077607 0.967950 -0.238853
0.162456 0.850654 -0.499995
0.232822 0.657519 -0.716563
0.361800 0.894429 -0.262863
0.638194 0.723610 -0.262864
0.447209 0.723612 -0.525728
-0.138197 0.894430 -0.425319
-0.052790 0.723612 -0.688185
-0.361804 0.723612 -0.587778
-0.447210 0.894429 0.000000
-0.670817 0.723611 -0.162457
-0.670817 0.723611 0.162457
-0.138197 0.894430 0.425319
-0.361804 0.723612 0.587778
-0.052790 0.723612 0.688185
0.361800 0.894429 0.262863
0.447209 0.723612 0.525728
0.638194 0.723610 0.262864
0.861804 0.276396 -0.425322
0.809019 0.000000 -0.587782
0.670821 0.276397 -0.688189
-0.138199 0.276397 -0.951055
-0.309016 -0.000000 -0.951057
-0.447215 0.276397 -0.850649
-0.947213 0.276396 -0.162458
-1.000000 0.000001 0.000000
-0.947213 0.276397 0.162458
-0.447216 0.276397 0.850648
-0.309017 -0.000001 0.951056
-0.138199 0.276397 0.951055
0.670820 0.276396 0.688190
0.809019 -0.000002 0.587783
0.861804 0.276394 0.425323
0.309017 -0.000000 -0.951056
0.447216 -0.276398 -0.850648
0.138199 -0.276398 -0.951055
-0.809018 -0.000000 -0.587783
-0.670819 -0.276397 -0.688191
-0.861803 -0.276396 -0.425324
-0.809018 0.000000 0.587783
-0.861803 -0.276396 0.425324
-0.670819 -0.276397 0.688191
0.309017 0.000000 0.951056
0.138199 -0.276398 0.951055
0.447216 -0.276398 0.850648
1.000000 0.000000 0.000000
0.947213 -0.276396 0.162458
0.947213 -0.276396 -0.162458
0.361803 -0.723612 -0.587779
0.138197 -0.894429 -0.425321
0.052789 -0.723611 -0.688186
-0.447211 -0.723612 -0.525727
-0.361801 -0.894429 -0.262863
-0.638195 -0.723609 -0.262863
-0.638195 -0.723609 0.262864
-0.361801 -0.894428 0.262864
-0.447211 -0.723610 0.525729
0.670817 -0.723611 -0.162457
0.670818 -0.723610 0.162458
0.447211 -0.894428 0.000001
0.052790 -0.723612 0.688185
0.138199 -0.894429 0.425321
0.361805 -0.723611 0.587779
2 15 1
2 18 2
2 21 3
2 24 2
2 27 6
2 30 1
2 33 4
2 36 1
2 39 5
2 42 6
2 45 2
2 48 11
2 51 3
2 54 7
2 57 4
2 60 8
2 63 5
2 66 9
2 69 6
2 72 10
2 75 7
2 78 8
2 81 9
2 84 10
2 87 11
2 90 7
2 93 12
2 96 8
2 99 9
2 102 10
2 3 13
2 13 14
2 14 15
2 1 16
2 16 17
2 17 18
2 2 19
2 19 20
2 20 21
2 6 22
2 22 23
2 23 24
2 1 25
2 25 26
2 26 27
2 4 28
2 28 29
2 29 30
2 3 31
2 31 32
2 32 33
2 5 34
2 34 35
2 35 36
2 4 37
2 37 38
2 38 39
2 5 40
2 40 41
2 41 42
2 11 43
2 43 44
2 44 45
2 6 46
2 46 47
2 47 48
2 7 49
2 49 50
2 50 51
2 2 52
2 52 53
2 53 54
2 8 55
2 55 56
2 56 57
2 3 58
2 58 59
2 59 60
2 9 61
2 61 62
2 62 63
2 4 64
2 64 65
2 65 66
2 10 67
2 67 68
2 68 69
2 5 70
2 70 71
2 71 72
2 11 73
2 73 74
2 74 75
2 7 76
2 76 77
2 77 78
2 8 79
2 79 80
2 80 81
2 9 82
2 82 83
2 83 84
2 10 85
2 85 86
2 86 87
2 12 88
2 88 89
2 89 90
2 11 91
2 91 92
2 92 93
2 12 94
2 94 95
2 95 96
2 12 97
2 97 98
2 98 99
2 12 100
2 100 101
2 101 102
2 93 100
2 103 101
2 92 103
2 105 102
2 91 104
2 104 105
2 93 103
2 100 103
2 92 104
2 103 104
2 103 105
2 101 105
2 91 87
2 104 87
2 104 86
2 105 86
2 105 85
2 102 85
2 100 97
2 106 98
2 101 106
2 108 99
2 102 107
2 107 108
2 100 106
2 97 106
2 101 107
2 106 107
2 106 108
2 98 108
2 102 84
2 107 84
2 107 83
2 108 83
2 108 82
2 99 82
2 97 94
2 109 95
2 98 109
2 111 96
2 99 110
2 110 111
2 97 109
2 94 109
2 98 110
2 109 110
2 109 111
2 95 111
2 99 81
2 110 81
2 110 80
2 111 80
2 111 79
2 96 79
2 94 88
2 112 89
2 95 112
2 114 90
2 96 113
2 113 114
2 94 112
2 88 112
2 95 113
2 112 113
2 112 114
2 89 114
2 96 78
2 113 78
2 113 77
2 114 77
2 114 76
2 90 76
2 88 93
2 115 92
2 89 115
2 117 91
2 90 116
2 116 117
2 88 115
2 93 115
2 89 116
2 115 116
2 115 117
2 92 117
2 90 75
2 116 75
2 116 74
2 117 74
2 117 73
2 91 73
2 48 87
2 118 86
2 47 118
2 120 85
2 46 119
2 119 120
2 48 118
2 87 118
2 47 119
2 118 119
2 118 120
2 86 120
2 46 69
2 119 69
2 119 68
2 120 68
2 120 67
2 85 67
2 72 84
2 121 83
2 71 121
2 123 82
2 70 122
2 122 123
2 72 121
2 84 121
2 71 122
2 121 122
2 121 123
2 83 123
2 70 63
2 122 63
2 122 62
2 123 62
2 123 61
2 82 61
2 66 81
2 124 80
2 65 124
2 126 79
2 64 125
2 125 126
2 66 124
2 81 124
2 65 125
2 124 125
2 124 126
2 80 126
2 64 57
2 125 57
2 125 56
2 126 56
2 126 55
2 79 55
2 60 78
2 127 77
2 59 127
2 129 76
2 58 128
2 128 129
2 60 127
2 78 127
2 59 128
2 127 128
2 127 129
2 77 129
2 58 51
2 128 51
2 128 50
2 129 50
2 129 49
2 76 49
2 54 75
2 130 74
2 53 130
2 132 73
2 52 131
2 131 132
2 54 130
2 75 130
2 53 131
2 130 131
2 130 132
2 74 132
2 52 45
2 131 45
2 131 44
2 132 44
2 132 43
2 73 43
2 67 72
2 133 71
2 68 133
2 135 70
2 69 134
2 134 135
2 67 133
2 72 133
2 68 134
2 133 134
2 133 135
2 71 135
2 69 42
2 134 42
2 134 41
2 135 41
2 135 40
2 70 40
2 61 66
2 136 65
2 62 136
2 138 64
2 63 137
2 137 138
2 61 136
2 66 136
2 62 137
2 136 137
2 136 138
2 65 138
2 63 39
2 137 39
2 137 38
2 138 38
2 138 37
2 64 37
2 55 60
2 139 59
2 56 139
2 141 58
2 57 140
2 140 141
2 55 139
2 60 139
2 56 140
2 139 140
2 139 141
2 59 141
2 57 33
2 140 33
2 140 32
2 141 32
2 141 31
2 58 31
2 49 54
2 142 53
2 50 142
2 144 52
2 51 143
2 143 144
2 49 142
2 54 142
2 50 143
2 142 143
2 142 144
2 53 144
2 51 21
2 143 21
2 143 20
2 144 20
2 144 19
2 52 19
2 43 48
2 145 47
2 44 145
2 147 46
2 45 146
2 146 147
2 43 145
2 48 145
2 44 146
2 145 146
2 145 147
2 47 147
2 45 24
2 146 24
2 146 23
2 147 23
2 147 22
2 46 22
2 27 42
2 148 41
2 26 148
2 150 40
2 25 149
2 149 150
2 27 148
2 42 148
2 26 149
2 148 149
2 148 150
2 41 150
2 25 36
2 149 36
2 149 35
2 150 35
2 150 34
2 40 34
2 34 39
2 151 38
2 35 151
2 153 37
2 36 152
2 152 153
2 34 151
2 39 151
2 35 152
2 151 152
2 151 153
2 38 153
2 36 30
2 152 30
2 152 29
2 153 29
2 153 28
2 37 28
2 28 33
2 154 32
2 29 154
2 156 31
2 30 155
2 155 156
2 28 154
2 33 154
2 29 155
2 154 155
2 154 156
2 32 156
2 30 15
2 155 15
2 155 14
2 156 14
2 156 13
2 31 13
2 22 27
2 157 26
2 23 157
2 159 25
2 24 158
2 158 159
2 22 157
2 27 157
2 23 158
2 157 158
2 157 159
2 26 159
2 24 18
2 158 18
2 158 17
2 159 17
2 159 16
2 25 16
2 13 21
2 160 20
2 14 160
2 162 19
2 15 161
2 161 162
2 13 160
2 21 160
2 14 161
2 160 161
2 160 162
2 20 162
2 15 16
2 161 16
2 161 17
2 162 17
2 162 18
2 19 18
