ply
format ascii 1.0
comment Created by Blender 2.59 (sub 0) - www.blender.org, source file: 'grass.blend'
element vertex 54
property float x
property float y
property float z
property float nx
property float ny
property float nz
property float s
property float t
element face 18
property list uchar uint vertex_indices
end_header
-0.379302 0.014914 -0.001097 0.000000 0.000000 1.000000 0.000000 0.000000 
0.133708 0.469154 -0.001097 0.000000 0.000000 1.000000 1.000000 1.000000 
-0.357253 0.504115 0.143728 0.000000 0.000000 1.000000 1.000000 0.000000 
0.500399 0.296392 0.143728 0.000000 0.000000 1.000000 1.000000 0.000000 
0.017360 0.337907 -0.001097 0.000000 0.000000 1.000000 0.000000 0.000000 
0.463012 -0.182581 -0.001097 0.000000 0.000000 1.000000 1.000000 1.000000 
0.348484 -0.489023 0.164392 0.000000 0.000000 1.000000 1.000000 0.000000 
0.464023 -0.017275 -0.001097 0.000000 0.000000 1.000000 0.000000 0.000000 
-0.124067 -0.368934 -0.001097 0.000000 0.000000 1.000000 1.000000 1.000000 
-0.420401 -0.314599 0.120964 0.000000 0.000000 1.000000 1.000000 0.000000 
0.039748 -0.394997 0.000525 0.000000 0.000000 1.000000 0.000000 0.000000 
-0.335537 0.146560 0.000525 0.000000 0.000000 1.000000 1.000000 1.000000 
0.459572 0.659360 0.135025 0.000000 0.000000 1.000000 1.000000 0.000000 
-0.025825 0.560147 -0.001097 0.000000 0.000000 1.000000 0.000000 0.000000 
0.536955 0.169260 -0.001097 0.000000 0.000000 1.000000 1.000000 1.000000 
0.687866 -0.439905 0.150592 0.000000 0.000000 1.000000 1.000000 0.000000 
0.596045 0.078837 -0.004318 0.000000 0.000000 1.000000 0.000000 0.000000 
0.169729 -0.514890 -0.004318 0.000000 0.000000 1.000000 1.000000 1.000000 
-0.675195 0.005228 0.121874 0.000000 0.000000 1.000000 1.000000 0.000000 
-0.323604 -0.339867 -0.001097 0.000000 0.000000 1.000000 0.000000 0.000000 
-0.312502 0.345254 -0.001097 0.000000 0.000000 1.000000 1.000000 1.000000 
-0.344266 0.646468 0.120201 0.000000 0.000000 1.000000 1.000000 0.000000 
-0.443540 0.196941 0.001483 0.000000 0.000000 1.000000 0.000000 0.000000 
0.112620 0.521085 0.001483 0.000000 0.000000 1.000000 1.000000 1.000000 
-0.363064 -0.625276 0.144109 0.000000 0.000000 1.000000 1.000000 0.000000 
0.129046 -0.537742 -0.001097 0.000000 0.000000 1.000000 0.000000 0.000000 
-0.421790 -0.130195 -0.001097 0.000000 0.000000 1.000000 1.000000 1.000000 
0.787619 0.196524 0.153255 0.000000 0.000000 1.000000 1.000000 0.000000 
0.357456 0.509360 -0.005567 0.000000 0.000000 1.000000 0.000000 0.000000 
0.461696 -0.232009 -0.005567 0.000000 0.000000 1.000000 1.000000 1.000000 
0.273180 0.613150 0.147595 0.000000 0.000000 1.000000 0.000000 1.000000 
-0.174780 0.427604 0.002531 0.000000 0.000000 1.000000 1.000000 1.000000 
0.454262 0.155907 0.002531 0.000000 0.000000 1.000000 0.000000 0.000000 
0.169382 -0.694763 0.147595 0.000000 0.000000 1.000000 0.000000 1.000000 
0.417968 -0.262983 0.002531 0.000000 0.000000 1.000000 1.000000 1.000000 
-0.244767 -0.437037 0.002531 0.000000 0.000000 1.000000 0.000000 0.000000 
0.542598 -0.125144 0.123801 0.000000 0.000000 1.000000 0.000000 1.000000 
0.362631 0.272543 0.005593 0.000000 0.000000 1.000000 1.000000 1.000000 
0.148225 -0.326510 0.005592 0.000000 0.000000 1.000000 0.000000 0.000000 
0.107343 0.453977 0.143360 0.000000 0.000000 1.000000 0.000000 1.000000 
-0.312405 0.284525 0.004517 0.000000 0.000000 1.000000 1.000000 1.000000 
0.290670 0.023834 0.004517 0.000000 0.000000 1.000000 0.000000 0.000000 
0.425231 -0.035679 0.143728 0.000000 0.000000 1.000000 1.000000 0.000000 
0.139944 0.346547 -0.001097 0.000000 0.000000 1.000000 0.000000 0.000000 
0.054890 -0.333364 -0.001097 0.000000 0.000000 1.000000 1.000000 1.000000 
0.145945 0.204996 0.156749 0.000000 0.000000 1.000000 0.000000 1.000000 
-0.278606 0.196475 0.002549 0.000000 0.000000 1.000000 1.000000 1.000000 
0.244916 -0.237146 0.002549 0.000000 0.000000 1.000000 0.000000 0.000000 
-0.366581 -0.059577 0.171703 0.000000 0.000000 1.000000 0.000000 1.000000 
0.047541 -0.273473 0.004250 0.000000 0.000000 1.000000 1.000000 1.000000 
-0.177321 0.351852 0.004250 0.000000 0.000000 1.000000 0.000000 0.000000 
-0.011152 -0.351913 0.144787 0.000000 0.000000 1.000000 0.000000 1.000000 
0.337210 -0.035534 0.003848 0.000000 0.000000 1.000000 1.000000 1.000000 
-0.329070 -0.017922 0.003848 0.000000 0.000000 1.000000 0.000000 0.000000 
3 0 1 2
3 3 4 5
3 6 7 8
3 9 10 11
3 12 13 14
3 15 16 17
3 18 19 20
3 21 22 23
3 24 25 26
3 27 28 29
3 30 31 32
3 33 34 35
3 36 37 38
3 39 40 41
3 42 43 44
3 45 46 47
3 48 49 50
3 51 52 53
