ply
format ascii 1.0
comment Created by Blender 2.59 (sub 0) - www.blender.org, source file: 'grass.blend'
element vertex 54
property float x
property float y
property float z
property float nx
property float ny
property float nz
property float s
property float t
element face 18
property list uchar uint vertex_indices
end_header
-0.271702 0.092824 0.321350 0.000000 0.000000 1.000000 0.000000 1.000000 
0.074721 0.377051 0.001318 0.000000 0.000000 1.000000 1.000000 1.000000 
-0.697732 0.282081 0.028272 0.000000 0.000000 1.000000 0.000000 0.000000 
-0.474652 -0.158266 0.362229 0.000000 0.000000 1.000000 1.000000 0.000000 
-0.728658 0.135010 -0.028519 0.000000 0.000000 1.000000 0.000000 0.000000 
-0.076965 -0.289974 0.004860 0.000000 0.000000 1.000000 1.000000 1.000000 
-0.178233 0.220625 0.345187 0.000000 0.000000 1.000000 0.000000 1.000000 
-0.257018 0.641627 -0.000883 0.000000 0.000000 1.000000 1.000000 1.000000 
-0.459462 -0.110296 0.006637 0.000000 0.000000 1.000000 0.000000 0.000000 
-0.520163 -0.022905 0.340922 0.000000 0.000000 1.000000 1.000000 0.000000 
-0.633440 -0.440798 0.000703 0.000000 0.000000 1.000000 0.000000 0.000000 
-0.126671 0.150472 -0.003054 0.000000 0.000000 1.000000 1.000000 1.000000 
0.126485 0.046334 0.376955 0.000000 0.000000 1.000000 0.000000 1.000000 
0.223879 -0.423272 -0.007859 0.000000 0.000000 1.000000 1.000000 1.000000 
-0.308602 0.264172 0.000999 0.000000 0.000000 1.000000 0.000000 0.000000 
-0.048662 0.070864 0.377142 0.000000 0.000000 1.000000 1.000000 0.000000 
0.423186 0.150280 -0.009056 0.000000 0.000000 1.000000 0.000000 0.000000 
-0.298795 -0.334415 -0.011804 0.000000 0.000000 1.000000 1.000000 1.000000 
0.386760 0.201931 0.353170 0.000000 0.000000 1.000000 1.000000 0.000000 
0.609033 0.550061 -0.010993 0.000000 0.000000 1.000000 0.000000 0.000000 
-0.016364 0.086107 -0.003608 0.000000 0.000000 1.000000 1.000000 1.000000 
0.237452 0.198942 0.351858 0.000000 0.000000 1.000000 0.000000 1.000000 
0.616907 0.010119 0.000326 0.000000 0.000000 1.000000 1.000000 1.000000 
0.110949 0.602093 -0.001244 0.000000 0.000000 1.000000 0.000000 0.000000 
0.475190 -0.187536 0.341747 0.000000 0.000000 1.000000 1.000000 0.000000 
0.133192 0.074904 -0.000855 0.000000 0.000000 1.000000 0.000000 0.000000 
0.894089 -0.090815 -0.002322 0.000000 0.000000 1.000000 1.000000 1.000000 
-0.083437 -0.512413 0.363186 0.000000 0.000000 1.000000 0.000000 1.000000 
0.329597 -0.478084 0.000642 0.000000 0.000000 1.000000 1.000000 1.000000 
-0.430445 -0.309020 -0.012888 0.000000 0.000000 1.000000 0.000000 0.000000 
0.645795 -0.133534 0.339104 0.000000 0.000000 1.000000 1.000000 0.000000 
0.481591 0.285297 0.021562 0.000000 0.000000 1.000000 0.000000 0.000000 
0.433253 -0.490710 -0.022096 0.000000 0.000000 1.000000 1.000000 1.000000 
0.014041 -0.478436 0.361186 0.000000 0.000000 1.000000 0.000000 1.000000 
-0.293551 -0.747905 -0.007580 0.000000 0.000000 1.000000 1.000000 1.000000 
0.095225 -0.073177 -0.002666 0.000000 0.000000 1.000000 0.000000 0.000000 
0.101461 0.432199 0.294012 0.000000 0.000000 1.000000 1.000000 0.000000 
-0.377865 0.395004 0.025541 0.000000 0.000000 1.000000 0.000000 0.000000 
0.303771 0.020129 -0.010098 0.000000 0.000000 1.000000 1.000000 1.000000 
0.193787 -0.263560 0.334730 0.000000 0.000000 1.000000 1.000000 0.000000 
0.524516 -0.004601 -0.021323 0.000000 0.000000 1.000000 0.000000 0.000000 
0.148540 -0.686533 -0.014929 0.000000 0.000000 1.000000 1.000000 1.000000 
0.110942 0.547917 0.362267 0.000000 0.000000 1.000000 0.000000 1.000000 
-0.302048 0.542686 -0.001913 0.000000 0.000000 1.000000 1.000000 1.000000 
0.441684 0.311955 -0.009413 0.000000 0.000000 1.000000 0.000000 0.000000 
0.083564 0.457379 0.372435 0.000000 0.000000 1.000000 1.000000 0.000000 
-0.080061 0.104060 -0.016933 0.000000 0.000000 1.000000 0.000000 0.000000 
0.247188 0.810698 -0.016933 0.000000 0.000000 1.000000 1.000000 1.000000 
-0.360510 -0.352541 0.372435 0.000000 0.000000 1.000000 1.000000 0.000000 
-0.043851 -0.579113 -0.016933 0.000000 0.000000 1.000000 0.000000 0.000000 
-0.677168 -0.125970 -0.016933 0.000000 0.000000 1.000000 1.000000 1.000000 
-0.444364 -0.308779 0.362267 0.000000 0.000000 1.000000 0.000000 1.000000 
-0.516149 -0.715515 -0.001913 0.000000 0.000000 1.000000 1.000000 1.000000 
-0.150926 -0.027776 -0.009413 0.000000 0.000000 1.000000 0.000000 0.000000 
3 0 1 2
3 3 4 5
3 6 7 8
3 9 10 11
3 12 13 14
3 15 16 17
3 18 19 20
3 21 22 23
3 24 25 26
3 27 28 29
3 30 31 32
3 33 34 35
3 36 37 38
3 39 40 41
3 42 43 44
3 45 46 47
3 48 49 50
3 51 52 53
