ply
format ascii 1.0
comment Created by Blender 2.59 (sub 0) - www.blender.org, source file: 'MultiLevelTower.blend'
element vertex 254
property float x
property float y
property float z
property float nx
property float ny
property float nz
property float s
property float t
element face 120
property list uchar uint vertex_indices
end_header
5.464102 7.000000 -0.000000 0.000000 1.000000 -0.000000 0.490497 0.491153 
4.964101 7.000000 -0.866026 0.000000 1.000000 -0.000000 0.490497 0.491153 
1.500000 7.000000 1.133974 0.000000 1.000000 -0.000000 0.490497 0.491153 
2.000000 7.000000 2.000000 0.000000 1.000000 0.000000 0.490497 0.491153 
1.500000 5.000000 1.133974 -0.866026 0.000000 0.500000 0.490497 0.491153 
2.000000 5.000000 2.000000 -0.866026 0.000000 0.500000 0.490497 0.491153 
2.000000 7.000000 2.000000 -0.866026 0.000000 0.500000 0.490497 0.491153 
1.500000 7.000000 1.133974 -0.866026 0.000000 0.500000 0.490497 0.491153 
4.964102 5.000000 -0.866026 -0.000000 -1.000000 -0.000000 0.490497 0.491153 
5.464101 5.000000 0.000000 -0.000000 -1.000000 -0.000000 0.490497 0.491153 
1.500000 5.000000 1.133974 -0.000000 -1.000000 -0.000000 0.490497 0.491153 
2.000000 5.000000 2.000000 0.000000 -1.000000 0.000000 0.490497 0.491153 
4.964101 7.000000 -0.866026 0.866025 0.000000 -0.500000 0.490497 0.491153 
5.464102 7.000000 -0.000000 0.866025 0.000000 -0.500000 0.490497 0.491153 
4.964102 5.000000 -0.866026 0.866025 0.000000 -0.500000 0.490497 0.491153 
5.464102 7.000000 -0.000000 0.866026 -0.000001 -0.499999 0.490497 0.491153 
5.464101 5.000000 0.000000 0.866026 -0.000001 -0.499999 0.490497 0.491153 
4.964102 5.000000 -0.866026 0.866026 -0.000001 -0.499999 0.490497 0.491153 
5.464102 7.000000 -0.000000 0.500000 0.000000 0.866025 0.490497 0.491153 
2.000000 7.000000 2.000000 0.500000 0.000000 0.866025 0.490497 0.491153 
5.464101 5.000000 0.000000 0.500000 0.000000 0.866025 0.490497 0.491153 
2.000000 5.000000 2.000000 0.500000 0.000000 0.866025 0.490497 0.491153 
4.964101 7.000000 -0.866026 -0.500000 -0.000000 -0.866025 0.490497 0.491153 
4.964102 5.000000 -0.866026 -0.500000 -0.000000 -0.866025 0.490497 0.491153 
1.500000 5.000000 1.133974 -0.500000 -0.000000 -0.866025 0.490497 0.491153 
1.500000 7.000000 1.133974 -0.500000 0.000000 -0.866025 0.490497 0.491153 
-5.000000 13.258329 -0.500000 0.000000 0.866025 -0.500000 0.490497 0.491153 
-5.000000 12.758329 -1.366025 0.000000 0.866025 -0.500000 0.490497 0.491153 
-7.000000 12.758329 -1.366025 0.000000 0.866025 -0.500000 0.490497 0.491153 
-7.000000 13.258329 -0.500000 0.000000 0.866025 -0.500000 0.490497 0.491153 
-7.000000 1.500000 5.133974 -1.000000 -0.000000 -0.000000 0.490497 0.491153 
-7.000000 2.000000 6.000000 -1.000000 -0.000000 -0.000000 0.490497 0.491153 
-7.000000 12.758329 -1.366025 -1.000000 -0.000000 -0.000000 0.490497 0.491153 
-7.000000 13.258329 -0.500000 -1.000000 -0.000000 -0.000000 0.490497 0.491153 
-5.000000 1.500000 5.133974 0.000000 -0.866026 0.499999 0.490497 0.491153 
-5.000001 2.000000 6.000000 0.000000 -0.866026 0.499999 0.490497 0.491153 
-7.000000 1.500000 5.133974 0.000000 -0.866026 0.499999 0.490497 0.491153 
-5.000001 2.000000 6.000000 -0.000001 -0.866025 0.500000 0.490497 0.491153 
-7.000000 2.000000 6.000000 -0.000001 -0.866025 0.500000 0.490497 0.491153 
-7.000000 1.500000 5.133974 -0.000001 -0.866025 0.500000 0.490497 0.491153 
-5.000000 12.758329 -1.366025 1.000000 -0.000000 -0.000000 0.490497 0.491153 
-5.000000 13.258329 -0.500000 1.000000 -0.000000 -0.000000 0.490497 0.491153 
-5.000001 2.000000 6.000000 1.000000 -0.000000 -0.000000 0.490497 0.491153 
-5.000000 12.758329 -1.366025 1.000000 0.000000 0.000001 0.490497 0.491153 
-5.000001 2.000000 6.000000 1.000000 0.000000 0.000001 0.490497 0.491153 
-5.000000 1.500000 5.133974 1.000000 0.000000 0.000001 0.490497 0.491153 
-5.000000 13.258329 -0.500000 -0.000000 0.500000 0.866025 0.490497 0.491153 
-7.000000 13.258329 -0.500000 -0.000000 0.500000 0.866025 0.490497 0.491153 
-7.000000 2.000000 6.000000 -0.000000 0.500000 0.866025 0.490497 0.491153 
-5.000001 2.000000 6.000000 0.000000 0.500000 0.866025 0.490497 0.491153 
-5.000000 12.758329 -1.366025 0.000000 -0.500000 -0.866025 0.490497 0.491153 
-5.000000 1.500000 5.133974 0.000000 -0.500000 -0.866025 0.490497 0.491153 
-7.000000 1.500000 5.133974 0.000000 -0.500000 -0.866025 0.490497 0.491153 
-7.000000 12.758329 -1.366025 0.000000 -0.500000 -0.866025 0.490497 0.491153 
19.320507 -4.999999 0.000000 0.000000 1.000000 0.000000 0.490497 0.491153 
18.820507 -4.999999 -0.866025 0.000000 1.000000 0.000000 0.490497 0.491153 
1.500000 -5.000000 9.133974 0.000000 1.000000 0.000000 0.490497 0.491153 
2.000000 -5.000000 10.000000 0.000000 1.000000 0.000000 0.490497 0.491153 
1.500000 -7.000000 9.133974 -0.866026 0.000000 0.499999 0.490497 0.491153 
2.000000 -7.000000 10.000000 -0.866026 0.000000 0.499999 0.490497 0.491153 
1.500000 -5.000000 9.133974 -0.866026 0.000000 0.499999 0.490497 0.491153 
2.000000 -5.000000 10.000000 -0.866026 0.000000 0.499999 0.490497 0.491153 
18.820507 -6.999999 -0.866025 -0.000000 -1.000000 -0.000000 0.490497 0.491153 
19.320507 -6.999999 0.000000 -0.000000 -1.000000 -0.000000 0.490497 0.491153 
2.000000 -7.000000 10.000000 -0.000000 -1.000000 -0.000000 0.490497 0.491153 
1.500000 -7.000000 9.133974 0.000000 -1.000000 0.000000 0.490497 0.491153 
18.820507 -4.999999 -0.866025 0.866025 0.000000 -0.500000 0.490497 0.491153 
19.320507 -4.999999 0.000000 0.866025 0.000000 -0.500000 0.490497 0.491153 
18.820507 -6.999999 -0.866025 0.866025 0.000000 -0.500000 0.490497 0.491153 
19.320507 -6.999999 0.000000 0.866025 0.000000 -0.500000 0.490497 0.491153 
19.320507 -4.999999 0.000000 0.500000 -0.000000 0.866025 0.490497 0.491153 
2.000000 -5.000000 10.000000 0.500000 -0.000000 0.866025 0.490497 0.491153 
2.000000 -7.000000 10.000000 0.500000 -0.000000 0.866025 0.490497 0.491153 
19.320507 -6.999999 0.000000 0.500000 0.000000 0.866025 0.490497 0.491153 
18.820507 -4.999999 -0.866025 -0.500000 0.000000 -0.866025 0.490497 0.491153 
18.820507 -6.999999 -0.866025 -0.500000 0.000000 -0.866025 0.490497 0.491153 
1.500000 -7.000000 9.133974 -0.500000 0.000000 -0.866025 0.490497 0.491153 
1.500000 -5.000000 9.133974 -0.500000 0.000000 -0.866025 0.490497 0.491153 
2.000000 -5.000000 10.000000 0.000000 1.000000 0.000000 0.490497 0.491153 
2.000000 -5.000000 9.000000 0.000000 1.000000 0.000000 0.490497 0.491153 
-2.000000 -5.000000 9.000000 0.000000 1.000000 0.000000 0.490497 0.491153 
-2.000000 -5.000000 10.000000 0.000000 1.000000 0.000000 0.490497 0.491153 
-2.000000 -7.000000 9.000000 -1.000000 0.000000 -0.000000 0.490497 0.491153 
-2.000000 -7.000000 10.000000 -1.000000 0.000000 -0.000000 0.490497 0.491153 
-2.000000 -5.000000 10.000000 -1.000000 0.000000 -0.000000 0.490497 0.491153 
-2.000000 -5.000000 9.000000 -1.000000 0.000000 -0.000000 0.490497 0.491153 
2.000000 -7.000000 9.000000 0.000000 -1.000000 -0.000000 0.490497 0.491153 
1.999999 -7.000000 10.000000 0.000000 -1.000000 -0.000000 0.490497 0.491153 
-2.000000 -7.000000 9.000000 0.000000 -1.000000 -0.000000 0.490497 0.491153 
-2.000000 -7.000000 10.000000 -0.000000 -1.000000 0.000000 0.490497 0.491153 
2.000000 -5.000000 9.000000 1.000000 -0.000000 0.000000 0.490497 0.491153 
2.000000 -5.000000 10.000000 1.000000 -0.000000 0.000000 0.490497 0.491153 
2.000000 -7.000000 9.000000 1.000000 -0.000000 0.000000 0.490497 0.491153 
2.000000 -5.000000 10.000000 1.000000 -0.000000 0.000001 0.490497 0.491153 
1.999999 -7.000000 10.000000 1.000000 -0.000000 0.000001 0.490497 0.491153 
2.000000 -7.000000 9.000000 1.000000 -0.000000 0.000001 0.490497 0.491153 
2.000000 -5.000000 10.000000 -0.000000 -0.000000 1.000000 0.490497 0.491153 
-2.000000 -5.000000 10.000000 -0.000000 -0.000000 1.000000 0.490497 0.491153 
1.999999 -7.000000 10.000000 -0.000000 -0.000000 1.000000 0.490497 0.491153 
-2.000000 -7.000000 10.000000 0.000000 -0.000000 1.000000 0.490497 0.491153 
2.000000 -5.000000 9.000000 0.000000 0.000000 -1.000000 0.490497 0.491153 
2.000000 -7.000000 9.000000 0.000000 0.000000 -1.000000 0.490497 0.491153 
-2.000000 -5.000000 9.000000 0.000000 0.000000 -1.000000 0.490497 0.491153 
-2.000000 -7.000000 9.000000 0.000000 -0.000000 -1.000000 0.490497 0.491153 
-5.000000 2.000000 6.000000 0.000000 1.000000 0.000000 0.490497 0.491153 
-5.000000 2.000000 5.000000 0.000000 1.000000 0.000000 0.490497 0.491153 
-7.000000 2.000000 5.000000 0.000000 1.000000 0.000000 0.490497 0.491153 
-7.000000 2.000000 6.000000 -0.000000 1.000000 0.000000 0.490497 0.491153 
-7.000000 -2.000000 5.000000 -1.000000 0.000000 -0.000000 0.490497 0.491153 
-7.000000 -2.000000 6.000000 -1.000000 0.000000 -0.000000 0.490497 0.491153 
-7.000000 2.000000 5.000000 -1.000000 0.000000 -0.000000 0.490497 0.491153 
-7.000000 2.000000 6.000000 -1.000000 0.000000 -0.000000 0.490497 0.491153 
-5.000000 -2.000000 5.000000 0.000000 -1.000000 -0.000000 0.490497 0.491153 
-5.000001 -2.000000 6.000000 0.000000 -1.000000 -0.000000 0.490497 0.491153 
-7.000000 -2.000000 5.000000 0.000000 -1.000000 -0.000000 0.490497 0.491153 
-7.000000 -2.000000 6.000000 -0.000000 -1.000000 0.000000 0.490497 0.491153 
-5.000000 2.000000 5.000000 1.000000 0.000000 -0.000000 0.490497 0.491153 
-5.000000 2.000000 6.000000 1.000000 0.000000 -0.000000 0.490497 0.491153 
-5.000000 -2.000000 5.000000 1.000000 0.000000 -0.000000 0.490497 0.491153 
-5.000000 2.000000 6.000000 1.000000 -0.000000 0.000001 0.490497 0.491153 
-5.000001 -2.000000 6.000000 1.000000 -0.000000 0.000001 0.490497 0.491153 
-5.000000 -2.000000 5.000000 1.000000 -0.000000 0.000001 0.490497 0.491153 
-5.000000 2.000000 6.000000 0.000000 0.000000 1.000000 0.490497 0.491153 
-7.000000 2.000000 6.000000 0.000000 0.000000 1.000000 0.490497 0.491153 
-7.000000 -2.000000 6.000000 0.000000 0.000000 1.000000 0.490497 0.491153 
-5.000001 -2.000000 6.000000 0.000000 -0.000000 1.000000 0.490497 0.491153 
-5.000000 2.000000 5.000000 0.000000 0.000000 -1.000000 0.490497 0.491153 
-5.000000 -2.000000 5.000000 0.000000 0.000000 -1.000000 0.490497 0.491153 
-7.000000 2.000000 5.000000 0.000000 0.000000 -1.000000 0.490497 0.491153 
-7.000000 -2.000000 5.000000 0.000000 -0.000000 -1.000000 0.490497 0.491153 
2.000000 7.000000 2.000000 0.000000 1.000000 0.000000 0.490497 0.491153 
2.000000 7.000000 1.000000 0.000000 1.000000 0.000000 0.490497 0.491153 
-2.000000 7.000000 1.000000 0.000000 1.000000 0.000000 0.490497 0.491153 
-2.000000 7.000000 2.000000 0.000000 1.000000 0.000000 0.490497 0.491153 
-2.000000 5.000000 1.000000 -1.000000 0.000000 -0.000000 0.490497 0.491153 
-2.000000 5.000000 2.000000 -1.000000 0.000000 -0.000000 0.490497 0.491153 
-2.000000 7.000000 2.000000 -1.000000 0.000000 -0.000000 0.490497 0.491153 
-2.000000 7.000000 1.000000 -1.000000 0.000000 -0.000000 0.490497 0.491153 
2.000000 5.000000 1.000000 0.000000 -1.000000 -0.000000 0.490497 0.491153 
1.999999 5.000000 2.000000 0.000000 -1.000000 -0.000000 0.490497 0.491153 
-2.000000 5.000000 1.000000 0.000000 -1.000000 -0.000000 0.490497 0.491153 
-2.000000 5.000000 2.000000 -0.000000 -1.000000 0.000000 0.490497 0.491153 
2.000000 7.000000 1.000000 1.000000 0.000000 -0.000001 0.490497 0.491153 
2.000000 7.000000 2.000000 1.000000 0.000000 -0.000001 0.490497 0.491153 
2.000000 5.000000 1.000000 1.000000 0.000000 -0.000001 0.490497 0.491153 
2.000000 7.000000 2.000000 1.000000 -0.000001 0.000001 0.490497 0.491153 
1.999999 5.000000 2.000000 1.000000 -0.000001 0.000001 0.490497 0.491153 
2.000000 5.000000 1.000000 1.000000 -0.000001 0.000001 0.490497 0.491153 
2.000000 7.000000 2.000000 -0.000000 -0.000000 1.000000 0.490497 0.491153 
-2.000000 7.000000 2.000000 -0.000000 -0.000000 1.000000 0.490497 0.491153 
1.999999 5.000000 2.000000 -0.000000 -0.000000 1.000000 0.490497 0.491153 
-2.000000 5.000000 2.000000 0.000000 -0.000000 1.000000 0.490497 0.491153 
2.000000 7.000000 1.000000 0.000000 0.000000 -1.000000 0.490497 0.491153 
2.000000 5.000000 1.000000 0.000000 0.000000 -1.000000 0.490497 0.491153 
-2.000000 7.000000 1.000000 0.000000 0.000000 -1.000000 0.490497 0.491153 
-2.000000 5.000000 1.000000 0.000000 -0.000000 -1.000000 0.490497 0.491153 
1.000000 1.000000 9.000000 0.000000 1.000000 0.000000 0.490497 0.491153 
1.000000 1.000000 0.000000 0.000000 1.000000 0.000000 0.490497 0.491153 
-1.000000 1.000000 0.000000 0.000000 1.000000 0.000000 0.490497 0.491153 
-1.000000 1.000000 9.000000 0.000000 1.000000 0.000000 0.490497 0.491153 
-1.000000 -1.000000 0.000000 -1.000000 0.000000 -0.000000 0.490497 0.491153 
-1.000000 -1.000000 9.000000 -1.000000 0.000000 -0.000000 0.490497 0.491153 
-1.000000 1.000000 9.000000 -1.000000 0.000000 -0.000000 0.490497 0.491153 
-1.000000 1.000000 0.000000 -1.000000 0.000000 -0.000000 0.490497 0.491153 
1.000000 -1.000000 0.000000 -0.000000 -1.000000 -0.000000 0.490497 0.491153 
0.999999 -1.000001 9.000000 -0.000000 -1.000000 -0.000000 0.490497 0.491153 
-1.000000 -1.000000 9.000000 -0.000000 -1.000000 -0.000000 0.490497 0.491153 
-1.000000 -1.000000 0.000000 -0.000000 -1.000000 0.000000 0.490497 0.491153 
1.000000 1.000000 0.000000 1.000000 -0.000001 -0.000000 0.490497 0.491153 
1.000000 1.000000 9.000000 1.000000 -0.000001 -0.000000 0.490497 0.491153 
0.999999 -1.000001 9.000000 1.000000 -0.000001 -0.000000 0.490497 0.491153 
1.000000 1.000000 0.000000 1.000000 0.000000 0.000000 0.490497 0.491153 
0.999999 -1.000001 9.000000 1.000000 0.000000 0.000000 0.490497 0.491153 
1.000000 -1.000000 0.000000 1.000000 0.000000 0.000000 0.490497 0.491153 
1.000000 1.000000 9.000000 -0.000000 -0.000000 1.000000 0.490497 0.491153 
-1.000000 1.000000 9.000000 -0.000000 -0.000000 1.000000 0.490497 0.491153 
0.999999 -1.000001 9.000000 -0.000000 -0.000000 1.000000 0.490497 0.491153 
-1.000000 -1.000000 9.000000 0.000000 -0.000000 1.000000 0.490497 0.491153 
1.000000 1.000000 0.000000 0.000000 0.000000 -1.000000 0.490497 0.491153 
1.000000 -1.000000 0.000000 0.000000 0.000000 -1.000000 0.490497 0.491153 
-1.000000 -1.000000 0.000000 0.000000 0.000000 -1.000000 0.490497 0.491153 
-1.000000 1.000000 0.000000 0.000000 -0.000000 -1.000000 0.490497 0.491153 
5.000000 5.000000 10.000000 0.000000 1.000000 0.000000 0.490497 0.491153 
5.000000 5.000000 9.000000 0.000000 1.000000 0.000000 0.490497 0.491153 
-5.000000 5.000000 9.000000 0.000000 1.000000 0.000000 0.490497 0.491153 
-5.000000 5.000000 10.000000 0.000000 1.000000 0.000000 0.490497 0.491153 
-5.000000 -5.000000 9.000000 -1.000000 0.000000 -0.000000 0.490497 0.491153 
-5.000000 -5.000000 10.000000 -1.000000 0.000000 -0.000000 0.490497 0.491153 
-5.000000 5.000000 10.000000 -1.000000 0.000000 -0.000000 0.490497 0.491153 
-5.000000 5.000000 9.000000 -1.000000 0.000000 -0.000000 0.490497 0.491153 
5.000000 -5.000000 9.000000 -0.000000 -1.000000 -0.000000 0.490497 0.491153 
5.000000 -5.000000 10.000000 -0.000000 -1.000000 -0.000000 0.490497 0.491153 
-5.000000 -5.000000 10.000000 -0.000000 -1.000000 -0.000000 0.490497 0.491153 
-5.000000 -5.000000 9.000000 0.000000 -1.000000 0.000000 0.490497 0.491153 
5.000000 5.000000 9.000000 1.000000 -0.000000 -0.000000 0.490497 0.491153 
5.000000 5.000000 10.000000 1.000000 -0.000000 -0.000000 0.490497 0.491153 
5.000000 -5.000000 10.000000 1.000000 -0.000000 -0.000000 0.490497 0.491153 
5.000000 -5.000000 9.000000 1.000000 0.000000 0.000000 0.490497 0.491153 
5.000000 5.000000 10.000000 -0.000000 0.000000 1.000000 0.490497 0.491153 
-5.000000 5.000000 10.000000 -0.000000 0.000000 1.000000 0.490497 0.491153 
-5.000000 -5.000000 10.000000 -0.000000 0.000000 1.000000 0.490497 0.491153 
5.000000 -5.000000 10.000000 0.000000 -0.000000 1.000000 0.490497 0.491153 
5.000000 5.000000 9.000000 0.000000 0.000000 -1.000000 0.490497 0.491153 
5.000000 -5.000000 9.000000 0.000000 0.000000 -1.000000 0.490497 0.491153 
-5.000000 -5.000000 9.000000 0.000000 0.000000 -1.000000 0.490497 0.491153 
-5.000000 5.000000 9.000000 0.000000 -0.000000 -1.000000 0.490497 0.491153 
5.000000 5.000000 6.000000 0.000000 1.000000 0.000000 0.490497 0.491153 
5.000000 5.000000 5.000000 0.000000 1.000000 0.000000 0.490497 0.491153 
-5.000000 5.000000 5.000000 0.000000 1.000000 0.000000 0.490497 0.491153 
-5.000000 5.000000 6.000000 0.000000 1.000000 0.000000 0.490497 0.491153 
-5.000000 -5.000000 5.000000 -1.000000 0.000000 -0.000000 0.490497 0.491153 
-5.000000 -5.000000 6.000000 -1.000000 0.000000 -0.000000 0.490497 0.491153 
-5.000000 5.000000 6.000000 -1.000000 0.000000 -0.000000 0.490497 0.491153 
-5.000000 5.000000 5.000000 -1.000000 0.000000 -0.000000 0.490497 0.491153 
5.000000 -5.000000 5.000000 -0.000000 -1.000000 -0.000000 0.490497 0.491153 
5.000000 -5.000000 6.000000 -0.000000 -1.000000 -0.000000 0.490497 0.491153 
-5.000000 -5.000000 6.000000 -0.000000 -1.000000 -0.000000 0.490497 0.491153 
-5.000000 -5.000000 5.000000 0.000000 -1.000000 0.000000 0.490497 0.491153 
5.000000 5.000000 5.000000 1.000000 -0.000000 -0.000000 0.490497 0.491153 
5.000000 5.000000 6.000000 1.000000 -0.000000 -0.000000 0.490497 0.491153 
5.000000 -5.000000 6.000000 1.000000 -0.000000 -0.000000 0.490497 0.491153 
5.000000 -5.000000 5.000000 1.000000 0.000000 0.000000 0.490497 0.491153 
5.000000 5.000000 6.000000 -0.000000 0.000000 1.000000 0.490497 0.491153 
-5.000000 5.000000 6.000000 -0.000000 0.000000 1.000000 0.490497 0.491153 
-5.000000 -5.000000 6.000000 -0.000000 0.000000 1.000000 0.490497 0.491153 
5.000000 -5.000000 6.000000 0.000000 -0.000000 1.000000 0.490497 0.491153 
5.000000 5.000000 5.000000 0.000000 0.000000 -1.000000 0.490497 0.491153 
5.000000 -5.000000 5.000000 0.000000 0.000000 -1.000000 0.490497 0.491153 
-5.000000 -5.000000 5.000000 0.000000 0.000000 -1.000000 0.490497 0.491153 
-5.000000 5.000000 5.000000 0.000000 -0.000000 -1.000000 0.490497 0.491153 
5.000000 5.000000 2.000000 0.000000 1.000000 0.000000 0.490497 0.491153 
5.000000 5.000000 1.000000 0.000000 1.000000 0.000000 0.490497 0.491153 
-5.000000 5.000000 1.000000 0.000000 1.000000 0.000000 0.490497 0.491153 
-5.000000 5.000000 2.000000 0.000000 1.000000 0.000000 0.490497 0.491153 
-5.000000 -5.000000 1.000000 -1.000000 0.000000 -0.000000 0.490497 0.491153 
-5.000000 -5.000000 2.000000 -1.000000 0.000000 -0.000000 0.490497 0.491153 
-5.000000 5.000000 2.000000 -1.000000 0.000000 -0.000000 0.490497 0.491153 
-5.000000 5.000000 1.000000 -1.000000 0.000000 -0.000000 0.490497 0.491153 
5.000000 -5.000000 1.000000 -0.000000 -1.000000 -0.000000 0.490497 0.491153 
5.000000 -5.000000 2.000000 -0.000000 -1.000000 -0.000000 0.490497 0.491153 
-5.000000 -5.000000 2.000000 -0.000000 -1.000000 -0.000000 0.490497 0.491153 
-5.000000 -5.000000 1.000000 0.000000 -1.000000 0.000000 0.490497 0.491153 
5.000000 5.000000 1.000000 1.000000 -0.000000 -0.000000 0.490497 0.491153 
5.000000 5.000000 2.000000 1.000000 -0.000000 -0.000000 0.490497 0.491153 
5.000000 -5.000000 2.000000 1.000000 -0.000000 -0.000000 0.490497 0.491153 
5.000000 -5.000000 1.000000 1.000000 0.000000 0.000000 0.490497 0.491153 
5.000000 5.000000 2.000000 -0.000000 0.000000 1.000000 0.490497 0.491153 
-5.000000 5.000000 2.000000 -0.000000 0.000000 1.000000 0.490497 0.491153 
-5.000000 -5.000000 2.000000 -0.000000 0.000000 1.000000 0.490497 0.491153 
5.000000 -5.000000 2.000000 0.000000 -0.000000 1.000000 0.490497 0.491153 
5.000000 5.000000 1.000000 0.000000 0.000000 -1.000000 0.490497 0.491153 
5.000000 -5.000000 1.000000 0.000000 0.000000 -1.000000 0.490497 0.491153 
-5.000000 -5.000000 1.000000 0.000000 0.000000 -1.000000 0.490497 0.491153 
-5.000000 5.000000 1.000000 0.000000 -0.000000 -1.000000 0.490497 0.491153 
3 0 1 2
3 0 2 3
3 4 5 6
3 4 6 7
3 8 9 10
3 9 11 10
3 12 13 14
3 15 16 17
3 18 19 20
3 19 21 20
3 22 23 24
3 22 24 25
3 26 27 28
3 26 28 29
3 30 31 32
3 31 33 32
3 34 35 36
3 37 38 39
3 40 41 42
3 43 44 45
3 46 47 48
3 46 48 49
3 50 51 52
3 50 52 53
3 54 55 56
3 54 56 57
3 58 59 60
3 59 61 60
3 62 63 64
3 62 64 65
3 66 67 68
3 67 69 68
3 70 71 72
3 70 72 73
3 74 75 76
3 74 76 77
3 78 79 80
3 78 80 81
3 82 83 84
3 82 84 85
3 86 87 88
3 87 89 88
3 90 91 92
3 93 94 95
3 96 97 98
3 97 99 98
3 100 101 102
3 101 103 102
3 104 105 106
3 104 106 107
3 108 109 110
3 109 111 110
3 112 113 114
3 113 115 114
3 116 117 118
3 119 120 121
3 122 123 124
3 122 124 125
3 126 127 128
3 127 129 128
3 130 131 132
3 130 132 133
3 134 135 136
3 134 136 137
3 138 139 140
3 139 141 140
3 142 143 144
3 145 146 147
3 148 149 150
3 149 151 150
3 152 153 154
3 153 155 154
3 156 157 158
3 156 158 159
3 160 161 162
3 160 162 163
3 164 165 166
3 164 166 167
3 168 169 170
3 171 172 173
3 174 175 176
3 175 177 176
3 178 179 180
3 178 180 181
3 182 183 184
3 182 184 185
3 186 187 188
3 186 188 189
3 190 191 192
3 190 192 193
3 194 195 196
3 194 196 197
3 198 199 200
3 198 200 201
3 202 203 204
3 202 204 205
3 206 207 208
3 206 208 209
3 210 211 212
3 210 212 213
3 214 215 216
3 214 216 217
3 218 219 220
3 218 220 221
3 222 223 224
3 222 224 225
3 226 227 228
3 226 228 229
3 230 231 232
3 230 232 233
3 234 235 236
3 234 236 237
3 238 239 240
3 238 240 241
3 242 243 244
3 242 244 245
3 246 247 248
3 246 248 249
3 250 251 252
3 250 252 253
