ply
format ascii 1.0
comment Created by Blender 2.59 (sub 0) - www.blender.org, source file: 'navmesh_castle.blend'
element vertex 141
property float x
property float y
property float z
property float nx
property float ny
property float nz
element face 146
property list uchar uint vertex_indices
end_header
7.250001 -9.998889 0.000000 0.000000 -0.229743 0.973235 
7.750002 -9.998889 0.000000 0.000000 -0.229743 0.973235 
7.750002 -6.998889 1.500000 0.000000 -0.229743 0.973235 
7.250001 -6.998889 1.500000 0.000000 -0.229743 0.973235 
8.750002 -6.998889 1.500000 0.000000 0.229743 0.973235 
8.250002 -6.998889 1.500000 0.000000 0.229743 0.973235 
8.250002 -9.998890 3.000000 0.000000 0.229743 0.973235 
8.750002 -9.998890 3.000000 0.000000 0.229743 0.973235 
8.250002 -11.748890 3.000000 0.000000 0.000000 1.000000 
8.750002 -10.248890 3.000000 0.000000 0.000000 1.000000 
9.250002 -11.748890 3.000000 0.000000 0.000000 1.000000 
9.250002 -10.248890 3.000000 0.000000 0.000000 1.000000 
8.750002 -6.248889 1.500000 0.000000 0.000000 0.999969 
8.250002 -6.748889 1.500000 0.000000 0.000000 1.000000 
7.250001 -6.248889 1.500000 0.000000 0.000000 1.000000 
7.750002 -6.748889 1.500000 0.000000 0.000000 1.000000 
7.249999 -10.249999 0.000000 0.000000 0.000000 1.000000 
7.750000 -10.249999 0.000000 0.000000 0.000000 1.000000 
-1.750000 6.350000 0.000000 0.000000 0.000000 1.000000 
-0.750001 6.750000 0.000000 0.000000 0.000000 1.000000 
-1.750000 6.750000 0.000000 0.000000 0.000000 1.000000 
-5.250000 6.350000 0.000000 0.000000 0.000000 1.000000 
-5.250000 6.750000 0.000000 0.000000 0.000000 1.000000 
-8.750000 6.750000 0.000000 0.000000 0.000000 1.000000 
-8.750000 -0.750000 0.000000 0.000000 0.000000 1.000000 
-8.349998 -0.750001 0.000000 0.000000 0.000000 1.000000 
-8.349998 -4.250000 0.000000 0.000000 0.000000 1.000000 
-8.750000 -4.250000 0.000000 0.000000 0.000000 1.000000 
-8.750000 -5.750000 0.000000 0.000000 0.000000 1.000000 
-7.750000 -5.750000 0.000000 0.000000 0.000000 1.000000 
-6.749999 -11.750000 0.000000 0.000000 0.000000 1.000000 
-5.250000 -11.750000 0.000000 0.000000 0.000000 1.000000 
-5.250000 -11.349999 0.000000 0.000000 0.000000 1.000000 
-1.750001 9.250000 0.000000 0.000000 0.000000 0.999969 
-0.750000 9.250000 0.000000 0.000000 0.000000 1.000000 
-1.750000 9.650000 0.000000 0.000000 0.000000 1.000000 
-5.250000 9.650000 0.000000 0.000000 0.000000 1.000000 
-11.250000 9.250000 0.000000 0.000000 0.000000 1.000000 
-5.250000 9.250000 0.000000 0.000000 0.000000 1.000000 
-50.000000 50.000000 0.000000 0.000000 0.000000 0.999969 
-11.650000 -0.750000 0.000000 0.000000 0.000000 1.000000 
-11.250000 -0.750000 0.000000 0.000000 0.000000 1.000000 
-50.000000 -50.000000 0.000000 0.000000 0.000000 1.000000 
-11.650000 -4.250000 0.000000 0.000000 0.000000 1.000000 
-11.250000 -14.350000 0.000000 0.000000 0.000000 0.999969 
-11.250000 -4.250000 0.000000 0.000000 0.000000 1.000000 
-5.250000 -14.750001 0.000000 0.000000 0.000000 1.000000 
-5.250000 -14.350000 0.000000 0.000000 0.000000 1.000000 
-1.750000 -14.750001 0.000000 0.000000 0.000000 1.000000 
-9.250000 -7.750000 3.000000 0.000000 0.000000 1.000000 
-10.349999 -13.100000 3.000000 0.000000 0.000000 1.000000 
-9.250000 -12.250000 3.000000 0.000000 0.000000 1.000000 
-10.349999 -3.600000 3.000000 0.000000 0.000000 1.000000 
-10.750000 -1.400000 3.000000 0.000000 0.000000 1.000000 
-10.750000 -3.600000 3.000000 0.000000 0.000000 1.000000 
-10.349999 -1.400000 3.000000 0.000000 0.000000 1.000000 
-9.250000 -6.250000 3.000000 0.000000 0.000000 1.000000 
-9.250000 7.250000 3.000000 0.000000 0.000000 1.000000 
-10.350000 8.350000 3.000000 0.000000 0.000000 1.000000 
-4.600000 8.350000 3.000000 0.000000 0.000000 1.000000 
-1.000001 7.250000 3.000000 0.000000 0.000000 1.000000 
-2.400000 8.350000 3.000000 0.000000 0.000000 1.000000 
-2.400000 8.750000 3.000000 0.000000 0.000000 1.000000 
-4.600000 8.750000 3.000000 0.000000 0.000000 1.000000 
-4.350000 -13.100000 3.000000 0.000000 0.000000 1.000000 
-4.350000 -13.500000 3.000000 0.000000 0.000000 1.000000 
-2.650000 -13.099999 3.000000 0.000000 0.000000 1.000000 
-2.650000 -13.500000 3.000000 0.000000 0.000000 1.000000 
-7.249999 -8.000001 0.000000 0.000000 0.229743 0.973235 
-7.750000 -8.000001 0.000000 0.000000 0.229743 0.973235 
-7.750000 -11.000000 1.500000 0.000000 0.229743 0.973235 
-7.249999 -11.000000 1.500000 0.000000 0.229743 0.973235 
0.000000 0.000000 0.000000 0.000000 0.000000 1.000000 
-6.749999 -7.750001 0.000000 0.000000 0.000000 1.000000 
-8.750000 -11.000000 1.500000 0.000000 -0.229743 0.973235 
-8.250000 -11.000000 1.500000 0.000000 -0.229743 0.973235 
-8.250000 -8.000000 3.000000 0.000000 -0.229743 0.973235 
-8.750000 -8.000000 3.000000 0.000000 -0.229743 0.973235 
-8.250000 -6.250000 3.000000 0.000000 0.000000 1.000000 
-8.750000 -7.750000 3.000000 0.000000 0.000000 1.000000 
-8.750000 -11.750000 1.500000 0.000000 0.000000 0.999969 
-8.250000 -11.250000 1.500000 0.000000 0.000000 1.000000 
-7.249999 -11.750000 1.500000 0.000000 0.000000 1.000000 
-7.750000 -11.250000 1.500000 0.000000 0.000000 1.000000 
-7.249999 -7.750001 0.000000 0.000000 0.000000 1.000000 
-7.750000 -7.750001 0.000000 0.000000 0.000000 1.000000 
6.749999 -5.750000 0.000000 0.000000 0.000000 1.000000 
6.749999 -10.249999 0.000000 0.000000 0.000000 1.000000 
5.250000 -11.349999 0.000000 0.000000 0.000000 1.000000 
7.750000 -11.750000 0.000000 0.000000 0.000000 1.000000 
8.349998 -4.250000 0.000000 0.000000 0.000000 1.000000 
8.349998 -0.750001 0.000000 0.000000 0.000000 1.000000 
5.250000 6.350000 0.000000 0.000000 0.000000 1.000000 
1.750000 6.350000 0.000000 0.000000 0.000000 1.000000 
9.250000 -12.250000 3.000000 0.000000 0.000000 1.000000 
2.650000 -13.099999 3.000000 0.000000 0.000000 1.000000 
4.350000 -13.100000 3.000000 0.000000 0.000000 1.000000 
10.349999 -13.100000 3.000000 0.000000 0.000000 1.000000 
2.650000 -13.500000 3.000000 0.000000 0.000000 1.000000 
4.350000 -13.500000 3.000000 0.000000 0.000000 1.000000 
10.349999 -3.600000 3.000000 0.000000 0.000000 1.000000 
4.600000 8.350000 3.000000 0.000000 0.000000 1.000000 
1.000001 7.250000 3.000000 0.000000 0.000000 1.000000 
9.250000 7.250000 3.000000 0.000000 0.000000 1.000000 
10.350000 8.350000 3.000000 0.000000 0.000000 1.000000 
2.400000 8.750000 3.000000 0.000000 0.000000 1.000000 
2.400000 8.350000 3.000000 0.000000 0.000000 1.000000 
4.600000 8.750000 3.000000 0.000000 0.000000 1.000000 
10.349999 -1.400000 3.000000 0.000000 0.000000 1.000000 
10.750000 -1.400000 3.000000 0.000000 0.000000 1.000000 
10.750000 -3.600000 3.000000 0.000000 0.000000 1.000000 
50.000000 -50.000000 0.000000 0.000000 0.000000 0.999969 
5.250000 -14.750001 0.000000 0.000000 0.000000 1.000000 
1.750000 -14.750001 0.000000 0.000000 0.000000 1.000000 
11.250000 -14.350000 0.000000 0.000000 0.000000 0.999969 
5.250000 -14.350000 0.000000 0.000000 0.000000 1.000000 
11.650000 -4.250000 0.000000 0.000000 0.000000 1.000000 
11.250000 -4.250000 0.000000 0.000000 0.000000 1.000000 
11.650000 -0.750000 0.000000 0.000000 0.000000 1.000000 
50.000000 50.000000 0.000000 0.000000 0.000000 1.000000 
11.250000 9.250000 0.000000 0.000000 0.000000 1.000000 
11.250000 -0.750000 0.000000 0.000000 0.000000 1.000000 
1.750000 9.650000 0.000000 0.000000 0.000000 1.000000 
5.250000 9.650000 0.000000 0.000000 0.000000 1.000000 
5.250000 9.250000 0.000000 0.000000 0.000000 1.000000 
1.750001 9.250000 0.000000 0.000000 0.000000 0.999969 
0.750000 9.250000 0.000000 0.000000 0.000000 1.000000 
5.250000 -11.750000 0.000000 0.000000 0.000000 1.000000 
8.750000 -5.750000 0.000000 0.000000 0.000000 1.000000 
8.750000 -4.250000 0.000000 0.000000 0.000000 1.000000 
8.750000 6.750000 0.000000 0.000000 0.000000 1.000000 
8.750000 -0.750000 0.000000 0.000000 0.000000 1.000000 
5.250000 6.750000 0.000000 0.000000 0.000000 1.000000 
1.750000 6.750000 0.000000 0.000000 0.000000 1.000000 
0.750001 6.750000 0.000000 0.000000 0.000000 1.000000 
-1.750000 -11.349999 0.000000 0.000000 0.000000 1.000000 
1.750000 -11.349999 0.000000 0.000000 0.000000 1.000000 
-1.750000 -11.750000 0.000000 0.000000 0.000000 1.000000 
1.750000 -11.750000 0.000000 0.000000 0.000000 1.000000 
1.750000 -14.350000 0.000000 0.000000 0.000000 1.000000 
-1.750000 -14.350000 0.000000 0.000000 0.000000 1.000000 
3 0 1 2
3 0 2 3
3 4 5 6
3 6 7 4
3 8 9 6
3 9 7 6
3 10 11 9
3 10 9 8
3 12 13 4
3 13 5 4
3 14 15 12
3 2 15 3
3 15 14 3
3 13 12 15
3 0 16 1
3 17 1 16
3 18 19 20
3 21 22 23
3 23 24 25
3 23 25 21
3 26 27 28
3 26 28 29
3 30 31 32
3 33 34 35
3 36 37 38
3 36 39 37
3 35 39 36
3 37 40 41
3 37 39 40
3 39 42 40
3 40 42 43
3 43 42 44
3 43 44 45
3 44 42 46
3 44 46 47
3 42 48 46
3 49 50 51
3 52 53 54
3 52 55 53
3 56 57 55
3 56 55 52
3 57 58 55
3 59 60 61
3 59 62 63
3 59 61 62
3 59 58 57
3 59 57 60
3 49 56 52
3 49 52 50
3 64 65 66
3 66 65 67
3 50 64 51
3 68 69 70
3 68 70 71
3 51 64 66
3 18 21 72
3 21 25 72
3 25 26 72
3 26 29 72
3 32 73 30
3 73 32 72
3 74 75 76
3 76 77 74
3 78 79 76
3 79 77 76
3 56 49 79
3 56 79 78
3 80 81 74
3 81 75 74
3 82 83 80
3 70 83 71
3 83 82 71
3 81 80 83
3 68 84 69
3 29 84 72
3 29 85 84
3 85 69 84
3 73 72 84
3 86 72 87
3 87 72 88
3 88 89 87
3 90 72 86
3 91 72 90
3 92 72 91
3 93 72 92
3 94 95 96
3 97 94 96
3 95 98 99
3 96 95 99
3 10 97 100
3 10 100 11
3 101 102 103
3 101 103 104
3 101 105 106
3 101 107 105
3 101 106 102
3 103 108 104
3 11 100 108
3 11 108 103
3 100 109 108
3 100 110 109
3 10 94 97
3 111 112 113
3 114 115 112
3 114 112 111
3 116 117 114
3 116 114 111
3 118 116 111
3 119 118 111
3 120 118 119
3 120 121 118
3 122 123 119
3 123 120 119
3 123 124 120
3 125 122 126
3 89 88 127
3 90 86 128
3 90 128 129
3 130 92 91
3 130 91 131
3 92 130 132
3 93 133 134
3 18 72 93
3 32 135 72
3 135 136 72
3 72 136 88
3 135 137 138
3 135 138 136
3 51 66 95
3 51 95 94
3 48 113 139
3 48 139 140
3 42 111 113
3 42 113 48
3 35 122 119
3 35 119 39
3 35 34 126
3 35 126 122
3 19 134 126
3 19 126 34
3 18 93 134
3 18 134 19
3 17 16 89
3 16 87 89
3 60 102 106
3 60 106 61
