ply
format ascii 1.0
comment Created by Blender 2.59 (sub 0) - www.blender.org, source file: ''
element vertex 4
property float x
property float y
property float z
property float nx
property float ny
property float nz
element face 2
property list uchar uint vertex_indices
end_header
49.999996 49.999996 0.000000 -0.000000 0.000000 1.000000 
-49.999981 50.000019 0.000000 -0.000000 0.000000 1.000000 
-50.000008 -49.999992 0.000000 -0.000000 0.000000 1.000000 
49.999996 -49.999996 0.000000 0.000000 -0.000000 1.000000 
3 0 1 2
3 0 2 3
