ply
format ascii 1.0
comment Created by Blender 2.59 (sub 0) - www.blender.org, source file: 'MultiLevelTower.blend'
element vertex 70
property float x
property float y
property float z
property float nx
property float ny
property float nz
property float s
property float t
element face 78
property list uchar uint vertex_indices
end_header
5.464067 5.200001 0.000000 0.258797 0.000000 0.965911 0.614533 0.453246 
5.464065 6.800001 0.000000 0.258797 0.000000 0.965911 0.614533 0.422178 
2.000000 6.800001 2.000000 0.258797 0.000000 0.965911 0.547271 0.422178 
1.999999 5.200001 2.000000 0.258797 0.000000 0.965911 0.547271 0.453246 
-4.800000 4.800001 2.000000 0.000000 0.000000 1.000000 0.415234 0.461012 
-1.200000 1.200000 2.000000 0.000000 0.000000 1.000000 0.485136 0.530914 
-1.800001 4.800001 2.000000 0.000000 0.000000 1.000000 0.473485 0.461012 
4.800000 -4.800001 2.000000 0.000000 0.000000 1.000000 0.601639 0.647418 
1.200000 -1.200000 2.000000 0.000000 0.000000 1.000000 0.531737 0.577516 
-1.200001 -1.200000 2.000000 0.000000 0.000000 1.000000 0.485136 0.577516 
-4.800001 -4.800000 2.000000 0.000000 0.000000 0.999969 0.415233 0.647418 
4.800000 4.800001 2.000000 0.000000 0.000000 1.000000 0.601639 0.461012 
1.200000 1.200000 2.000000 0.000000 0.000000 1.000000 0.531737 0.530914 
1.799999 5.200001 2.000000 0.000000 0.000000 1.000000 0.543387 0.453246 
-1.800000 6.800001 2.000000 0.000000 0.000000 0.999969 0.473485 0.422178 
1.799999 4.800001 2.000000 0.000000 0.000000 1.000000 0.543387 0.461012 
5.664065 6.800001 0.000000 0.000000 0.000000 1.000000 0.618417 0.422178 
5.664065 5.200001 0.000000 0.000000 0.000000 1.000000 0.618417 0.453246 
-5.200000 12.412510 0.000000 0.000000 0.258400 0.966033 0.407467 0.313199 
-6.800000 12.412510 0.000000 0.000000 0.258400 0.966033 0.376399 0.313199 
-6.800001 2.000000 6.000000 0.000000 0.258400 0.966033 0.376399 0.515381 
-5.200001 2.000000 6.000000 0.000000 0.258400 0.966033 0.407467 0.515381 
19.923456 -4.400000 0.000000 0.000000 0.000000 1.000000 0.887528 0.647418 
50.000004 49.999996 0.000000 0.000000 0.000000 0.999969 1.479298 -0.416646 
5.664063 7.200001 0.000000 0.000000 0.000000 1.000000 0.618417 0.414411 
-50.000004 -49.999996 0.000000 0.000000 0.000000 1.000000 -0.462425 1.525076 
-7.200000 7.706255 0.000000 0.000000 0.000000 1.000000 0.368632 0.404581 
-50.000000 50.000000 0.000000 0.000000 0.000000 0.999969 -0.462425 -0.416646 
19.923456 -7.599997 0.000000 0.000000 0.000000 1.000000 0.887528 0.694019 
13.618539 -7.599998 0.000000 0.000000 0.000000 1.000000 0.776754 0.694019 
49.999996 -50.000004 0.000000 0.000000 0.000000 0.999969 1.479298 1.525077 
13.618539 -4.400000 0.000000 0.000000 0.000000 1.000000 0.776754 0.647418 
5.664065 4.800001 0.000000 0.000000 0.000000 1.000000 0.618417 0.461012 
5.199999 -5.199999 0.000000 0.000000 0.000000 1.000000 0.609406 0.655185 
-5.200001 -5.199999 0.000000 0.000000 0.000000 1.000000 0.407467 0.655185 
-5.200001 5.200000 0.000000 0.000000 0.000000 1.000000 0.407467 0.453246 
-2.198293 7.200000 0.000000 0.000000 0.000000 1.000000 0.465751 0.414411 
-2.198293 5.200000 0.000000 0.000000 0.000000 1.000000 0.465751 0.453246 
-4.800000 7.706255 0.000000 0.000000 0.000000 1.000000 0.415234 0.404581 
-4.800001 -4.800000 6.000000 0.000000 0.000000 1.000000 0.415233 0.647418 
-1.200000 -1.200000 6.000000 0.000000 0.000000 1.000000 0.485136 0.577516 
-4.800001 -1.800000 6.000000 0.000000 0.000000 1.000000 0.415233 0.589166 
4.800001 4.800000 6.000000 0.000000 0.000000 1.000000 0.601639 0.461012 
1.200000 1.200000 6.000000 0.000000 0.000000 1.000000 0.531737 0.530914 
1.200000 -1.200001 6.000000 0.000000 0.000000 1.000000 0.531737 0.577516 
4.800000 -4.800001 6.000000 0.000000 0.000000 1.000000 0.601639 0.647418 
-4.800000 4.800000 6.000000 0.000000 0.000000 1.000000 0.415234 0.461012 
-1.200000 1.200000 6.000000 0.000000 0.000000 1.000000 0.485136 0.530914 
-7.200000 12.612510 0.000000 0.000000 0.000000 1.000000 0.368632 0.309315 
-4.800000 12.612510 0.000000 0.000000 0.000000 1.000000 0.415234 0.309315 
-5.200001 1.799999 6.000000 0.000000 0.000000 1.000000 0.407467 0.519264 
-6.800001 -1.799999 6.000000 0.000000 0.000000 1.000000 0.376399 0.589166 
-4.800001 1.799999 6.000000 0.000000 0.000000 1.000000 0.415233 0.519264 
4.800000 -4.800000 10.000000 0.000000 0.000000 0.999969 0.601639 0.647418 
4.799999 4.800001 10.000000 0.000000 0.000000 1.000000 0.601639 0.461012 
1.600000 -4.800001 10.000000 0.000000 0.000000 1.000000 0.543387 0.647418 
-1.600000 -4.800002 10.000000 0.000000 0.000000 1.000000 0.473485 0.647418 
1.600000 -5.600000 10.000000 0.000000 0.000000 1.000000 0.543387 0.655185 
2.000001 -6.400001 10.000000 0.258705 0.000000 0.965941 0.547271 0.686252 
2.000000 -5.600000 10.000000 0.258705 0.000000 0.965941 0.547271 0.655185 
-1.599999 -6.400001 10.000000 0.000000 0.000000 1.000000 0.473485 0.686252 
19.323456 -5.599998 0.002514 0.260750 0.000000 0.965392 0.883644 0.655185 
19.323456 -6.399999 0.002514 0.260750 0.000000 0.965392 0.883644 0.686252 
-6.800000 12.612510 0.000000 0.000000 0.000000 1.000000 0.376399 0.309315 
-5.200000 12.612510 0.000000 0.000000 0.000000 1.000000 0.407467 0.309315 
-4.800001 4.800000 10.000000 0.000000 0.000000 0.999969 0.415233 0.461012 
-4.799999 -4.800001 10.000000 0.000000 0.000000 1.000000 0.415234 0.647418 
19.923456 -5.599998 0.000000 0.001373 0.000000 0.999969 0.887528 0.655185 
19.923456 -6.400000 0.000000 0.001373 0.000000 0.999969 0.887528 0.686252 
5.200000 4.800000 0.000000 0.000000 0.000000 1.000000 0.609406 0.461012 
3 0 1 2
3 0 2 3
3 4 5 6
3 7 8 9
3 7 9 10
3 11 12 8
3 8 7 11
3 10 9 5
3 10 5 4
3 6 13 14
3 2 14 13
3 2 13 3
3 6 5 15
3 6 15 13
3 11 15 12
3 15 5 12
3 16 1 0
3 17 16 0
3 18 19 20
3 18 20 21
3 22 23 24
3 25 26 27
3 28 29 30
3 29 25 30
3 31 22 32
3 25 33 34
3 34 35 25
3 36 35 37
3 25 35 26
3 25 29 33
3 32 33 31
3 29 31 33
3 36 38 35
3 38 26 35
3 39 40 41
3 42 43 44
3 42 44 45
3 46 47 43
3 43 42 46
3 45 44 40
3 45 40 39
3 27 26 48
3 27 49 23
3 36 49 38
3 23 49 36
3 41 50 51
3 20 51 50
3 20 50 21
3 41 40 52
3 41 52 50
3 46 52 47
3 52 40 47
3 53 54 55
3 56 57 55
3 54 56 55
3 58 59 57
3 58 57 60
3 56 60 57
3 61 59 58
3 61 58 62
3 63 19 18
3 48 63 27
3 64 63 18
3 63 64 27
3 64 49 27
3 65 56 54
3 65 66 56
3 22 67 23
3 67 61 62
3 67 68 23
3 67 62 68
3 17 32 22
3 24 16 22
3 16 17 22
3 24 23 36
3 32 69 33
3 30 23 68
3 30 68 28
