ply
format ascii 1.0
comment Created by Blender 2.59 (sub 0) - www.blender.org, source file: 'obstacles.blend'
element vertex 334
property float x
property float y
property float z
property float nx
property float ny
property float nz
element face 132
property list uchar uint vertex_indices
end_header
-1.000000 0.802920 0.998670 0.000000 0.906308 0.422619 
-1.000001 1.225539 0.092363 0.000000 0.906308 0.422619 
-3.000000 1.225539 0.092363 0.000000 0.906308 0.422619 
-3.000001 0.802921 0.998670 0.000000 0.906308 0.422619 
-3.000001 -1.312123 -1.090969 -1.000000 0.000000 -0.000000 
-3.000001 -1.734741 -0.184661 -1.000000 0.000000 -0.000000 
-3.000001 0.802921 0.998670 -1.000000 0.000000 -0.000000 
-3.000001 -1.312123 -1.090969 -1.000000 0.000001 -0.000001 
-3.000001 0.802921 0.998670 -1.000000 0.000001 -0.000001 
-3.000000 1.225539 0.092363 -1.000000 0.000001 -0.000001 
-1.000001 -1.312123 -1.090969 0.000000 -0.906307 -0.422619 
-1.000001 -1.734741 -0.184661 0.000000 -0.906307 -0.422619 
-3.000001 -1.312123 -1.090969 0.000000 -0.906307 -0.422619 
-1.000001 -1.734741 -0.184661 -0.000000 -0.906308 -0.422618 
-3.000001 -1.734741 -0.184661 -0.000000 -0.906308 -0.422618 
-3.000001 -1.312123 -1.090969 -0.000000 -0.906308 -0.422618 
-1.000001 1.225539 0.092363 1.000000 0.000000 -0.000000 
-1.000000 0.802920 0.998670 1.000000 0.000000 -0.000000 
-1.000001 -1.312123 -1.090969 1.000000 0.000000 -0.000000 
-1.000000 0.802920 0.998670 1.000000 -0.000001 0.000000 
-1.000001 -1.734741 -0.184661 1.000000 -0.000001 0.000000 
-1.000001 -1.312123 -1.090969 1.000000 -0.000001 0.000000 
-1.000000 0.802920 0.998670 0.000000 -0.422618 0.906308 
-3.000001 0.802921 0.998670 0.000000 -0.422618 0.906308 
-3.000001 -1.734741 -0.184661 0.000000 -0.422618 0.906308 
-1.000001 -1.734741 -0.184661 0.000000 -0.422618 0.906308 
-1.000001 1.225539 0.092363 0.000000 0.422618 -0.906308 
-1.000001 -1.312123 -1.090969 0.000000 0.422618 -0.906308 
-3.000000 1.225539 0.092363 0.000000 0.422618 -0.906308 
-3.000001 -1.312123 -1.090969 0.000000 0.422618 -0.906308 
1.000000 3.000000 1.000000 0.000000 1.000000 0.000000 
0.999999 3.000001 0.000000 0.000000 1.000000 0.000000 
-3.000000 3.000001 0.000000 0.000000 1.000000 0.000000 
-3.000001 3.000001 1.000000 0.000000 1.000000 0.000000 
-3.000001 0.800001 0.000000 -1.000000 -0.000000 0.000000 
-3.000001 0.800001 1.000000 -1.000000 -0.000000 0.000000 
-3.000001 3.000001 1.000000 -1.000000 -0.000000 0.000000 
-3.000001 0.800001 0.000000 -1.000000 0.000000 -0.000001 
-3.000001 3.000001 1.000000 -1.000000 0.000000 -0.000001 
-3.000000 3.000001 0.000000 -1.000000 0.000000 -0.000001 
0.999999 0.800001 0.000000 -0.000000 -1.000000 -0.000000 
0.999999 0.800000 1.000000 -0.000000 -1.000000 -0.000000 
-3.000001 0.800001 0.000000 -0.000000 -1.000000 -0.000000 
-3.000001 0.800001 1.000000 -0.000000 -1.000000 0.000000 
0.999999 3.000001 0.000000 1.000000 0.000000 -0.000000 
1.000000 3.000000 1.000000 1.000000 0.000000 -0.000000 
0.999999 0.800001 0.000000 1.000000 0.000000 -0.000000 
1.000000 3.000000 1.000000 1.000000 -0.000001 0.000001 
0.999999 0.800000 1.000000 1.000000 -0.000001 0.000001 
0.999999 0.800001 0.000000 1.000000 -0.000001 0.000001 
1.000000 3.000000 1.000000 -0.000000 -0.000000 1.000000 
-3.000001 3.000001 1.000000 -0.000000 -0.000000 1.000000 
0.999999 0.800000 1.000000 -0.000000 -0.000000 1.000000 
-3.000001 0.800001 1.000000 0.000000 -0.000000 1.000000 
0.999999 3.000001 0.000000 -0.000000 -0.000000 -1.000000 
0.999999 0.800001 0.000000 -0.000000 -0.000000 -1.000000 
-3.000000 3.000001 0.000000 -0.000000 -0.000000 -1.000000 
-3.000001 0.800001 0.000000 -0.000000 -0.000000 -1.000000 
1.000000 0.800000 0.900000 0.000000 1.000000 0.000001 
0.999999 0.800001 0.000000 0.000000 1.000000 0.000001 
-1.000001 0.800001 0.900000 0.000000 1.000000 0.000001 
0.999999 0.800001 0.000000 0.000000 1.000000 0.000000 
-1.000000 0.800001 -0.000000 0.000000 1.000000 0.000000 
-1.000001 0.800001 0.900000 0.000000 1.000000 0.000000 
-1.000001 0.600001 0.000000 -1.000000 0.000001 -0.000000 
-1.000001 0.600001 0.900000 -1.000000 0.000001 -0.000000 
-1.000001 0.800001 0.900000 -1.000000 0.000001 -0.000000 
-1.000001 0.600001 0.000000 -1.000000 0.000002 -0.000000 
-1.000001 0.800001 0.900000 -1.000000 0.000002 -0.000000 
-1.000000 0.800001 -0.000000 -1.000000 0.000002 -0.000000 
0.999999 0.600001 0.000000 -0.000000 -1.000000 -0.000001 
0.999999 0.600000 0.900000 -0.000000 -1.000000 -0.000001 
-1.000001 0.600001 0.000000 -0.000000 -1.000000 -0.000001 
0.999999 0.600000 0.900000 -0.000000 -1.000000 0.000000 
-1.000001 0.600001 0.900000 -0.000000 -1.000000 0.000000 
-1.000001 0.600001 0.000000 -0.000000 -1.000000 0.000000 
0.999999 0.800001 0.000000 1.000000 0.000000 -0.000001 
1.000000 0.800000 0.900000 1.000000 0.000000 -0.000001 
0.999999 0.600001 0.000000 1.000000 0.000000 -0.000001 
1.000000 0.800000 0.900000 1.000000 -0.000006 0.000001 
0.999999 0.600000 0.900000 1.000000 -0.000006 0.000001 
0.999999 0.600001 0.000000 1.000000 -0.000006 0.000001 
1.000000 0.800000 0.900000 0.000000 0.000001 1.000000 
-1.000001 0.800001 0.900000 0.000000 0.000001 1.000000 
0.999999 0.600000 0.900000 0.000000 0.000001 1.000000 
-1.000001 0.800001 0.900000 -0.000000 0.000000 1.000000 
-1.000001 0.600001 0.900000 -0.000000 0.000000 1.000000 
0.999999 0.600000 0.900000 -0.000000 0.000000 1.000000 
0.999999 0.800001 0.000000 0.000000 0.000000 -1.000000 
0.999999 0.600001 0.000000 0.000000 0.000000 -1.000000 
-1.000000 0.800001 -0.000000 0.000000 0.000000 -1.000000 
-1.000001 0.600001 0.000000 -0.000000 -0.000000 -1.000000 
1.000000 0.600000 0.800000 0.000000 1.000000 0.000001 
0.999999 0.600001 0.000000 0.000000 1.000000 0.000001 
-1.000001 0.600001 0.800000 0.000000 1.000000 0.000001 
-1.000000 0.600001 -0.000000 0.000000 1.000000 0.000001 
-1.000001 0.400001 0.000000 -1.000000 0.000001 -0.000000 
-1.000001 0.400001 0.800000 -1.000000 0.000001 -0.000000 
-1.000001 0.600001 0.800000 -1.000000 0.000001 -0.000000 
-1.000001 0.400001 0.000000 -1.000000 0.000002 -0.000000 
-1.000001 0.600001 0.800000 -1.000000 0.000002 -0.000000 
-1.000000 0.600001 -0.000000 -1.000000 0.000002 -0.000000 
0.999999 0.400001 0.000000 -0.000000 -1.000000 -0.000001 
0.999999 0.400000 0.800000 -0.000000 -1.000000 -0.000001 
-1.000001 0.400001 0.000000 -0.000000 -1.000000 -0.000001 
0.999999 0.400000 0.800000 -0.000000 -1.000000 0.000000 
-1.000001 0.400001 0.800000 -0.000000 -1.000000 0.000000 
-1.000001 0.400001 0.000000 -0.000000 -1.000000 0.000000 
0.999999 0.600001 0.000000 1.000000 0.000000 -0.000001 
1.000000 0.600000 0.800000 1.000000 0.000000 -0.000001 
0.999999 0.400001 0.000000 1.000000 0.000000 -0.000001 
1.000000 0.600000 0.800000 1.000000 -0.000006 0.000001 
0.999999 0.400000 0.800000 1.000000 -0.000006 0.000001 
0.999999 0.400001 0.000000 1.000000 -0.000006 0.000001 
1.000000 0.600000 0.800000 -0.000000 -0.000000 1.000000 
-1.000001 0.600001 0.800000 -0.000000 -0.000000 1.000000 
0.999999 0.400000 0.800000 -0.000000 -0.000000 1.000000 
-1.000001 0.400001 0.800000 0.000000 -0.000000 1.000000 
0.999999 0.600001 0.000000 0.000000 0.000000 -1.000000 
0.999999 0.400001 0.000000 0.000000 0.000000 -1.000000 
-1.000000 0.600001 -0.000000 0.000000 0.000000 -1.000000 
-1.000001 0.400001 0.000000 -0.000000 -0.000000 -1.000000 
1.000000 0.400000 0.700000 0.000000 1.000000 0.000001 
0.999999 0.400001 0.000000 0.000000 1.000000 0.000001 
-1.000001 0.400001 0.700000 0.000000 1.000000 0.000001 
-1.000000 0.400001 0.000000 0.000000 1.000000 0.000001 
-1.000001 0.200001 -0.000000 -1.000000 0.000001 -0.000000 
-1.000001 0.200001 0.700000 -1.000000 0.000001 -0.000000 
-1.000001 0.400001 0.700000 -1.000000 0.000001 -0.000000 
-1.000001 0.200001 -0.000000 -1.000000 0.000002 -0.000000 
-1.000001 0.400001 0.700000 -1.000000 0.000002 -0.000000 
-1.000000 0.400001 0.000000 -1.000000 0.000002 -0.000000 
0.999999 0.200001 0.000000 -0.000000 -1.000000 -0.000001 
0.999999 0.200000 0.700000 -0.000000 -1.000000 -0.000001 
-1.000001 0.200001 -0.000000 -0.000000 -1.000000 -0.000001 
0.999999 0.200000 0.700000 -0.000000 -1.000000 0.000000 
-1.000001 0.200001 0.700000 -0.000000 -1.000000 0.000000 
-1.000001 0.200001 -0.000000 -0.000000 -1.000000 0.000000 
0.999999 0.400001 0.000000 1.000000 0.000000 -0.000001 
1.000000 0.400000 0.700000 1.000000 0.000000 -0.000001 
0.999999 0.200001 0.000000 1.000000 0.000000 -0.000001 
1.000000 0.400000 0.700000 1.000000 -0.000006 0.000001 
0.999999 0.200000 0.700000 1.000000 -0.000006 0.000001 
0.999999 0.200001 0.000000 1.000000 -0.000006 0.000001 
1.000000 0.400000 0.700000 -0.000000 0.000000 1.000000 
-1.000001 0.400001 0.700000 -0.000000 0.000000 1.000000 
0.999999 0.200000 0.700000 -0.000000 0.000000 1.000000 
-1.000001 0.200001 0.700000 -0.000000 0.000000 1.000000 
0.999999 0.400001 0.000000 0.000000 0.000000 -1.000000 
0.999999 0.200001 0.000000 0.000000 0.000000 -1.000000 
-1.000000 0.400001 0.000000 0.000000 0.000000 -1.000000 
-1.000001 0.200001 -0.000000 0.000000 0.000000 -1.000000 
1.000000 0.200000 0.600000 0.000000 1.000000 0.000001 
0.999999 0.200001 0.000000 0.000000 1.000000 0.000001 
-1.000000 0.200001 0.000000 0.000000 1.000000 0.000001 
-1.000001 0.200001 0.600000 0.000000 1.000000 0.000001 
-1.000001 0.000001 -0.000000 -1.000000 0.000001 -0.000000 
-1.000001 0.000001 0.600000 -1.000000 0.000001 -0.000000 
-1.000001 0.200001 0.600000 -1.000000 0.000001 -0.000000 
-1.000001 0.000001 -0.000000 -1.000000 0.000002 -0.000000 
-1.000001 0.200001 0.600000 -1.000000 0.000002 -0.000000 
-1.000000 0.200001 0.000000 -1.000000 0.000002 -0.000000 
0.999999 0.000001 0.000000 -0.000000 -1.000000 -0.000001 
0.999999 0.000000 0.600000 -0.000000 -1.000000 -0.000001 
-1.000001 0.000001 -0.000000 -0.000000 -1.000000 -0.000001 
0.999999 0.000000 0.600000 -0.000000 -1.000000 0.000000 
-1.000001 0.000001 0.600000 -0.000000 -1.000000 0.000000 
-1.000001 0.000001 -0.000000 -0.000000 -1.000000 0.000000 
0.999999 0.200001 0.000000 1.000000 0.000000 -0.000001 
1.000000 0.200000 0.600000 1.000000 0.000000 -0.000001 
0.999999 0.000001 0.000000 1.000000 0.000000 -0.000001 
1.000000 0.200000 0.600000 1.000000 -0.000006 0.000001 
0.999999 0.000000 0.600000 1.000000 -0.000006 0.000001 
0.999999 0.000001 0.000000 1.000000 -0.000006 0.000001 
1.000000 0.200000 0.600000 -0.000000 -0.000000 1.000000 
-1.000001 0.200001 0.600000 -0.000000 -0.000000 1.000000 
0.999999 0.000000 0.600000 -0.000000 -0.000000 1.000000 
-1.000001 0.000001 0.600000 0.000000 -0.000000 1.000000 
0.999999 0.200001 0.000000 -0.000000 -0.000000 -1.000000 
0.999999 0.000001 0.000000 -0.000000 -0.000000 -1.000000 
-1.000000 0.200001 0.000000 -0.000000 -0.000000 -1.000000 
-1.000001 0.000001 -0.000000 0.000000 0.000000 -1.000000 
1.000000 0.000000 0.500000 0.000000 1.000000 0.000001 
0.999999 0.000001 0.000000 0.000000 1.000000 0.000001 
-1.000001 0.000001 0.500000 0.000000 1.000000 0.000001 
-1.000000 0.000001 0.000000 0.000000 1.000000 0.000001 
-1.000001 -0.199999 0.000000 -1.000000 0.000001 -0.000000 
-1.000001 -0.199999 0.500000 -1.000000 0.000001 -0.000000 
-1.000001 0.000001 0.500000 -1.000000 0.000001 -0.000000 
-1.000001 -0.199999 0.000000 -1.000000 0.000002 -0.000000 
-1.000001 0.000001 0.500000 -1.000000 0.000002 -0.000000 
-1.000000 0.000001 0.000000 -1.000000 0.000002 -0.000000 
0.999999 -0.199999 0.000000 -0.000000 -1.000000 -0.000001 
0.999999 -0.200000 0.500000 -0.000000 -1.000000 -0.000001 
-1.000001 -0.199999 0.000000 -0.000000 -1.000000 -0.000001 
0.999999 -0.200000 0.500000 -0.000000 -1.000000 0.000000 
-1.000001 -0.199999 0.500000 -0.000000 -1.000000 0.000000 
-1.000001 -0.199999 0.000000 -0.000000 -1.000000 0.000000 
0.999999 0.000001 0.000000 1.000000 0.000000 -0.000001 
1.000000 0.000000 0.500000 1.000000 0.000000 -0.000001 
0.999999 -0.199999 0.000000 1.000000 0.000000 -0.000001 
1.000000 0.000000 0.500000 1.000000 -0.000006 0.000001 
0.999999 -0.200000 0.500000 1.000000 -0.000006 0.000001 
0.999999 -0.199999 0.000000 1.000000 -0.000006 0.000001 
1.000000 0.000000 0.500000 -0.000000 -0.000000 1.000000 
-1.000001 0.000001 0.500000 -0.000000 -0.000000 1.000000 
0.999999 -0.200000 0.500000 -0.000000 -0.000000 1.000000 
-1.000001 -0.199999 0.500000 0.000000 -0.000000 1.000000 
0.999999 0.000001 0.000000 0.000000 0.000000 -1.000000 
0.999999 -0.199999 0.000000 0.000000 0.000000 -1.000000 
-1.000000 0.000001 0.000000 0.000000 0.000000 -1.000000 
-1.000001 -0.199999 0.000000 0.000000 0.000000 -1.000000 
1.000000 -0.200000 0.400000 0.000000 1.000000 0.000001 
0.999999 -0.199999 0.000000 0.000000 1.000000 0.000001 
-1.000001 -0.199999 0.400000 0.000000 1.000000 0.000001 
-1.000000 -0.199999 0.000000 0.000000 1.000000 0.000001 
-1.000001 -0.399999 -0.000000 -1.000000 0.000001 -0.000000 
-1.000001 -0.399999 0.400000 -1.000000 0.000001 -0.000000 
-1.000001 -0.199999 0.400000 -1.000000 0.000001 -0.000000 
-1.000001 -0.399999 -0.000000 -1.000000 0.000002 -0.000001 
-1.000001 -0.199999 0.400000 -1.000000 0.000002 -0.000001 
-1.000000 -0.199999 0.000000 -1.000000 0.000002 -0.000001 
0.999999 -0.399999 0.000000 -0.000000 -1.000000 -0.000002 
0.999999 -0.400000 0.400000 -0.000000 -1.000000 -0.000002 
-1.000001 -0.399999 -0.000000 -0.000000 -1.000000 -0.000002 
0.999999 -0.400000 0.400000 -0.000000 -1.000000 0.000001 
-1.000001 -0.399999 0.400000 -0.000000 -1.000000 0.000001 
-1.000001 -0.399999 -0.000000 -0.000000 -1.000000 0.000001 
0.999999 -0.199999 0.000000 1.000000 -0.000000 -0.000001 
1.000000 -0.200000 0.400000 1.000000 -0.000000 -0.000001 
0.999999 -0.399999 0.000000 1.000000 -0.000000 -0.000001 
1.000000 -0.200000 0.400000 1.000000 -0.000006 0.000002 
0.999999 -0.400000 0.400000 1.000000 -0.000006 0.000002 
0.999999 -0.399999 0.000000 1.000000 -0.000006 0.000002 
1.000000 -0.200000 0.400000 -0.000000 -0.000000 1.000000 
-1.000001 -0.199999 0.400000 -0.000000 -0.000000 1.000000 
0.999999 -0.400000 0.400000 -0.000000 -0.000000 1.000000 
-1.000001 -0.399999 0.400000 -0.000000 -0.000000 1.000000 
0.999999 -0.199999 0.000000 -0.000000 -0.000000 -1.000000 
0.999999 -0.399999 0.000000 -0.000000 -0.000000 -1.000000 
-1.000000 -0.199999 0.000000 -0.000000 -0.000000 -1.000000 
-1.000001 -0.399999 -0.000000 0.000000 0.000000 -1.000000 
1.000000 -0.400000 0.300000 0.000000 1.000000 0.000002 
0.999999 -0.399999 -0.000000 0.000000 1.000000 0.000002 
-1.000001 -0.399999 0.300000 0.000000 1.000000 0.000002 
0.999999 -0.399999 -0.000000 0.000000 1.000000 0.000001 
-1.000000 -0.399999 -0.000000 0.000000 1.000000 0.000001 
-1.000001 -0.399999 0.300000 0.000000 1.000000 0.000001 
-1.000001 -0.599999 -0.000000 -1.000000 0.000001 -0.000000 
-1.000001 -0.599999 0.300000 -1.000000 0.000001 -0.000000 
-1.000001 -0.399999 0.300000 -1.000000 0.000001 -0.000000 
-1.000001 -0.599999 -0.000000 -1.000000 0.000002 -0.000001 
-1.000001 -0.399999 0.300000 -1.000000 0.000002 -0.000001 
-1.000000 -0.399999 -0.000000 -1.000000 0.000002 -0.000001 
0.999999 -0.599999 -0.000000 -0.000000 -1.000000 -0.000002 
0.999999 -0.600000 0.300000 -0.000000 -1.000000 -0.000002 
-1.000001 -0.599999 -0.000000 -0.000000 -1.000000 -0.000002 
0.999999 -0.600000 0.300000 -0.000001 -1.000000 0.000001 
-1.000001 -0.599999 0.300000 -0.000001 -1.000000 0.000001 
-1.000001 -0.599999 -0.000000 -0.000001 -1.000000 0.000001 
0.999999 -0.399999 -0.000000 1.000000 0.000000 -0.000002 
1.000000 -0.400000 0.300000 1.000000 0.000000 -0.000002 
0.999999 -0.599999 -0.000000 1.000000 0.000000 -0.000002 
1.000000 -0.400000 0.300000 1.000000 -0.000006 0.000002 
0.999999 -0.600000 0.300000 1.000000 -0.000006 0.000002 
0.999999 -0.599999 -0.000000 1.000000 -0.000006 0.000002 
1.000000 -0.400000 0.300000 -0.000000 -0.000000 1.000000 
-1.000001 -0.399999 0.300000 -0.000000 -0.000000 1.000000 
0.999999 -0.600000 0.300000 -0.000000 -0.000000 1.000000 
-1.000001 -0.599999 0.300000 -0.000000 -0.000000 1.000000 
0.999999 -0.399999 -0.000000 0.000000 0.000000 -1.000000 
0.999999 -0.599999 -0.000000 0.000000 0.000000 -1.000000 
-1.000000 -0.399999 -0.000000 0.000000 0.000000 -1.000000 
-1.000001 -0.599999 -0.000000 0.000000 0.000000 -1.000000 
1.000000 -0.600000 0.200000 0.000000 1.000000 0.000002 
0.999999 -0.599999 0.000000 0.000000 1.000000 0.000002 
-1.000001 -0.599999 0.200000 0.000000 1.000000 0.000002 
-1.000000 -0.599999 -0.000000 0.000000 1.000000 0.000002 
-1.000001 -0.799999 -0.000000 -1.000000 0.000001 -0.000000 
-1.000001 -0.799999 0.200000 -1.000000 0.000001 -0.000000 
-1.000001 -0.599999 0.200000 -1.000000 0.000001 -0.000000 
-1.000001 -0.799999 -0.000000 -1.000000 0.000002 -0.000001 
-1.000001 -0.599999 0.200000 -1.000000 0.000002 -0.000001 
-1.000000 -0.599999 -0.000000 -1.000000 0.000002 -0.000001 
0.999999 -0.799999 -0.000000 -0.000000 -1.000000 -0.000003 
0.999999 -0.800000 0.200000 -0.000000 -1.000000 -0.000003 
-1.000001 -0.799999 -0.000000 -0.000000 -1.000000 -0.000003 
0.999999 -0.800000 0.200000 -0.000000 -1.000000 0.000001 
-1.000001 -0.799999 0.200000 -0.000000 -1.000000 0.000001 
-1.000001 -0.799999 -0.000000 -0.000000 -1.000000 0.000001 
0.999999 -0.599999 0.000000 1.000000 0.000000 -0.000002 
1.000000 -0.600000 0.200000 1.000000 0.000000 -0.000002 
0.999999 -0.799999 -0.000000 1.000000 0.000000 -0.000002 
1.000000 -0.600000 0.200000 1.000000 -0.000006 0.000004 
0.999999 -0.800000 0.200000 1.000000 -0.000006 0.000004 
0.999999 -0.799999 -0.000000 1.000000 -0.000006 0.000004 
1.000000 -0.600000 0.200000 -0.000000 -0.000000 1.000000 
-1.000001 -0.599999 0.200000 -0.000000 -0.000000 1.000000 
0.999999 -0.800000 0.200000 -0.000000 -0.000000 1.000000 
-1.000001 -0.799999 0.200000 0.000000 0.000000 1.000000 
0.999999 -0.599999 0.000000 0.000000 0.000000 -1.000000 
0.999999 -0.799999 -0.000000 0.000000 0.000000 -1.000000 
-1.000000 -0.599999 -0.000000 0.000000 0.000000 -1.000000 
-1.000001 -0.799999 -0.000000 -0.000000 -0.000000 -1.000000 
1.000000 -0.800000 0.100000 0.000000 1.000000 0.000004 
0.999999 -0.799999 -0.000000 0.000000 1.000000 0.000004 
-1.000001 -0.799999 0.100000 0.000000 1.000000 0.000004 
-1.000000 -0.799999 -0.000000 0.000000 1.000000 0.000004 
-1.000001 -0.999999 -0.000000 -1.000000 0.000001 -0.000000 
-1.000001 -0.999999 0.100000 -1.000000 0.000001 -0.000000 
-1.000001 -0.799999 0.100000 -1.000000 0.000001 -0.000000 
-1.000001 -0.999999 -0.000000 -1.000000 0.000002 -0.000002 
-1.000001 -0.799999 0.100000 -1.000000 0.000002 -0.000002 
-1.000000 -0.799999 -0.000000 -1.000000 0.000002 -0.000002 
0.999999 -0.999999 -0.000000 0.000000 -1.000000 -0.000008 
0.999999 -1.000000 0.100000 0.000000 -1.000000 -0.000008 
-1.000001 -0.999999 -0.000000 0.000000 -1.000000 -0.000008 
0.999999 -1.000000 0.100000 -0.000000 -1.000000 0.000002 
-1.000001 -0.999999 0.100000 -0.000000 -1.000000 0.000002 
-1.000001 -0.999999 -0.000000 -0.000000 -1.000000 0.000002 
0.999999 -0.799999 -0.000000 1.000000 0.000000 -0.000005 
1.000000 -0.800000 0.100000 1.000000 0.000000 -0.000005 
0.999999 -0.999999 -0.000000 1.000000 0.000000 -0.000005 
1.000000 -0.800000 0.100000 1.000000 -0.000006 0.000007 
0.999999 -1.000000 0.100000 1.000000 -0.000006 0.000007 
0.999999 -0.999999 -0.000000 1.000000 -0.000006 0.000007 
1.000000 -0.800000 0.100000 -0.000000 -0.000000 1.000000 
-1.000001 -0.799999 0.100000 -0.000000 -0.000000 1.000000 
0.999999 -1.000000 0.100000 -0.000000 -0.000000 1.000000 
-1.000001 -0.999999 0.100000 -0.000000 -0.000000 1.000000 
0.999999 -0.799999 -0.000000 -0.000000 0.000000 -1.000000 
0.999999 -0.999999 -0.000000 -0.000000 0.000000 -1.000000 
-1.000000 -0.799999 -0.000000 -0.000000 0.000000 -1.000000 
-1.000001 -0.999999 -0.000000 0.000000 0.000000 -1.000000 
3 0 1 2
3 0 2 3
3 4 5 6
3 7 8 9
3 10 11 12
3 13 14 15
3 16 17 18
3 19 20 21
3 22 23 24
3 22 24 25
3 26 27 28
3 27 29 28
3 30 31 32
3 30 32 33
3 34 35 36
3 37 38 39
3 40 41 42
3 41 43 42
3 44 45 46
3 47 48 49
3 50 51 52
3 51 53 52
3 54 55 56
3 55 57 56
3 58 59 60
3 61 62 63
3 64 65 66
3 67 68 69
3 70 71 72
3 73 74 75
3 76 77 78
3 79 80 81
3 82 83 84
3 85 86 87
3 88 89 90
3 89 91 90
3 92 93 94
3 93 95 94
3 96 97 98
3 99 100 101
3 102 103 104
3 105 106 107
3 108 109 110
3 111 112 113
3 114 115 116
3 115 117 116
3 118 119 120
3 119 121 120
3 122 123 124
3 123 125 124
3 126 127 128
3 129 130 131
3 132 133 134
3 135 136 137
3 138 139 140
3 141 142 143
3 144 145 146
3 145 147 146
3 148 149 150
3 149 151 150
3 152 153 154
3 152 154 155
3 156 157 158
3 159 160 161
3 162 163 164
3 165 166 167
3 168 169 170
3 171 172 173
3 174 175 176
3 175 177 176
3 178 179 180
3 179 181 180
3 182 183 184
3 183 185 184
3 186 187 188
3 189 190 191
3 192 193 194
3 195 196 197
3 198 199 200
3 201 202 203
3 204 205 206
3 205 207 206
3 208 209 210
3 209 211 210
3 212 213 214
3 213 215 214
3 216 217 218
3 219 220 221
3 222 223 224
3 225 226 227
3 228 229 230
3 231 232 233
3 234 235 236
3 235 237 236
3 238 239 240
3 239 241 240
3 242 243 244
3 245 246 247
3 248 249 250
3 251 252 253
3 254 255 256
3 257 258 259
3 260 261 262
3 263 264 265
3 266 267 268
3 267 269 268
3 270 271 272
3 271 273 272
3 274 275 276
3 275 277 276
3 278 279 280
3 281 282 283
3 284 285 286
3 287 288 289
3 290 291 292
3 293 294 295
3 296 297 298
3 297 299 298
3 300 301 302
3 301 303 302
3 304 305 306
3 305 307 306
3 308 309 310
3 311 312 313
3 314 315 316
3 317 318 319
3 320 321 322
3 323 324 325
3 326 327 328
3 327 329 328
3 330 331 332
3 331 333 332
