ply
format ascii 1.0
comment Created by Blender 2.59 (sub 0) - www.blender.org, source file: 'obstacles.blend'
element vertex 220
property float x
property float y
property float z
property float nx
property float ny
property float nz
element face 96
property list uchar uint vertex_indices
end_header
4.335356 3.478821 1.035674 -0.965926 0.000000 0.258820 
4.076536 3.478821 0.069749 -0.965926 0.000000 0.258820 
4.076536 1.478821 0.069749 -0.965926 0.000000 0.258820 
4.335355 1.478821 1.035674 -0.965926 0.000000 0.258820 
7.940239 1.478821 -0.965527 -0.000000 -1.000000 -0.000000 
8.199058 1.478820 0.000399 -0.000000 -1.000000 -0.000000 
4.076536 1.478821 0.069749 -0.000000 -1.000000 -0.000000 
4.335355 1.478821 1.035674 -0.000000 -1.000000 -0.000000 
7.940240 3.478821 -0.965527 0.965926 -0.000001 -0.258820 
8.199060 3.478820 0.000398 0.965926 -0.000001 -0.258820 
7.940239 1.478821 -0.965527 0.965926 -0.000001 -0.258820 
8.199060 3.478820 0.000398 0.965926 -0.000001 -0.258819 
8.199058 1.478820 0.000399 0.965926 -0.000001 -0.258819 
7.940239 1.478821 -0.965527 0.965926 -0.000001 -0.258819 
4.076536 3.478821 0.069749 0.000000 1.000000 -0.000000 
4.335356 3.478821 1.035674 0.000000 1.000000 -0.000000 
8.199060 3.478820 0.000398 0.000000 1.000000 -0.000000 
4.076536 3.478821 0.069749 0.000000 1.000000 0.000001 
8.199060 3.478820 0.000398 0.000000 1.000000 0.000001 
7.940240 3.478821 -0.965527 0.000000 1.000000 0.000001 
4.335356 3.478821 1.035674 0.258819 -0.000000 0.965926 
4.335355 1.478821 1.035674 0.258819 -0.000000 0.965926 
8.199058 1.478820 0.000399 0.258819 -0.000000 0.965926 
8.199060 3.478820 0.000398 0.258819 -0.000000 0.965926 
4.076536 3.478821 0.069749 -0.258819 0.000000 -0.965926 
7.940240 3.478821 -0.965527 -0.258819 0.000000 -0.965926 
7.940239 1.478821 -0.965527 -0.258819 0.000000 -0.965926 
4.076536 1.478821 0.069749 -0.258819 0.000000 -0.965926 
4.335431 1.484477 1.035791 1.000000 -0.000000 0.000001 
4.335432 1.484478 0.035791 1.000000 -0.000000 0.000001 
4.335432 3.484478 1.035791 1.000000 -0.000000 0.000001 
4.335432 1.484478 0.035791 1.000000 0.000000 -0.000000 
4.335432 3.484477 0.035791 1.000000 0.000000 -0.000000 
4.335432 3.484478 1.035791 1.000000 0.000000 -0.000000 
2.335432 3.484478 0.035791 0.000000 1.000000 -0.000000 
2.335432 3.484478 1.035791 0.000000 1.000000 -0.000000 
4.335432 3.484477 0.035791 0.000000 1.000000 -0.000000 
4.335432 3.484478 1.035791 0.000000 1.000000 -0.000000 
2.335432 1.484478 0.035791 -1.000000 0.000000 0.000000 
2.335432 1.484478 1.035791 -1.000000 0.000000 0.000000 
2.335432 3.484478 1.035791 -1.000000 0.000000 0.000000 
2.335432 3.484478 0.035791 -1.000000 0.000000 -0.000000 
4.335432 1.484478 0.035791 0.000000 -1.000000 -0.000000 
4.335431 1.484477 1.035791 0.000000 -1.000000 -0.000000 
2.335432 1.484478 0.035791 0.000000 -1.000000 -0.000000 
2.335432 1.484478 1.035791 -0.000000 -1.000000 0.000000 
4.335431 1.484477 1.035791 0.000000 0.000000 1.000000 
4.335432 3.484478 1.035791 0.000000 0.000000 1.000000 
2.335432 3.484478 1.035791 0.000000 0.000000 1.000000 
2.335432 1.484478 1.035791 -0.000000 0.000000 1.000000 
4.335432 1.484478 0.035791 0.000000 -0.000000 -1.000000 
2.335432 1.484478 0.035791 0.000000 -0.000000 -1.000000 
4.335432 3.484477 0.035791 0.000000 -0.000000 -1.000000 
2.335432 3.484478 0.035791 0.000000 0.000000 -1.000000 
2.852551 1.555950 1.035791 0.965926 0.258819 0.000001 
2.852552 1.555951 0.035791 0.965926 0.258819 0.000001 
2.334913 3.487803 1.035791 0.965926 0.258819 0.000001 
2.852552 1.555951 0.035791 0.965926 0.258819 0.000000 
2.334914 3.487802 0.035791 0.965926 0.258819 0.000000 
2.334913 3.487803 1.035791 0.965926 0.258819 0.000000 
0.403062 2.970164 0.035791 -0.258819 0.965926 -0.000001 
0.403062 2.970165 1.035790 -0.258819 0.965926 -0.000001 
2.334913 3.487803 1.035791 -0.258819 0.965926 -0.000001 
0.403062 2.970164 0.035791 -0.258819 0.965926 -0.000000 
2.334913 3.487803 1.035791 -0.258819 0.965926 -0.000000 
2.334914 3.487802 0.035791 -0.258819 0.965926 -0.000000 
0.920700 1.038313 0.035791 -0.965926 -0.258819 -0.000000 
0.920700 1.038313 1.035791 -0.965926 -0.258819 -0.000000 
0.403062 2.970165 1.035790 -0.965926 -0.258819 -0.000000 
0.403062 2.970164 0.035791 -0.965926 -0.258819 0.000000 
2.852552 1.555951 0.035791 0.258819 -0.965926 -0.000000 
2.852551 1.555950 1.035791 0.258819 -0.965926 -0.000000 
0.920700 1.038313 0.035791 0.258819 -0.965926 -0.000000 
0.920700 1.038313 1.035791 0.258819 -0.965926 0.000000 
2.852551 1.555950 1.035791 -0.000000 0.000000 1.000000 
2.334913 3.487803 1.035791 -0.000000 0.000000 1.000000 
0.920700 1.038313 1.035791 -0.000000 0.000000 1.000000 
0.403062 2.970165 1.035790 -0.000000 0.000000 1.000000 
2.852552 1.555951 0.035791 0.000000 -0.000000 -1.000000 
0.920700 1.038313 0.035791 0.000000 -0.000000 -1.000000 
2.334914 3.487802 0.035791 0.000000 -0.000000 -1.000000 
0.403062 2.970164 0.035791 -0.000000 0.000000 -1.000000 
1.407426 1.242939 1.035791 0.866026 0.500000 0.000001 
1.407426 1.242939 0.035791 0.866026 0.500000 0.000001 
0.407426 2.974990 1.035791 0.866026 0.500000 0.000001 
1.407426 1.242939 0.035791 0.866026 0.500000 0.000000 
0.407426 2.974990 0.035791 0.866026 0.500000 0.000000 
0.407426 2.974990 1.035791 0.866026 0.500000 0.000000 
-1.324625 1.974990 0.035791 -0.500000 0.866025 0.000000 
-1.324625 1.974990 1.035791 -0.500000 0.866025 0.000000 
0.407426 2.974990 1.035791 -0.500000 0.866025 0.000000 
0.407426 2.974990 0.035791 -0.500000 0.866025 -0.000000 
-0.324625 0.242939 0.035791 -0.866026 -0.500000 -0.000000 
-0.324625 0.242939 1.035791 -0.866026 -0.500000 -0.000000 
-1.324625 1.974990 1.035791 -0.866026 -0.500000 -0.000000 
-1.324625 1.974990 0.035791 -0.866026 -0.500000 -0.000000 
1.407426 1.242939 0.035791 0.500000 -0.866025 -0.000000 
1.407426 1.242939 1.035791 0.500000 -0.866025 -0.000000 
-0.324625 0.242939 0.035791 0.500000 -0.866025 -0.000000 
1.407426 1.242939 1.035791 0.500000 -0.866026 -0.000000 
-0.324625 0.242939 1.035791 0.500000 -0.866026 -0.000000 
-0.324625 0.242939 0.035791 0.500000 -0.866026 -0.000000 
1.407426 1.242939 1.035791 -0.000000 0.000000 1.000000 
0.407426 2.974990 1.035791 -0.000000 0.000000 1.000000 
-0.324625 0.242939 1.035791 -0.000000 0.000000 1.000000 
-1.324625 1.974990 1.035791 -0.000000 0.000000 1.000000 
1.407426 1.242939 0.035791 -0.000000 -0.000000 -1.000000 
-0.324625 0.242939 0.035791 -0.000000 -0.000000 -1.000000 
0.407426 2.974990 0.035791 -0.000000 -0.000000 -1.000000 
-1.324625 1.974990 0.035791 0.000000 -0.000000 -1.000000 
0.097927 0.576315 1.035791 0.707107 0.707107 0.000000 
0.097927 0.576316 0.035791 0.707107 0.707107 0.000000 
-1.316287 1.990529 1.035791 0.707107 0.707107 0.000000 
-1.316286 1.990529 0.035791 0.707107 0.707107 0.000000 
-2.730500 0.576316 0.035791 -0.707107 0.707107 -0.000000 
-2.730500 0.576316 1.035791 -0.707107 0.707107 -0.000000 
-1.316287 1.990529 1.035791 -0.707107 0.707107 -0.000000 
-1.316286 1.990529 0.035791 -0.707107 0.707107 -0.000000 
-1.316287 -0.837898 0.035791 -0.707107 -0.707107 0.000000 
-1.316287 -0.837898 1.035791 -0.707107 -0.707107 0.000000 
-2.730500 0.576316 1.035791 -0.707107 -0.707107 0.000000 
-2.730500 0.576316 0.035791 -0.707107 -0.707107 0.000000 
0.097927 0.576316 0.035791 0.707107 -0.707107 -0.000001 
0.097927 0.576315 1.035791 0.707107 -0.707107 -0.000001 
-1.316287 -0.837898 0.035791 0.707107 -0.707107 -0.000001 
0.097927 0.576315 1.035791 0.707107 -0.707107 0.000000 
-1.316287 -0.837898 1.035791 0.707107 -0.707107 0.000000 
-1.316287 -0.837898 0.035791 0.707107 -0.707107 0.000000 
0.097927 0.576315 1.035791 -0.000000 -0.000000 1.000000 
-1.316287 1.990529 1.035791 -0.000000 -0.000000 1.000000 
-1.316287 -0.837898 1.035791 -0.000000 -0.000000 1.000000 
-2.730500 0.576316 1.035791 0.000000 0.000000 1.000000 
0.097927 0.576316 0.035791 0.000000 -0.000000 -1.000000 
-1.316287 -0.837898 0.035791 0.000000 -0.000000 -1.000000 
-1.316286 1.990529 0.035791 0.000000 -0.000000 -1.000000 
-2.730500 0.576316 0.035791 0.000000 -0.000000 -1.000000 
-0.983435 -0.372631 1.035791 0.500000 0.866025 0.000001 
-0.983435 -0.372630 0.035791 0.500000 0.866025 0.000001 
-2.715486 0.627370 1.035791 0.500000 0.866025 0.000001 
-0.983435 -0.372630 0.035791 0.500000 0.866025 0.000000 
-2.715486 0.627370 0.035791 0.500000 0.866025 0.000000 
-2.715486 0.627370 1.035791 0.500000 0.866025 0.000000 
-3.715486 -1.104681 0.035791 -0.866025 0.500000 0.000000 
-3.715486 -1.104681 1.035791 -0.866025 0.500000 0.000000 
-2.715486 0.627370 1.035791 -0.866025 0.500000 0.000000 
-2.715486 0.627370 0.035791 -0.866025 0.500000 -0.000000 
-1.983435 -2.104681 0.035791 -0.500000 -0.866025 0.000000 
-1.983435 -2.104681 1.035791 -0.500000 -0.866025 0.000000 
-3.715486 -1.104681 1.035791 -0.500000 -0.866025 0.000000 
-3.715486 -1.104681 0.035791 -0.500000 -0.866025 0.000000 
-0.983435 -0.372630 0.035791 0.866026 -0.500000 -0.000001 
-0.983435 -0.372631 1.035791 0.866026 -0.500000 -0.000001 
-1.983435 -2.104681 0.035791 0.866026 -0.500000 -0.000001 
-0.983435 -0.372631 1.035791 0.866025 -0.500000 0.000000 
-1.983435 -2.104681 1.035791 0.866025 -0.500000 0.000000 
-1.983435 -2.104681 0.035791 0.866025 -0.500000 0.000000 
-0.983435 -0.372631 1.035791 0.000000 0.000000 1.000000 
-2.715486 0.627370 1.035791 0.000000 0.000000 1.000000 
-1.983435 -2.104681 1.035791 0.000000 0.000000 1.000000 
-3.715486 -1.104681 1.035791 -0.000000 0.000000 1.000000 
-0.983435 -0.372630 0.035791 0.000000 0.000000 -1.000000 
-1.983435 -2.104681 0.035791 0.000000 0.000000 -1.000000 
-2.715486 0.627370 0.035791 0.000000 0.000000 -1.000000 
-3.715486 -1.104681 0.035791 -0.000000 0.000000 -1.000000 
-1.728579 -1.103503 1.035791 0.000000 1.000000 0.000000 
-1.728579 -1.103503 0.035791 0.000000 1.000000 0.000000 
-3.728579 -1.103503 1.035791 0.000000 1.000000 0.000000 
-3.728579 -1.103503 0.035791 0.000000 1.000000 0.000000 
-3.728580 -3.103503 0.035791 -1.000000 0.000000 0.000000 
-3.728580 -3.103503 1.035791 -1.000000 0.000000 0.000000 
-3.728579 -1.103503 1.035791 -1.000000 0.000000 0.000000 
-3.728579 -1.103503 0.035791 -1.000000 0.000000 -0.000000 
-1.728579 -3.103503 0.035791 -0.000000 -1.000000 -0.000001 
-1.728580 -3.103504 1.035791 -0.000000 -1.000000 -0.000001 
-3.728580 -3.103503 0.035791 -0.000000 -1.000000 -0.000001 
-1.728580 -3.103504 1.035791 -0.000001 -1.000000 0.000000 
-3.728580 -3.103503 1.035791 -0.000001 -1.000000 0.000000 
-3.728580 -3.103503 0.035791 -0.000001 -1.000000 0.000000 
-1.728579 -1.103503 0.035791 1.000000 0.000000 -0.000000 
-1.728579 -1.103503 1.035791 1.000000 0.000000 -0.000000 
-1.728579 -3.103503 0.035791 1.000000 0.000000 -0.000000 
-1.728579 -1.103503 1.035791 1.000000 -0.000001 0.000001 
-1.728580 -3.103504 1.035791 1.000000 -0.000001 0.000001 
-1.728579 -3.103503 0.035791 1.000000 -0.000001 0.000001 
-1.728579 -1.103503 1.035791 -0.000000 -0.000000 1.000000 
-3.728579 -1.103503 1.035791 -0.000000 -0.000000 1.000000 
-1.728580 -3.103504 1.035791 -0.000000 -0.000000 1.000000 
-3.728580 -3.103503 1.035791 0.000000 -0.000000 1.000000 
-1.728579 -1.103503 0.035791 0.000000 0.000000 -1.000000 
-1.728579 -3.103503 0.035791 0.000000 0.000000 -1.000000 
-3.728579 -1.103503 0.035791 0.000000 0.000000 -1.000000 
-3.728580 -3.103503 0.035791 0.000000 0.000000 -1.000000 
-1.728579 -3.101062 1.036391 0.000000 0.965926 0.258820 
-1.728579 -2.842242 0.070466 0.000000 0.965926 0.258820 
-3.728579 -2.842241 0.070466 0.000000 0.965926 0.258820 
-3.728579 -3.101061 1.036392 0.000000 0.965926 0.258820 
-3.728580 -6.705945 -0.964810 -1.000000 0.000000 0.000000 
-3.728580 -6.964763 0.001116 -1.000000 0.000000 0.000000 
-3.728579 -3.101061 1.036392 -1.000000 0.000000 0.000000 
-3.728579 -2.842241 0.070466 -1.000000 0.000000 -0.000000 
-1.728579 -6.705945 -0.964810 0.000000 -0.965926 -0.258820 
-1.728580 -6.964765 0.001115 0.000000 -0.965926 -0.258820 
-3.728580 -6.705945 -0.964810 0.000000 -0.965926 -0.258820 
-1.728580 -6.964765 0.001115 -0.000001 -0.965926 -0.258818 
-3.728580 -6.964763 0.001116 -0.000001 -0.965926 -0.258818 
-3.728580 -6.705945 -0.964810 -0.000001 -0.965926 -0.258818 
-1.728579 -2.842242 0.070466 1.000000 0.000000 -0.000000 
-1.728579 -3.101062 1.036391 1.000000 0.000000 -0.000000 
-1.728579 -6.705945 -0.964810 1.000000 0.000000 -0.000000 
-1.728579 -3.101062 1.036391 1.000000 -0.000000 0.000001 
-1.728580 -6.964765 0.001115 1.000000 -0.000000 0.000001 
-1.728579 -6.705945 -0.964810 1.000000 -0.000000 0.000001 
-1.728579 -3.101062 1.036391 0.000000 -0.258819 0.965926 
-3.728579 -3.101061 1.036392 0.000000 -0.258819 0.965926 
-3.728580 -6.964763 0.001116 0.000000 -0.258819 0.965926 
-1.728580 -6.964765 0.001115 -0.000000 -0.258819 0.965926 
-1.728579 -2.842242 0.070466 0.000000 0.258819 -0.965926 
-1.728579 -6.705945 -0.964810 0.000000 0.258819 -0.965926 
-3.728580 -6.705945 -0.964810 0.000000 0.258819 -0.965926 
-3.728579 -2.842241 0.070466 0.000000 0.258819 -0.965926 
3 0 1 2
3 0 2 3
3 4 5 6
3 5 7 6
3 8 9 10
3 11 12 13
3 14 15 16
3 17 18 19
3 20 21 22
3 20 22 23
3 24 25 26
3 24 26 27
3 28 29 30
3 31 32 33
3 34 35 36
3 35 37 36
3 38 39 40
3 38 40 41
3 42 43 44
3 43 45 44
3 46 47 48
3 46 48 49
3 50 51 52
3 51 53 52
3 54 55 56
3 57 58 59
3 60 61 62
3 63 64 65
3 66 67 68
3 66 68 69
3 70 71 72
3 71 73 72
3 74 75 76
3 75 77 76
3 78 79 80
3 79 81 80
3 82 83 84
3 85 86 87
3 88 89 90
3 88 90 91
3 92 93 94
3 92 94 95
3 96 97 98
3 99 100 101
3 102 103 104
3 103 105 104
3 106 107 108
3 107 109 108
3 110 111 112
3 111 113 112
3 114 115 116
3 114 116 117
3 118 119 120
3 118 120 121
3 122 123 124
3 125 126 127
3 128 129 130
3 129 131 130
3 132 133 134
3 133 135 134
3 136 137 138
3 139 140 141
3 142 143 144
3 142 144 145
3 146 147 148
3 146 148 149
3 150 151 152
3 153 154 155
3 156 157 158
3 157 159 158
3 160 161 162
3 161 163 162
3 164 165 166
3 165 167 166
3 168 169 170
3 168 170 171
3 172 173 174
3 175 176 177
3 178 179 180
3 181 182 183
3 184 185 186
3 185 187 186
3 188 189 190
3 189 191 190
3 192 193 194
3 192 194 195
3 196 197 198
3 196 198 199
3 200 201 202
3 203 204 205
3 206 207 208
3 209 210 211
3 212 213 214
3 212 214 215
3 216 217 218
3 216 218 219
