ply
format ascii 1.0
comment Created by Blender 2.59 (sub 0) - www.blender.org, source file: 'obstacles.blend'
element vertex 162
property float x
property float y
property float z
property float nx
property float ny
property float nz
element face 72
property list uchar uint vertex_indices
end_header
0.537103 14.575885 7.986567 0.000000 1.000000 0.000000 
0.537103 14.575885 -2.013433 0.000000 1.000000 0.000000 
-0.462897 14.575885 -2.013433 0.000000 1.000000 0.000000 
-0.462897 14.575885 7.986567 -0.000000 1.000000 0.000000 
-0.462897 13.575885 -2.013433 -1.000000 0.000000 -0.000000 
-0.462897 13.575885 7.986567 -1.000000 0.000000 -0.000000 
-0.462897 14.575885 7.986567 -1.000000 0.000000 -0.000000 
-0.462897 14.575885 -2.013433 -1.000000 0.000000 -0.000000 
0.537103 13.575885 -2.013433 0.000000 -1.000000 0.000000 
0.537103 13.575885 7.986567 0.000000 -1.000000 0.000000 
-0.462897 13.575885 7.986567 0.000000 -1.000000 0.000000 
-0.462897 13.575885 -2.013433 0.000000 -1.000000 0.000000 
0.537103 14.575885 -2.013433 1.000000 0.000000 -0.000000 
0.537103 14.575885 7.986567 1.000000 0.000000 -0.000000 
0.537103 13.575885 -2.013433 1.000000 0.000000 -0.000000 
0.537103 14.575885 7.986567 1.000000 -0.000001 0.000000 
0.537103 13.575885 7.986567 1.000000 -0.000001 0.000000 
0.537103 13.575885 -2.013433 1.000000 -0.000001 0.000000 
0.537103 14.575885 7.986567 0.000000 -0.000000 1.000000 
-0.462897 14.575885 7.986567 0.000000 -0.000000 1.000000 
0.537103 13.575885 7.986567 0.000000 -0.000000 1.000000 
-0.462897 13.575885 7.986567 0.000000 -0.000000 1.000000 
0.537103 14.575885 -2.013433 0.000000 -0.000000 -1.000000 
0.537103 13.575885 -2.013433 0.000000 -0.000000 -1.000000 
-0.462897 14.575885 -2.013433 0.000000 -0.000000 -1.000000 
-0.462897 13.575885 -2.013433 0.000000 -0.000000 -1.000000 
1.037103 13.624938 9.017869 -0.000000 0.642786 0.766046 
1.037103 15.157031 7.732295 -0.000000 0.642786 0.766046 
-0.962897 15.157031 7.732295 -0.000000 0.642786 0.766046 
1.037103 13.624938 9.017869 0.000001 0.642787 0.766045 
-0.962897 15.157031 7.732295 0.000001 0.642787 0.766045 
-0.962897 13.624940 9.017871 0.000001 0.642787 0.766045 
-0.962898 12.585879 4.668118 -1.000000 0.000000 0.000000 
-0.962898 11.053791 5.953693 -1.000000 0.000000 0.000000 
-0.962897 15.157031 7.732295 -1.000000 0.000000 0.000000 
-0.962897 13.624940 9.017871 -1.000000 0.000000 0.000000 
1.037103 12.585879 4.668118 0.000000 -0.642787 -0.766045 
1.037102 11.053789 5.953691 0.000000 -0.642787 -0.766045 
-0.962898 12.585879 4.668118 0.000000 -0.642787 -0.766045 
1.037102 11.053789 5.953691 -0.000001 -0.642788 -0.766044 
-0.962898 11.053791 5.953693 -0.000001 -0.642788 -0.766044 
-0.962898 12.585879 4.668118 -0.000001 -0.642788 -0.766044 
1.037103 15.157031 7.732295 1.000000 -0.000000 -0.000000 
1.037103 13.624938 9.017869 1.000000 -0.000000 -0.000000 
1.037102 11.053789 5.953691 1.000000 -0.000000 -0.000000 
1.037103 12.585879 4.668118 1.000000 -0.000000 0.000000 
1.037103 13.624938 9.017869 -0.000000 -0.766045 0.642787 
-0.962897 13.624940 9.017871 -0.000000 -0.766045 0.642787 
-0.962898 11.053791 5.953693 -0.000000 -0.766045 0.642787 
1.037102 11.053789 5.953691 -0.000000 -0.766045 0.642787 
1.037103 15.157031 7.732295 0.000000 0.766044 -0.642788 
1.037103 12.585879 4.668118 0.000000 0.766044 -0.642788 
-0.962897 15.157031 7.732295 0.000000 0.766044 -0.642788 
-0.962898 12.585879 4.668118 0.000000 0.766044 -0.642788 
1.037103 11.300403 6.199093 -0.000000 0.766044 0.642788 
1.037103 12.585979 4.667005 -0.000000 0.766044 0.642788 
-0.962897 12.585979 4.667005 -0.000000 0.766044 0.642788 
1.037103 11.300403 6.199093 0.000001 0.766045 0.642787 
-0.962897 12.585979 4.667005 0.000001 0.766045 0.642787 
-0.962897 11.300405 6.199094 0.000001 0.766045 0.642787 
-0.962898 9.521802 2.095855 -1.000000 0.000000 -0.000000 
-0.962898 8.236226 3.627943 -1.000000 0.000000 -0.000000 
-0.962897 12.585979 4.667005 -1.000000 0.000000 -0.000000 
-0.962897 11.300405 6.199094 -1.000000 0.000000 -0.000000 
1.037103 9.521802 2.095855 0.000000 -0.766044 -0.642788 
1.037102 8.236226 3.627942 0.000000 -0.766044 -0.642788 
-0.962898 9.521802 2.095855 0.000000 -0.766044 -0.642788 
-0.962898 8.236226 3.627943 -0.000000 -0.766044 -0.642788 
1.037103 12.585979 4.667005 1.000000 -0.000000 -0.000000 
1.037103 11.300403 6.199093 1.000000 -0.000000 -0.000000 
1.037102 8.236226 3.627942 1.000000 -0.000000 -0.000000 
1.037103 9.521802 2.095855 1.000000 -0.000000 0.000000 
1.037103 11.300403 6.199093 -0.000000 -0.642788 0.766044 
-0.962897 11.300405 6.199094 -0.000000 -0.642788 0.766044 
-0.962898 8.236226 3.627943 -0.000000 -0.642788 0.766044 
1.037102 8.236226 3.627942 0.000000 -0.642788 0.766044 
1.037103 12.585979 4.667005 0.000000 0.642788 -0.766045 
1.037103 9.521802 2.095855 0.000000 0.642788 -0.766045 
-0.962897 12.585979 4.667005 0.000000 0.642788 -0.766045 
1.037103 9.521802 2.095855 0.000000 0.642788 -0.766044 
-0.962898 9.521802 2.095855 0.000000 0.642788 -0.766044 
-0.962897 12.585979 4.667005 0.000000 0.642788 -0.766044 
1.037103 8.523154 3.827863 0.000001 0.866025 0.500000 
1.037103 9.523154 2.095813 0.000001 0.866025 0.500000 
-0.962897 9.523155 2.095813 0.000001 0.866025 0.500000 
-0.962897 8.523155 3.827864 0.000001 0.866025 0.500000 
-0.962898 6.059053 0.095813 -1.000000 0.000000 -0.000000 
-0.962898 5.059053 1.827864 -1.000000 0.000000 -0.000000 
-0.962897 9.523155 2.095813 -1.000000 0.000000 -0.000000 
-0.962897 8.523155 3.827864 -1.000000 0.000000 -0.000000 
1.037103 6.059053 0.095813 -0.000000 -0.866025 -0.500001 
1.037102 5.059052 1.827863 -0.000000 -0.866025 -0.500001 
-0.962898 6.059053 0.095813 -0.000000 -0.866025 -0.500001 
1.037102 5.059052 1.827863 -0.000001 -0.866025 -0.500000 
-0.962898 5.059053 1.827864 -0.000001 -0.866025 -0.500000 
-0.962898 6.059053 0.095813 -0.000001 -0.866025 -0.500000 
1.037103 9.523154 2.095813 1.000000 -0.000000 -0.000000 
1.037103 8.523154 3.827863 1.000000 -0.000000 -0.000000 
1.037102 5.059052 1.827863 1.000000 -0.000000 -0.000000 
1.037103 6.059053 0.095813 1.000000 -0.000000 0.000000 
1.037103 8.523154 3.827863 0.000000 -0.500000 0.866025 
-0.962897 8.523155 3.827864 0.000000 -0.500000 0.866025 
-0.962898 5.059053 1.827864 0.000000 -0.500000 0.866025 
1.037103 8.523154 3.827863 -0.000000 -0.500000 0.866026 
-0.962898 5.059053 1.827864 -0.000000 -0.500000 0.866026 
1.037102 5.059052 1.827863 -0.000000 -0.500000 0.866026 
1.037103 9.523154 2.095813 0.000000 0.500000 -0.866025 
1.037103 6.059053 0.095813 0.000000 0.500000 -0.866025 
-0.962898 6.059053 0.095813 0.000000 0.500000 -0.866025 
-0.962897 9.523155 2.095813 0.000000 0.500000 -0.866025 
1.037103 5.374344 1.974598 0.000000 0.939692 0.342021 
1.037103 6.058385 0.095213 0.000000 0.939692 0.342021 
-0.962897 5.374345 1.974598 0.000000 0.939692 0.342021 
-0.962897 6.058386 0.095213 0.000000 0.939692 0.342021 
-0.962897 2.299615 -1.272867 -1.000000 0.000000 -0.000000 
-0.962898 1.615575 0.606518 -1.000000 0.000000 -0.000000 
-0.962897 6.058386 0.095213 -1.000000 0.000000 -0.000000 
-0.962897 5.374345 1.974598 -1.000000 0.000000 -0.000000 
1.037103 2.299615 -1.272867 -0.000000 -0.939692 -0.342021 
1.037102 1.615574 0.606517 -0.000000 -0.939692 -0.342021 
-0.962897 2.299615 -1.272867 -0.000000 -0.939692 -0.342021 
1.037102 1.615574 0.606517 -0.000001 -0.939693 -0.342020 
-0.962898 1.615575 0.606518 -0.000001 -0.939693 -0.342020 
-0.962897 2.299615 -1.272867 -0.000001 -0.939693 -0.342020 
1.037103 6.058385 0.095213 1.000000 -0.000000 -0.000000 
1.037103 5.374344 1.974598 1.000000 -0.000000 -0.000000 
1.037102 1.615574 0.606517 1.000000 -0.000000 -0.000000 
1.037103 2.299615 -1.272867 1.000000 -0.000000 0.000000 
1.037103 5.374344 1.974598 -0.000000 -0.342020 0.939693 
-0.962897 5.374345 1.974598 -0.000000 -0.342020 0.939693 
-0.962898 1.615575 0.606518 -0.000000 -0.342020 0.939693 
1.037102 1.615574 0.606517 0.000000 -0.342020 0.939693 
1.037103 6.058385 0.095213 -0.000000 0.342020 -0.939693 
1.037103 2.299615 -1.272867 -0.000000 0.342020 -0.939693 
-0.962897 2.299615 -1.272867 -0.000000 0.342020 -0.939693 
-0.962897 6.058386 0.095213 0.000000 0.342020 -0.939693 
1.037103 1.951514 0.695760 0.000000 0.984808 0.173649 
1.037103 2.298811 -1.273855 0.000000 0.984808 0.173649 
-0.962897 2.298812 -1.273855 0.000000 0.984808 0.173649 
-0.962897 1.951515 0.695760 0.000000 0.984808 0.173649 
-0.962897 -1.640420 -1.968448 -1.000000 0.000000 -0.000000 
-0.962898 -1.987715 0.001168 -1.000000 0.000000 -0.000000 
-0.962897 1.951515 0.695760 -1.000000 0.000000 -0.000000 
-0.962897 2.298812 -1.273855 -1.000000 0.000000 -0.000000 
1.037103 -1.640420 -1.968448 0.000000 -0.984808 -0.173649 
1.037102 -1.987717 0.001167 0.000000 -0.984808 -0.173649 
-0.962897 -1.640420 -1.968448 0.000000 -0.984808 -0.173649 
1.037102 -1.987717 0.001167 -0.000001 -0.984808 -0.173648 
-0.962898 -1.987715 0.001168 -0.000001 -0.984808 -0.173648 
-0.962897 -1.640420 -1.968448 -0.000001 -0.984808 -0.173648 
1.037103 2.298811 -1.273855 1.000000 0.000000 -0.000000 
1.037103 1.951514 0.695760 1.000000 0.000000 -0.000000 
1.037103 -1.640420 -1.968448 1.000000 0.000000 -0.000000 
1.037102 -1.987717 0.001167 1.000000 -0.000000 0.000000 
1.037103 1.951514 0.695760 0.000000 -0.173648 0.984808 
-0.962897 1.951515 0.695760 0.000000 -0.173648 0.984808 
1.037102 -1.987717 0.001167 0.000000 -0.173648 0.984808 
-0.962898 -1.987715 0.001168 -0.000000 -0.173648 0.984808 
1.037103 2.298811 -1.273855 0.000000 0.173648 -0.984808 
1.037103 -1.640420 -1.968448 0.000000 0.173648 -0.984808 
-0.962897 -1.640420 -1.968448 0.000000 0.173648 -0.984808 
-0.962897 2.298812 -1.273855 0.000000 0.173648 -0.984808 
3 0 1 2
3 0 2 3
3 4 5 6
3 4 6 7
3 8 9 10
3 8 10 11
3 12 13 14
3 15 16 17
3 18 19 20
3 19 21 20
3 22 23 24
3 23 25 24
3 26 27 28
3 29 30 31
3 32 33 34
3 33 35 34
3 36 37 38
3 39 40 41
3 42 43 44
3 42 44 45
3 46 47 48
3 46 48 49
3 50 51 52
3 51 53 52
3 54 55 56
3 57 58 59
3 60 61 62
3 61 63 62
3 64 65 66
3 65 67 66
3 68 69 70
3 68 70 71
3 72 73 74
3 72 74 75
3 76 77 78
3 79 80 81
3 82 83 84
3 82 84 85
3 86 87 88
3 87 89 88
3 90 91 92
3 93 94 95
3 96 97 98
3 96 98 99
3 100 101 102
3 103 104 105
3 106 107 108
3 106 108 109
3 110 111 112
3 111 113 112
3 114 115 116
3 115 117 116
3 118 119 120
3 121 122 123
3 124 125 126
3 124 126 127
3 128 129 130
3 128 130 131
3 132 133 134
3 132 134 135
3 136 137 138
3 136 138 139
3 140 141 142
3 140 142 143
3 144 145 146
3 147 148 149
3 150 151 152
3 151 153 152
3 154 155 156
3 155 157 156
3 158 159 160
3 158 160 161
