ply
format ascii 1.0
comment Created by Blender 2.59 (sub 0) - www.blender.org, source file: 'obstacles.blend'
element vertex 182
property float x
property float y
property float z
property float nx
property float ny
property float nz
element face 84
property list uchar uint vertex_indices
end_header
1.000000 28.030762 1.374091 -0.000000 1.000000 0.000000 
1.000000 28.030762 -0.625909 -0.000000 1.000000 0.000000 
-1.000000 28.030762 1.374091 -0.000000 1.000000 0.000000 
1.000000 28.030762 -0.625909 0.000001 1.000000 0.000001 
-1.000000 28.030764 -0.625909 0.000001 1.000000 0.000001 
-1.000000 28.030762 1.374091 0.000001 1.000000 0.000001 
-1.000000 24.030764 -0.625908 -1.000000 0.000000 -0.000000 
-1.000000 24.030764 1.374091 -1.000000 0.000000 -0.000000 
-1.000000 28.030762 1.374091 -1.000000 0.000000 -0.000000 
-1.000000 28.030764 -0.625909 -1.000000 0.000000 -0.000000 
1.000000 24.030764 -0.625908 -0.000001 -1.000000 -0.000001 
0.999999 24.030762 1.374091 -0.000001 -1.000000 -0.000001 
-1.000000 24.030764 1.374091 -0.000001 -1.000000 -0.000001 
1.000000 24.030764 -0.625908 0.000000 -1.000000 0.000000 
-1.000000 24.030764 1.374091 0.000000 -1.000000 0.000000 
-1.000000 24.030764 -0.625908 0.000000 -1.000000 0.000000 
1.000000 28.030762 -0.625909 1.000000 -0.000000 -0.000000 
1.000000 28.030762 1.374091 1.000000 -0.000000 -0.000000 
1.000000 24.030764 -0.625908 1.000000 -0.000000 -0.000000 
0.999999 24.030762 1.374091 1.000000 -0.000000 0.000000 
1.000000 28.030762 1.374091 0.000000 0.000000 1.000000 
-1.000000 28.030762 1.374091 0.000000 0.000000 1.000000 
-1.000000 24.030764 1.374091 0.000000 0.000000 1.000000 
0.999999 24.030762 1.374091 -0.000000 0.000000 1.000000 
1.000000 28.030762 -0.625909 0.000000 -0.000000 -1.000000 
1.000000 24.030764 -0.625908 0.000000 -0.000000 -1.000000 
-1.000000 24.030764 -0.625908 0.000000 -0.000000 -1.000000 
-1.000000 28.030764 -0.625909 -0.000000 -0.000000 -1.000000 
1.000000 23.030762 1.374092 -0.000000 1.000000 0.000001 
1.000000 23.030764 -0.625909 -0.000000 1.000000 0.000001 
-1.000000 23.030762 1.374091 -0.000000 1.000000 0.000001 
-1.000000 23.030764 -0.625908 0.000000 1.000000 0.000001 
-1.000000 19.030764 -0.625909 -1.000000 0.000000 -0.000000 
-1.000000 19.030764 1.374091 -1.000000 0.000000 -0.000000 
-1.000000 23.030762 1.374091 -1.000000 0.000000 -0.000000 
-1.000000 23.030764 -0.625908 -1.000000 0.000000 -0.000000 
1.000000 19.030764 -0.625909 0.000000 -1.000000 -0.000001 
0.999999 19.030762 1.374091 0.000000 -1.000000 -0.000001 
-1.000000 19.030764 -0.625909 0.000000 -1.000000 -0.000001 
0.999999 19.030762 1.374091 -0.000001 -1.000000 -0.000000 
-1.000000 19.030764 1.374091 -0.000001 -1.000000 -0.000000 
-1.000000 19.030764 -0.625909 -0.000001 -1.000000 -0.000000 
1.000000 23.030764 -0.625909 1.000000 0.000000 -0.000000 
1.000000 23.030762 1.374092 1.000000 0.000000 -0.000000 
1.000000 19.030764 -0.625909 1.000000 0.000000 -0.000000 
0.999999 19.030762 1.374091 1.000000 -0.000000 0.000000 
1.000000 23.030762 1.374092 -0.000000 -0.000000 1.000000 
-1.000000 23.030762 1.374091 -0.000000 -0.000000 1.000000 
0.999999 19.030762 1.374091 -0.000000 -0.000000 1.000000 
-1.000000 19.030764 1.374091 0.000000 -0.000000 1.000000 
1.000000 23.030764 -0.625909 0.000000 0.000000 -1.000000 
1.000000 19.030764 -0.625909 0.000000 0.000000 -1.000000 
-1.000000 19.030764 -0.625909 0.000000 0.000000 -1.000000 
-1.000000 23.030764 -0.625908 -0.000000 0.000000 -1.000000 
1.000000 18.230764 1.374092 -0.000000 1.000000 0.000000 
1.000000 18.230764 -0.625909 -0.000000 1.000000 0.000000 
-1.000000 18.230764 1.374091 -0.000000 1.000000 0.000000 
-1.000000 18.230764 -0.625909 -0.000000 1.000000 0.000000 
-1.000000 14.230763 -0.625909 -1.000000 0.000000 -0.000000 
-1.000000 14.230764 1.374091 -1.000000 0.000000 -0.000000 
-1.000000 18.230764 1.374091 -1.000000 0.000000 -0.000000 
-1.000000 18.230764 -0.625909 -1.000000 0.000000 -0.000000 
1.000000 14.230763 -0.625909 0.000000 -1.000000 0.000000 
0.999999 14.230763 1.374091 0.000000 -1.000000 0.000000 
-1.000000 14.230763 -0.625909 0.000000 -1.000000 0.000000 
-1.000000 14.230764 1.374091 -0.000000 -1.000000 0.000000 
1.000000 18.230764 -0.625909 1.000000 -0.000000 -0.000000 
1.000000 18.230764 1.374092 1.000000 -0.000000 -0.000000 
1.000000 14.230763 -0.625909 1.000000 -0.000000 -0.000000 
0.999999 14.230763 1.374091 1.000000 -0.000000 0.000000 
1.000000 18.230764 1.374092 -0.000000 -0.000000 1.000000 
-1.000000 18.230764 1.374091 -0.000000 -0.000000 1.000000 
0.999999 14.230763 1.374091 -0.000000 -0.000000 1.000000 
-1.000000 14.230764 1.374091 -0.000000 -0.000000 1.000000 
1.000000 18.230764 -0.625909 0.000000 -0.000000 -1.000000 
1.000000 14.230763 -0.625909 0.000000 -0.000000 -1.000000 
-1.000000 18.230764 -0.625909 0.000000 -0.000000 -1.000000 
-1.000000 14.230763 -0.625909 0.000000 -0.000000 -1.000000 
1.000000 13.830761 1.374091 0.000000 1.000000 0.000001 
1.000000 13.830763 -0.625909 0.000000 1.000000 0.000001 
-1.000000 13.830762 1.374091 0.000000 1.000000 0.000001 
-1.000000 13.830764 -0.625908 0.000000 1.000000 0.000001 
-1.000000 9.830764 -0.625909 -1.000000 0.000000 -0.000000 
-1.000000 9.830764 1.374092 -1.000000 0.000000 -0.000000 
-1.000000 13.830762 1.374091 -1.000000 0.000000 -0.000000 
-1.000000 13.830764 -0.625908 -1.000000 0.000000 -0.000000 
1.000000 9.830764 -0.625908 -0.000001 -1.000000 -0.000001 
0.999999 9.830762 1.374092 -0.000001 -1.000000 -0.000001 
-1.000000 9.830764 1.374092 -0.000001 -1.000000 -0.000001 
1.000000 9.830764 -0.625908 0.000000 -1.000000 0.000000 
-1.000000 9.830764 1.374092 0.000000 -1.000000 0.000000 
-1.000000 9.830764 -0.625909 0.000000 -1.000000 0.000000 
1.000000 13.830763 -0.625909 1.000000 -0.000000 -0.000000 
1.000000 13.830761 1.374091 1.000000 -0.000000 -0.000000 
1.000000 9.830764 -0.625908 1.000000 -0.000000 -0.000000 
0.999999 9.830762 1.374092 1.000000 -0.000000 0.000000 
1.000000 13.830761 1.374091 -0.000000 0.000000 1.000000 
-1.000000 13.830762 1.374091 -0.000000 0.000000 1.000000 
-1.000000 9.830764 1.374092 -0.000000 0.000000 1.000000 
0.999999 9.830762 1.374092 0.000000 0.000000 1.000000 
1.000000 13.830763 -0.625909 0.000000 -0.000000 -1.000000 
1.000000 9.830764 -0.625908 0.000000 -0.000000 -1.000000 
-1.000000 9.830764 -0.625909 0.000000 -0.000000 -1.000000 
-1.000000 13.830764 -0.625908 -0.000000 0.000000 -1.000000 
1.000000 9.630760 1.374091 0.000000 1.000000 0.000000 
1.000000 9.630761 -0.625909 0.000000 1.000000 0.000000 
-1.000000 9.630761 1.374091 0.000000 1.000000 0.000000 
-1.000000 9.630762 -0.625909 0.000000 1.000000 0.000000 
-1.000000 5.630763 -0.625909 -1.000000 0.000000 -0.000000 
-1.000000 5.630763 1.374091 -1.000000 0.000000 -0.000000 
-1.000000 9.630761 1.374091 -1.000000 0.000000 -0.000000 
-1.000000 9.630762 -0.625909 -1.000000 0.000000 -0.000000 
1.000000 5.630763 -0.625909 0.000000 -1.000000 -0.000000 
0.999999 5.630762 1.374091 0.000000 -1.000000 -0.000000 
-1.000000 5.630763 -0.625909 0.000000 -1.000000 -0.000000 
-1.000000 5.630763 1.374091 -0.000000 -1.000000 -0.000000 
1.000000 9.630761 -0.625909 1.000000 -0.000000 -0.000000 
1.000000 9.630760 1.374091 1.000000 -0.000000 -0.000000 
1.000000 5.630763 -0.625909 1.000000 -0.000000 -0.000000 
0.999999 5.630762 1.374091 1.000000 -0.000000 0.000000 
1.000000 9.630760 1.374091 0.000000 0.000000 1.000000 
-1.000000 9.630761 1.374091 0.000000 0.000000 1.000000 
-1.000000 5.630763 1.374091 0.000000 0.000000 1.000000 
0.999999 5.630762 1.374091 -0.000000 0.000000 1.000000 
1.000000 9.630761 -0.625909 0.000000 -0.000000 -1.000000 
1.000000 5.630763 -0.625909 0.000000 -0.000000 -1.000000 
-1.000000 5.630763 -0.625909 0.000000 -0.000000 -1.000000 
-1.000000 9.630762 -0.625909 -0.000000 -0.000000 -1.000000 
1.000000 5.530761 1.374091 0.000000 1.000000 0.000000 
1.000000 5.530762 -0.625909 0.000000 1.000000 0.000000 
-1.000000 5.530762 1.374091 0.000000 1.000000 0.000000 
-1.000000 5.530763 -0.625909 0.000000 1.000000 0.000000 
-1.000000 1.530762 -0.625909 -1.000000 0.000000 -0.000000 
-1.000000 1.530763 1.374091 -1.000000 0.000000 -0.000000 
-1.000000 5.530762 1.374091 -1.000000 0.000000 -0.000000 
-1.000000 5.530763 -0.625909 -1.000000 0.000000 -0.000000 
1.000000 1.530762 -0.625909 -0.000000 -1.000000 -0.000001 
0.999999 1.530761 1.374091 -0.000000 -1.000000 -0.000001 
-1.000000 1.530762 -0.625909 -0.000000 -1.000000 -0.000001 
0.999999 1.530761 1.374091 -0.000001 -1.000000 0.000000 
-1.000000 1.530763 1.374091 -0.000001 -1.000000 0.000000 
-1.000000 1.530762 -0.625909 -0.000001 -1.000000 0.000000 
1.000000 5.530762 -0.625909 1.000000 0.000000 -0.000000 
1.000000 5.530761 1.374091 1.000000 0.000000 -0.000000 
1.000000 1.530762 -0.625909 1.000000 0.000000 -0.000000 
0.999999 1.530761 1.374091 1.000000 -0.000000 0.000000 
1.000000 5.530761 1.374091 -0.000000 -0.000000 1.000000 
-1.000000 5.530762 1.374091 -0.000000 -0.000000 1.000000 
-1.000000 1.530763 1.374091 -0.000000 -0.000000 1.000000 
0.999999 1.530761 1.374091 -0.000000 0.000000 1.000000 
1.000000 5.530762 -0.625909 0.000000 0.000000 -1.000000 
1.000000 1.530762 -0.625909 0.000000 0.000000 -1.000000 
-1.000000 1.530762 -0.625909 0.000000 0.000000 -1.000000 
-1.000000 5.530763 -0.625909 0.000000 0.000000 -1.000000 
1.000000 1.537364 1.376019 0.000000 0.939692 0.342021 
1.000000 2.221405 -0.503366 0.000000 0.939692 0.342021 
-1.000000 2.221406 -0.503366 0.000000 0.939692 0.342021 
1.000000 1.537364 1.376019 0.000001 0.939692 0.342020 
-1.000000 2.221406 -0.503366 0.000001 0.939692 0.342020 
-1.000000 1.537365 1.376019 0.000001 0.939692 0.342020 
-1.000000 -1.537365 -1.871446 -1.000000 0.000000 -0.000000 
-1.000000 -2.221405 0.007939 -1.000000 0.000000 -0.000000 
-1.000000 1.537365 1.376019 -1.000000 0.000000 -0.000000 
-1.000000 2.221406 -0.503366 -1.000000 0.000000 -0.000000 
1.000000 -1.537365 -1.871447 -0.000000 -0.939692 -0.342021 
0.999999 -2.221406 0.007938 -0.000000 -0.939692 -0.342021 
-1.000000 -1.537365 -1.871446 -0.000000 -0.939692 -0.342021 
0.999999 -2.221406 0.007938 -0.000001 -0.939693 -0.342020 
-1.000000 -2.221405 0.007939 -0.000001 -0.939693 -0.342020 
-1.000000 -1.537365 -1.871446 -0.000001 -0.939693 -0.342020 
1.000000 2.221405 -0.503366 1.000000 0.000000 -0.000000 
1.000000 1.537364 1.376019 1.000000 0.000000 -0.000000 
1.000000 -1.537365 -1.871447 1.000000 0.000000 -0.000000 
0.999999 -2.221406 0.007938 1.000000 -0.000000 0.000000 
1.000000 1.537364 1.376019 0.000000 -0.342020 0.939693 
-1.000000 1.537365 1.376019 0.000000 -0.342020 0.939693 
0.999999 -2.221406 0.007938 0.000000 -0.342020 0.939693 
-1.000000 -2.221405 0.007939 0.000000 -0.342020 0.939693 
1.000000 2.221405 -0.503366 -0.000000 0.342020 -0.939693 
1.000000 -1.537365 -1.871447 -0.000000 0.342020 -0.939693 
-1.000000 -1.537365 -1.871446 -0.000000 0.342020 -0.939693 
-1.000000 2.221406 -0.503366 0.000000 0.342020 -0.939693 
3 0 1 2
3 3 4 5
3 6 7 8
3 6 8 9
3 10 11 12
3 13 14 15
3 16 17 18
3 17 19 18
3 20 21 22
3 20 22 23
3 24 25 26
3 24 26 27
3 28 29 30
3 29 31 30
3 32 33 34
3 32 34 35
3 36 37 38
3 39 40 41
3 42 43 44
3 43 45 44
3 46 47 48
3 47 49 48
3 50 51 52
3 50 52 53
3 54 55 56
3 55 57 56
3 58 59 60
3 58 60 61
3 62 63 64
3 63 65 64
3 66 67 68
3 67 69 68
3 70 71 72
3 71 73 72
3 74 75 76
3 75 77 76
3 78 79 80
3 79 81 80
3 82 83 84
3 82 84 85
3 86 87 88
3 89 90 91
3 92 93 94
3 93 95 94
3 96 97 98
3 96 98 99
3 100 101 102
3 100 102 103
3 104 105 106
3 105 107 106
3 108 109 110
3 108 110 111
3 112 113 114
3 113 115 114
3 116 117 118
3 117 119 118
3 120 121 122
3 120 122 123
3 124 125 126
3 124 126 127
3 128 129 130
3 129 131 130
3 132 133 134
3 132 134 135
3 136 137 138
3 139 140 141
3 142 143 144
3 143 145 144
3 146 147 148
3 146 148 149
3 150 151 152
3 150 152 153
3 154 155 156
3 157 158 159
3 160 161 162
3 160 162 163
3 164 165 166
3 167 168 169
3 170 171 172
3 171 173 172
3 174 175 176
3 175 177 176
3 178 179 180
3 178 180 181
