ply
format ascii 1.0
comment Created by Blender 2.59 (sub 0) - www.blender.org, source file: ''
element vertex 18
property float x
property float y
property float z
property float nx
property float ny
property float nz
element face 8
property list uchar uint vertex_indices
end_header
1.000000 1.000000 -1.000000 1.000000 -0.000000 -0.000000 
1.000000 0.999999 0.000000 1.000000 -0.000000 -0.000000 
0.999999 -1.000001 -1.000000 1.000000 -0.000000 -0.000000 
-1.000000 -1.000000 -1.000000 -1.000000 0.000000 -0.000000 
-1.000000 1.000000 0.000000 -1.000000 0.000000 -0.000000 
-1.000000 1.000000 -1.000000 -1.000000 0.000000 -0.000000 
1.000000 0.999999 0.000000 0.000000 1.000000 0.000000 
1.000000 1.000000 -1.000000 0.000000 1.000000 0.000000 
-1.000000 1.000000 -1.000000 0.000000 1.000000 0.000000 
-1.000000 1.000000 0.000000 0.000000 1.000000 0.000000 
1.000000 0.999999 0.000000 -0.000000 -0.447214 0.894427 
-1.000000 1.000000 0.000000 -0.000000 -0.447214 0.894427 
-1.000000 -1.000000 -1.000000 -0.000000 -0.447214 0.894427 
0.999999 -1.000001 -1.000000 -0.000000 -0.447214 0.894427 
1.000000 1.000000 -1.000000 0.000000 0.000000 -1.000000 
0.999999 -1.000001 -1.000000 0.000000 0.000000 -1.000000 
-1.000000 -1.000000 -1.000000 0.000000 0.000000 -1.000000 
-1.000000 1.000000 -1.000000 0.000000 -0.000000 -1.000000 
3 0 1 2
3 3 4 5
3 6 7 8
3 6 8 9
3 10 11 12
3 10 12 13
3 14 15 16
3 14 16 17
