ply
format ascii 1.0
comment Created by Blender 2.69 (sub 0) - www.blender.org, source file: ''
element vertex 32
property float x
property float y
property float z
property float nx
property float ny
property float nz
property float s
property float t
element face 12
property list uchar uint vertex_indices
end_header
49.999973 49.999973 -0.125000 0.000000 0.000000 -1.000000 1.000000 1.000000
49.999973 -49.999973 -0.125000 0.000000 0.000000 -1.000000 1.000000 0.000000
-49.999985 -49.999966 -0.125000 0.000000 0.000000 -1.000000 0.000000 0.000000
50.000000 49.999947 0.125000 -0.000000 0.000000 1.000000 1.000000 1.000000
-49.999973 49.999973 0.125000 -0.000000 0.000000 1.000000 0.000000 1.000000
-49.999992 -49.999958 0.125000 -0.000000 0.000000 1.000000 0.000000 0.000000
49.999973 49.999973 -0.125000 1.000000 0.000000 -0.000107 1.000000 1.000000
50.000000 49.999947 0.125000 1.000000 0.000000 -0.000107 1.000000 1.000000
49.999973 -49.999973 -0.125000 1.000000 0.000000 -0.000107 1.000000 0.000000
49.999973 -49.999973 -0.125000 -0.000000 -1.000000 -0.000122 1.000000 0.000000
49.999943 -50.000004 0.125000 -0.000000 -1.000000 -0.000122 0.999999 0.000000
-49.999985 -49.999966 -0.125000 -0.000000 -1.000000 -0.000122 0.000000 0.000000
-49.999985 -49.999966 -0.125000 -1.000000 0.000000 -0.000031 0.000000 0.000000
-49.999992 -49.999958 0.125000 -1.000000 0.000000 -0.000031 0.000000 0.000000
-49.999973 49.999973 0.125000 -1.000000 0.000000 -0.000031 0.000000 1.000000
50.000000 49.999947 0.125000 0.000000 1.000000 0.000107 1.000000 1.000000
49.999973 49.999973 -0.125000 0.000000 1.000000 0.000107 1.000000 1.000000
-49.999958 49.999992 -0.125000 0.000000 1.000000 0.000107 0.000000 1.000000
-49.999958 49.999992 -0.125000 0.000000 0.000000 -1.000000 0.000000 1.000000
49.999943 -50.000004 0.125000 -0.000000 0.000000 1.000000 0.999999 0.000000
49.999943 -50.000004 0.125000 -0.000000 -1.000000 0.000031 0.999999 0.000000
-49.999992 -49.999958 0.125000 -0.000000 -1.000000 0.000031 0.000000 0.000000
-49.999985 -49.999966 -0.125000 -0.000000 -1.000000 0.000031 0.000000 0.000000
-49.999958 49.999992 -0.125000 -1.000000 0.000000 -0.000061 0.000000 1.000000
-49.999985 -49.999966 -0.125000 -1.000000 0.000000 -0.000061 0.000000 0.000000
-49.999973 49.999973 0.125000 -1.000000 0.000000 -0.000061 0.000000 1.000000
-49.999973 49.999973 0.125000 0.000000 1.000000 0.000076 0.000000 1.000000
50.000000 49.999947 0.125000 0.000000 1.000000 0.000076 1.000000 1.000000
-49.999958 49.999992 -0.125000 0.000000 1.000000 0.000076 0.000000 1.000000
50.000000 49.999947 0.125000 1.000000 -0.000001 0.000122 1.000000 1.000000
49.999943 -50.000004 0.125000 1.000000 -0.000001 0.000122 0.999999 0.000000
49.999973 -49.999973 -0.125000 1.000000 -0.000001 0.000122 1.000000 0.000000
3 0 1 2
3 3 4 5
3 6 7 8
3 9 10 11
3 12 13 14
3 15 16 17
3 18 0 2
3 19 3 5
3 20 21 22
3 23 24 25
3 26 27 28
3 29 30 31
