ply
format ascii 1.0
comment Created by Blender 2.72 (sub 0) - www.blender.org, source file: ''
element vertex 42
property float x
property float y
property float z
property float nx
property float ny
property float nz
element face 80
property list uchar uint vertex_indices
end_header
-0.850648 0.000000 0.525736 -0.850642 0.000000 0.525712
-0.723607 -0.525725 0.447220 -0.723594 -0.525712 0.447188
-0.425323 -0.309011 0.850654 -0.425306 -0.309000 0.850642
0.000000 0.000000 -1.000000 0.000000 0.000000 -1.000000
0.425323 -0.309011 -0.850654 0.425306 -0.309000 -0.850642
-0.162456 -0.499995 -0.850654 -0.162450 -0.499985 -0.850642
0.723607 -0.525725 -0.447220 0.723594 -0.525712 -0.447188
0.850648 0.000000 -0.525736 0.850642 0.000000 -0.525712
-0.525730 0.000000 -0.850652 -0.525712 0.000000 -0.850642
-0.162456 0.499995 -0.850654 -0.162450 0.499985 -0.850642
0.425323 0.309011 -0.850654 0.425306 0.309000 -0.850642
0.951058 -0.309013 0.000000 0.951048 -0.309000 0.000000
-0.276388 -0.850649 -0.447220 -0.276376 -0.850642 -0.447218
0.262869 -0.809012 -0.525738 0.262856 -0.808985 -0.525712
0.000000 -1.000000 0.000000 0.000000 -0.999969 0.000000
-0.894426 0.000000 -0.447216 -0.894406 0.000000 -0.447188
-0.688189 -0.499997 -0.525736 -0.688162 -0.499985 -0.525712
-0.951058 -0.309013 0.000000 -0.951048 -0.309000 0.000000
-0.276388 0.850649 -0.447220 -0.276376 0.850642 -0.447218
-0.688189 0.499997 -0.525736 -0.688162 0.499985 -0.525712
-0.587786 0.809017 0.000000 -0.587756 0.809015 0.000000
0.723607 0.525725 -0.447220 0.723594 0.525712 -0.447188
0.262869 0.809012 -0.525738 0.262856 0.808985 -0.525712
0.587786 0.809017 0.000000 0.587756 0.809015 0.000000
0.587786 -0.809017 0.000000 0.587756 -0.809015 0.000000
-0.587786 -0.809017 0.000000 -0.587756 -0.809015 0.000000
-0.951058 0.309013 0.000000 -0.951048 0.309000 0.000000
0.000000 1.000000 0.000000 0.000000 0.999969 0.000000
0.951058 0.309013 0.000000 0.951048 0.309000 0.000000
0.276388 -0.850649 0.447220 0.276376 -0.850642 0.447218
0.688189 -0.499997 0.525736 0.688162 -0.499985 0.525712
0.162456 -0.499995 0.850654 0.162450 -0.499985 0.850642
-0.262869 -0.809012 0.525738 -0.262856 -0.808985 0.525712
-0.723607 0.525725 0.447220 -0.723594 0.525712 0.447188
-0.425323 0.309011 0.850654 -0.425306 0.309000 0.850642
0.276388 0.850649 0.447220 0.276376 0.850642 0.447218
-0.262869 0.809012 0.525738 -0.262856 0.808985 0.525712
0.162456 0.499995 0.850654 0.162450 0.499985 0.850642
0.894426 0.000000 0.447216 0.894406 0.000000 0.447188
0.688189 0.499997 0.525736 0.688162 0.499985 0.525712
0.525730 0.000000 0.850652 0.525712 0.000000 0.850642
0.000000 0.000000 1.000000 0.000000 0.000000 1.000000
3 0 1 2
3 3 4 5
3 6 4 7
3 3 5 8
3 3 8 9
3 3 9 10
3 6 7 11
3 12 13 14
3 15 16 17
3 18 19 20
3 21 22 23
3 6 11 24
3 12 14 25
3 15 17 26
3 18 20 27
3 21 23 28
3 29 30 31
3 1 32 2
3 33 0 34
3 35 36 37
3 38 39 40
3 5 13 12
3 5 4 13
3 4 6 13
3 7 10 21
3 7 4 10
3 4 3 10
3 8 16 15
3 8 5 16
3 5 12 16
3 9 19 18
3 9 8 19
3 8 15 19
3 10 22 21
3 10 9 22
3 9 18 22
3 11 28 38
3 11 7 28
3 7 21 28
3 14 24 29
3 14 13 24
3 13 6 24
3 17 25 1
3 17 16 25
3 16 12 25
3 20 26 33
3 20 19 26
3 19 15 26
3 23 27 35
3 23 22 27
3 22 18 27
3 24 30 29
3 24 11 30
3 11 38 30
3 25 32 1
3 25 14 32
3 14 29 32
3 26 0 33
3 26 17 0
3 17 1 0
3 27 36 35
3 27 20 36
3 20 33 36
3 28 39 38
3 28 23 39
3 23 35 39
3 31 40 41
3 31 30 40
3 30 38 40
3 2 31 41
3 2 32 31
3 32 29 31
3 34 2 41
3 34 0 2
3 37 34 41
3 37 36 34
3 36 33 34
3 40 37 41
3 40 39 37
3 39 35 37
