ply
format ascii 1.0
comment Created by Blender 2.69 (sub 0) - www.blender.org, source file: ''
element vertex 108
property float x
property float y
property float z
property float nx
property float ny
property float nz
property float s
property float t
element face 40
property list uchar uint vertex_indices
end_header
0.000004 -0.000008 -1.351342 0.058849 -0.058849 0.996531 0.500000 0.500000
0.000010 24.999977 0.125000 0.058849 -0.058849 0.996531 0.500000 0.750000
-24.999990 0.000000 0.125000 0.058849 -0.058849 0.996531 0.250000 0.500000
0.000004 -0.000008 -1.351342 0.058951 -0.000000 0.998261 0.500000 0.500000
-24.999990 0.000000 0.125000 0.058951 -0.000000 0.998261 0.250000 0.500000
-24.999994 -24.999983 0.125000 0.058951 -0.000000 0.998261 0.250000 0.250000
0.000015 49.999962 0.125000 0.000000 0.033696 0.999432 0.500000 1.000000
-24.999979 49.999969 0.125000 0.000000 0.033696 0.999432 0.250000 1.000000
-24.999985 24.999985 0.967880 0.000000 0.033696 0.999432 0.250000 0.750000
-0.000023 -49.999981 0.125000 -0.000000 -0.033696 0.999432 0.499999 0.000000
-0.000010 -24.999992 0.967880 -0.000000 -0.033696 0.999432 0.500000 0.250000
-25.000008 -49.999969 0.125000 -0.000000 -0.033696 0.999432 0.250000 0.000000
-0.000023 -49.999981 0.125000 -0.016314 -0.033692 0.999299 0.499999 0.000000
24.999973 -25.000004 1.376026 -0.016314 -0.033692 0.999299 0.750000 0.250000
-0.000010 -24.999992 0.967880 -0.016314 -0.033692 0.999299 0.500000 0.250000
49.999969 -0.000031 0.125000 0.033696 -0.000000 0.999432 1.000000 0.500000
49.999985 24.999958 0.125000 0.033696 -0.000000 0.999432 1.000000 0.750000
24.999987 -0.000019 0.967880 0.033696 -0.000000 0.999432 0.750000 0.500000
-24.999990 0.000000 0.125000 -0.000000 -0.033696 0.999432 0.250000 0.500000
-24.999985 24.999985 0.967880 -0.000000 -0.033696 0.999432 0.250000 0.750000
-49.999985 0.000008 0.125000 -0.000000 -0.033696 0.999432 0.000000 0.500000
-24.999990 0.000000 0.125000 0.033677 -0.033677 0.998865 0.250000 0.500000
0.000010 24.999977 0.125000 0.033677 -0.033677 0.998865 0.500000 0.750000
-24.999985 24.999985 0.967880 0.033677 -0.033677 0.998865 0.250000 0.750000
0.000010 24.999977 0.125000 0.033696 -0.000000 0.999432 0.500000 0.750000
0.000015 49.999962 0.125000 0.033696 -0.000000 0.999432 0.500000 1.000000
-24.999985 24.999985 0.967880 0.033696 -0.000000 0.999432 0.250000 0.750000
0.000010 24.999977 0.125000 -0.000000 -0.058951 0.998261 0.500000 0.750000
0.000004 -0.000008 -1.351342 -0.000000 -0.058951 0.998261 0.500000 0.500000
25.000002 24.999969 0.125000 -0.000000 -0.058951 0.998261 0.750000 0.750000
25.000002 24.999969 0.125000 -0.000000 0.000000 1.000000 0.750000 0.750000
25.000008 49.999954 0.125000 -0.000000 0.000000 1.000000 0.750000 1.000000
0.000010 24.999977 0.125000 -0.000000 0.000000 1.000000 0.500000 0.750000
0.000015 49.999962 0.125000 -0.000000 0.000000 1.000000 0.500000 1.000000
-49.999989 -24.999975 0.125000 0.000000 -0.000000 1.000000 0.000000 0.250000
-49.999992 -49.999958 0.125000 0.000000 -0.000000 1.000000 0.000000 0.000000
-24.999994 -24.999983 0.125000 0.000000 -0.000000 1.000000 0.250000 0.250000
-24.999990 0.000000 0.125000 -0.000000 0.000000 1.000000 0.250000 0.500000
-49.999985 0.000008 0.125000 -0.000000 0.000000 1.000000 0.000000 0.500000
24.999960 -49.999992 0.125000 -0.000000 -0.049979 0.998750 0.749999 0.000000
24.999973 -25.000004 1.376026 -0.000000 -0.049979 0.998750 0.750000 0.250000
-0.000023 -49.999981 0.125000 -0.000000 -0.049979 0.998750 0.499999 0.000000
24.999960 -49.999992 0.125000 0.049916 -0.049916 0.997505 0.749999 0.000000
49.999954 -25.000017 0.125000 0.049916 -0.049916 0.997505 0.999999 0.250000
24.999973 -25.000004 1.376026 0.049916 -0.049916 0.997505 0.750000 0.250000
49.999954 -25.000017 0.125000 0.049979 -0.000000 0.998750 0.999999 0.250000
49.999969 -0.000031 0.125000 0.049979 -0.000000 0.998750 1.000000 0.500000
24.999973 -25.000004 1.376026 0.049979 -0.000000 0.998750 0.750000 0.250000
-24.999985 24.999985 0.967880 -0.033696 0.000000 0.999432 0.250000 0.750000
-49.999977 24.999990 0.125000 -0.033696 0.000000 0.999432 0.000000 0.750000
-49.999985 0.000008 0.125000 -0.033696 0.000000 0.999432 0.000000 0.500000
-24.999985 24.999985 0.967880 -0.033677 0.033677 0.998865 0.250000 0.750000
-24.999979 49.999969 0.125000 -0.033677 0.033677 0.998865 0.250000 1.000000
-49.999977 24.999990 0.125000 -0.033677 0.033677 0.998865 0.000000 0.750000
-25.000008 -49.999969 0.125000 0.000000 -0.000000 1.000000 0.250000 0.000000
-25.000008 -49.999969 0.125000 -0.033696 0.000000 0.999432 0.250000 0.000000
-0.000010 -24.999992 0.967880 -0.033696 0.000000 0.999432 0.500000 0.250000
-24.999994 -24.999983 0.125000 -0.033696 0.000000 0.999432 0.250000 0.250000
-0.000010 -24.999992 0.967880 -0.033552 0.092320 0.995164 0.500000 0.250000
0.000004 -0.000008 -1.351342 -0.033552 0.092320 0.995164 0.500000 0.500000
-24.999994 -24.999983 0.125000 -0.033552 0.092320 0.995164 0.250000 0.250000
24.999987 -0.000019 0.967880 -0.091981 0.091981 0.991503 0.750000 0.500000
0.000004 -0.000008 -1.351342 -0.091981 0.091981 0.991503 0.500000 0.500000
-0.000010 -24.999992 0.967880 -0.091981 0.091981 0.991503 0.500000 0.250000
-0.000010 -24.999992 0.967880 -0.016322 0.016322 0.999734 0.500000 0.250000
24.999973 -25.000004 1.376026 -0.016322 0.016322 0.999734 0.750000 0.250000
24.999987 -0.000019 0.967880 -0.016322 0.016322 0.999734 0.750000 0.500000
24.999973 -25.000004 1.376026 0.033692 0.016314 0.999299 0.750000 0.250000
49.999969 -0.000031 0.125000 0.033692 0.016314 0.999299 1.000000 0.500000
24.999987 -0.000019 0.967880 0.033692 0.016314 0.999299 0.750000 0.500000
25.000002 24.999969 0.125000 -0.092320 0.033552 0.995164 0.750000 0.750000
0.000004 -0.000008 -1.351342 -0.092320 0.033552 0.995164 0.500000 0.500000
24.999987 -0.000019 0.967880 -0.092320 0.033552 0.995164 0.750000 0.500000
24.999987 -0.000019 0.967880 0.000000 0.033696 0.999432 0.750000 0.500000
49.999985 24.999958 0.125000 0.000000 0.033696 0.999432 1.000000 0.750000
25.000002 24.999969 0.125000 0.000000 0.033696 0.999432 0.750000 0.750000
50.000000 49.999947 0.125000 -0.000000 0.000000 1.000000 1.000000 1.000000
49.999973 49.999973 -0.125000 1.000000 0.000000 -0.000107 1.000000 1.000000
50.000000 49.999947 0.125000 1.000000 0.000000 -0.000107 1.000000 1.000000
49.999973 -49.999973 -0.125000 1.000000 0.000000 -0.000107 1.000000 0.000000
49.999973 -49.999973 -0.125000 -0.000000 -1.000000 -0.000122 1.000000 0.000000
49.999943 -50.000004 0.125000 -0.000000 -1.000000 -0.000122 0.999999 0.000000
-49.999985 -49.999966 -0.125000 -0.000000 -1.000000 -0.000122 0.000000 0.000000
-49.999985 -49.999966 -0.125000 -1.000000 0.000000 -0.000031 0.000000 0.000000
-49.999992 -49.999958 0.125000 -1.000000 0.000000 -0.000031 0.000000 0.000000
-49.999973 49.999973 0.125000 -1.000000 0.000000 -0.000031 0.000000 1.000000
50.000000 49.999947 0.125000 0.000000 1.000000 0.000107 1.000000 1.000000
49.999973 49.999973 -0.125000 0.000000 1.000000 0.000107 1.000000 1.000000
-49.999958 49.999992 -0.125000 0.000000 1.000000 0.000107 0.000000 1.000000
49.999943 -50.000004 0.125000 -0.000000 0.000000 1.000000 0.999999 0.000000
49.999954 -25.000017 0.125000 -0.000000 0.000000 1.000000 0.999999 0.250000
24.999960 -49.999992 0.125000 -0.000000 0.000000 1.000000 0.749999 0.000000
49.999943 -50.000004 0.125000 -0.000000 -1.000000 0.000031 0.999999 0.000000
-49.999992 -49.999958 0.125000 -0.000000 -1.000000 0.000031 0.000000 0.000000
-49.999985 -49.999966 -0.125000 -0.000000 -1.000000 0.000031 0.000000 0.000000
-49.999958 49.999992 -0.125000 -1.000000 0.000000 -0.000061 0.000000 1.000000
-49.999985 -49.999966 -0.125000 -1.000000 0.000000 -0.000061 0.000000 0.000000
-49.999973 49.999973 0.125000 -1.000000 0.000000 -0.000061 0.000000 1.000000
-49.999973 49.999973 0.125000 0.000000 1.000000 0.000076 0.000000 1.000000
50.000000 49.999947 0.125000 0.000000 1.000000 0.000076 1.000000 1.000000
-49.999958 49.999992 -0.125000 0.000000 1.000000 0.000076 0.000000 1.000000
50.000000 49.999947 0.125000 1.000000 -0.000001 0.000122 1.000000 1.000000
49.999943 -50.000004 0.125000 1.000000 -0.000001 0.000122 0.999999 0.000000
49.999973 -49.999973 -0.125000 1.000000 -0.000001 0.000122 1.000000 0.000000
-24.999979 49.999969 0.125000 -0.000000 0.000000 1.000000 0.250000 1.000000
-49.999973 49.999973 0.125000 -0.000000 0.000000 1.000000 0.000000 1.000000
-49.999977 24.999990 0.125000 -0.000000 0.000000 1.000000 0.000000 0.750000
49.999985 24.999958 0.125000 -0.000000 0.000000 1.000000 1.000000 0.750000
3 0 1 2
3 3 4 5
3 6 7 8
3 9 10 11
3 12 13 14
3 15 16 17
3 18 19 20
3 21 22 23
3 24 25 26
3 27 28 29
3 30 31 32
3 31 33 32
3 34 35 36
3 36 37 34
3 37 38 34
3 39 40 41
3 42 43 44
3 45 46 47
3 48 49 50
3 51 52 53
3 36 35 54
3 55 56 57
3 58 59 60
3 61 62 63
3 64 65 66
3 67 68 69
3 70 71 72
3 73 74 75
3 76 31 30
3 77 78 79
3 80 81 82
3 83 84 85
3 86 87 88
3 89 90 91
3 92 93 94
3 95 96 97
3 98 99 100
3 101 102 103
3 104 105 106
3 107 76 30
