ply
format ascii 1.0
comment Created by Blender 2.59 (sub 0) - www.blender.org, source file: 'walls.blend'
element vertex 38
property float x
property float y
property float z
property float nx
property float ny
property float nz
property float s
property float t
element face 20
property list uchar uint vertex_indices
end_header
2.000000 0.600000 3.000000 1.000000 -0.000000 -0.000000 0.449300 -0.180701 
2.000000 -1.000000 0.000000 1.000000 -0.000000 -0.000000 -0.170039 0.980560 
2.000000 1.000000 0.000000 1.000000 -0.000000 -0.000000 0.604135 0.980560 
2.000000 -1.000000 3.000000 1.000000 -0.000000 0.000000 -0.170039 -0.180701 
-2.000000 0.600000 3.000000 -1.000000 0.000000 0.000000 0.449300 -0.180701 
-2.000000 1.000000 0.000000 -1.000000 0.000000 0.000000 0.604135 0.980560 
-2.000000 -1.000000 0.000000 -1.000000 0.000000 0.000000 -0.170039 0.980560 
-2.000000 -1.000000 3.000000 -1.000000 0.000000 0.000000 -0.170039 -0.180701 
-2.000000 0.600000 3.000000 0.000000 -0.000000 1.000000 -2.060358 0.335023 
-2.000000 -1.000000 3.000000 0.000000 -0.000000 1.000000 -2.060358 0.948673 
2.000000 -1.000000 3.000000 0.000000 -0.000000 1.000000 -0.526231 0.948673 
2.000000 0.600000 3.000000 0.000000 0.000000 1.000000 -0.526231 0.335023 
-2.000000 1.000000 3.500000 -1.000000 0.000000 0.000000 0.604135 -0.374244 
-2.000000 0.600000 3.500000 -1.000000 0.000000 -0.000000 0.449300 -0.374244 
2.000000 0.600000 3.000000 -0.000000 -1.000000 -0.000000 -0.523395 0.263845 
2.000000 0.600000 3.500000 -0.000000 -1.000000 -0.000000 -0.523395 0.072754 
-2.000000 0.600000 3.500000 -0.000000 -1.000000 -0.000000 -2.052120 0.072754 
2.000000 0.600000 3.000000 0.000000 -1.000000 0.000001 -0.523395 0.263845 
-2.000000 0.600000 3.500000 0.000000 -1.000000 0.000001 -2.052120 0.072754 
-2.000000 0.600000 3.000000 0.000000 -1.000000 0.000001 -2.052120 0.263845 
2.000000 1.000000 3.500000 1.000000 -0.000000 0.000000 0.604135 -0.374244 
2.000000 0.600000 3.500000 1.000000 0.000000 0.000000 0.449300 -0.374244 
-2.000000 1.000000 0.000000 0.000000 1.000000 -0.000000 1.173523 0.947392 
-2.000000 1.000000 3.500000 0.000000 1.000000 -0.000000 1.173523 -0.422694 
2.000000 1.000000 3.500000 0.000000 1.000000 -0.000000 2.739334 -0.422694 
2.000000 1.000000 0.000000 0.000000 1.000000 -0.000000 2.739334 0.947392 
-2.000000 1.000000 3.500000 0.000000 -0.000000 1.000000 -2.063467 -0.210125 
-2.000000 0.600000 3.500000 0.000000 -0.000000 1.000000 -2.063467 -0.057006 
2.000000 0.600000 3.500000 0.000000 -0.000000 1.000000 -0.532277 -0.057006 
2.000000 1.000000 3.500000 0.000000 0.000000 1.000000 -0.532277 -0.210125 
2.000000 -1.000000 0.000000 -0.000000 -1.000000 -0.000000 2.730053 0.921389 
2.000000 -1.000000 3.000000 -0.000000 -1.000000 -0.000000 2.730053 -0.244084 
-2.000000 -1.000000 3.000000 -0.000000 -1.000000 -0.000000 1.176090 -0.244084 
-2.000000 -1.000000 0.000000 -0.000000 -1.000000 0.000000 1.176090 0.921389 
-2.000000 1.000000 0.000000 0.000000 0.000000 -1.000000 -0.461257 1.203745 
2.000000 1.000000 0.000000 0.000000 0.000000 -1.000000 1.104554 1.203745 
-2.000000 -1.000000 0.000000 0.000000 0.000000 -1.000000 -0.461257 1.986651 
2.000000 -1.000000 0.000000 0.000000 0.000000 -1.000000 1.104554 1.986651 
3 0 1 2
3 3 1 0
3 4 5 6
3 7 4 6
3 8 9 10
3 8 10 11
3 12 5 4
3 12 4 13
3 14 15 16
3 17 18 19
3 2 20 0
3 20 21 0
3 22 23 24
3 22 24 25
3 26 27 28
3 26 28 29
3 30 31 32
3 30 32 33
3 34 35 36
3 35 37 36
