ply
format ascii 1.0
comment Created by Blender 2.59 (sub 0) - www.blender.org, source file: 'walls.blend'
element vertex 44
property float x
property float y
property float z
property float nx
property float ny
property float nz
property float s
property float t
element face 24
property list uchar uint vertex_indices
end_header
1.000000 0.600000 3.000000 1.000000 -0.000000 -0.000000 1.491886 2.284124 
1.000000 -1.000000 0.000000 1.000000 -0.000000 -0.000000 0.953733 3.293161 
1.000000 1.000000 0.000000 1.000000 -0.000000 -0.000000 1.626424 3.293161 
1.000000 -1.000000 3.000000 1.000000 -0.000000 0.000000 0.953733 2.284124 
-1.000000 1.000000 3.500000 -1.000000 0.000000 0.000000 1.626424 2.115951 
-1.000000 1.000000 0.000000 -1.000000 0.000000 0.000000 1.626424 3.293161 
-1.000000 -1.000000 0.000000 -1.000000 0.000000 0.000000 0.953733 3.293161 
-1.000000 -1.000000 3.500000 -1.000000 0.000000 0.000000 0.953733 2.115951 
1.000000 1.000000 3.500000 1.000000 -0.000000 0.000000 1.626424 2.115951 
1.000000 0.600000 3.500000 1.000000 0.000000 0.000000 1.491886 2.115951 
-1.000000 1.000000 0.000000 0.000000 1.000000 -0.000000 -4.719152 2.899591 
-1.000000 1.000000 3.500000 0.000000 1.000000 -0.000000 -4.719152 1.722380 
1.000000 1.000000 3.500000 0.000000 1.000000 -0.000000 -4.046461 1.722380 
1.000000 1.000000 0.000000 0.000000 1.000000 -0.000000 -4.046461 2.899591 
-1.000000 1.000000 3.500000 0.000000 0.000000 1.000000 -7.229489 0.850849 
1.000000 0.600000 3.500000 0.000000 0.000000 1.000000 -6.556798 0.985388 
1.000000 1.000000 3.500000 0.000000 0.000000 1.000000 -6.556798 0.850849 
-1.000000 1.000000 0.000000 0.000000 0.000000 -1.000000 -7.229489 0.850849 
1.000000 1.000000 0.000000 0.000000 0.000000 -1.000000 -6.556798 0.850849 
-1.000000 -1.000000 0.000000 0.000000 0.000000 -1.000000 -7.229489 1.523541 
1.000000 -1.000000 0.000000 0.000000 0.000000 -1.000000 -6.556798 1.523541 
1.000000 0.600000 3.000000 0.000000 -0.000000 1.000000 -6.556798 0.985388 
-0.600000 0.600000 3.000000 0.000000 -0.000000 1.000000 -7.094952 0.985388 
1.000000 -1.000000 3.000000 0.000000 -0.000000 1.000000 -6.556798 1.523541 
1.000000 0.600000 3.500000 -0.000000 -1.000000 0.000000 -4.046460 1.722380 
-0.600000 0.600000 3.500000 -0.000000 -1.000000 0.000000 -4.584614 1.722380 
1.000000 0.600000 3.000000 -0.000000 -1.000000 0.000000 -4.046460 1.890553 
-0.600000 0.600000 3.500000 0.000000 0.000000 1.000000 -7.094952 0.985388 
-0.600000 0.600000 3.000000 0.000000 -1.000000 0.000000 -4.584614 1.890553 
-0.600000 -1.000000 3.000000 -0.000000 -1.000000 -0.000000 -1.361479 2.199040 
1.000000 -1.000000 0.000000 -0.000000 -1.000000 -0.000000 -0.823326 3.208077 
1.000000 -1.000000 3.000000 -0.000000 -1.000000 -0.000000 -0.823326 2.199040 
-0.600000 -1.000000 3.000000 0.000000 -0.000000 1.000000 -7.094952 1.523541 
-1.000000 -1.000000 3.500000 -0.000000 -1.000000 0.000000 -1.496017 2.030867 
-0.600000 -1.000000 3.500000 -0.000000 -1.000000 0.000000 -1.361479 2.030867 
-1.000000 -1.000000 0.000000 -0.000000 -1.000000 -0.000000 -1.496017 3.208077 
-0.600000 0.600000 3.000000 1.000000 -0.000000 0.000000 1.491887 2.284124 
-0.600000 0.600000 3.500000 1.000000 -0.000000 0.000000 1.491887 2.115951 
-0.600000 -1.000000 3.500000 1.000000 -0.000000 0.000000 0.953732 2.115951 
-0.600000 -1.000000 3.000000 1.000000 -0.000000 -0.000000 0.953732 2.284124 
-1.000000 1.000000 3.500000 0.000000 -0.000000 1.000000 -6.960562 0.849923 
-1.000000 -1.000000 3.500000 0.000000 -0.000000 1.000000 -7.633254 0.849923 
-0.600000 0.600000 3.500000 0.000000 -0.000000 1.000000 -7.095101 0.984460 
-0.600000 -1.000000 3.500000 0.000000 0.000000 1.000000 -7.633254 0.984460 
3 0 1 2
3 3 1 0
3 4 5 6
3 7 4 6
3 2 8 0
3 8 9 0
3 10 11 12
3 10 12 13
3 14 15 16
3 17 18 19
3 18 20 19
3 21 22 23
3 24 25 26
3 27 15 14
3 28 26 25
3 29 30 31
3 22 32 23
3 33 29 34
3 35 30 29
3 35 29 33
3 36 37 38
3 36 38 39
3 40 41 42
3 41 43 42
