ply
format ascii 1.0
comment Created by Blender 2.59 (sub 0) - www.blender.org, source file: 'walls.blend'
element vertex 54
property float x
property float y
property float z
property float nx
property float ny
property float nz
property float s
property float t
element face 32
property list uchar uint vertex_indices
end_header
0.999999 -1.000001 0.000000 -0.000000 -1.000000 0.000000 4.887616 0.933665 
-2.000000 -1.000000 1.500000 -0.000000 -1.000000 0.000000 3.711020 0.345367 
-2.000000 -1.000000 0.000000 -0.000000 -1.000000 0.000000 3.711020 0.933665 
-3.000000 1.000000 1.500000 0.000000 0.000000 1.000000 0.999549 5.074610 
-2.000000 -0.000000 1.500000 0.000000 0.000000 1.000000 1.391747 4.682411 
-2.000000 1.000000 1.500000 0.000000 0.000000 1.000000 0.999549 4.682411 
3.000000 -0.000000 3.000000 1.000000 0.000000 0.000000 -2.880376 3.869235 
3.000000 0.000000 0.000000 1.000000 0.000000 0.000000 -2.880376 5.045830 
3.000000 1.000000 3.000000 1.000000 0.000000 0.000000 -2.488177 3.869235 
3.000000 1.000000 0.000000 1.000000 0.000000 0.000000 -2.488177 5.045830 
1.000000 1.000000 0.000000 -0.000000 1.000000 0.000000 4.882838 0.936331 
1.000000 1.000000 3.000000 -0.000000 1.000000 0.000000 4.882838 -0.240265 
3.000000 1.000000 3.000000 -0.000000 1.000000 0.000000 5.667234 -0.240265 
3.000000 1.000000 0.000000 -0.000000 1.000000 0.000000 5.667234 0.936331 
1.000000 0.000000 0.000000 0.000000 0.000000 -1.000000 0.779178 -2.015664 
1.000000 1.000000 0.000000 0.000000 0.000000 -1.000000 0.779178 -2.407861 
3.000000 1.000000 0.000000 0.000000 0.000000 -1.000000 1.563576 -2.407861 
3.000000 0.000000 0.000000 0.000000 0.000000 -1.000000 1.563576 -2.015664 
1.000000 1.000000 3.000000 -0.000000 0.000000 1.000000 0.999549 3.366937 
1.000000 -0.000000 3.000000 -0.000000 0.000000 1.000000 1.391748 3.366937 
3.000000 -0.000000 3.000000 -0.000000 0.000000 1.000000 1.391747 2.582540 
3.000000 1.000000 3.000000 -0.000000 0.000000 1.000000 0.999548 2.582540 
1.000000 -0.000000 3.000000 0.000000 -1.000000 -0.000000 4.882724 -0.244962 
1.000000 0.000000 0.000000 0.000000 -1.000000 -0.000000 4.882724 0.931634 
3.000000 -0.000000 3.000000 0.000000 -1.000000 -0.000000 5.667120 -0.244962 
3.000000 0.000000 0.000000 0.000000 -1.000000 -0.000000 5.667120 0.931634 
-2.000000 -0.000000 1.500000 0.000000 -1.000000 -0.000000 3.706129 0.343336 
-2.000000 1.000000 1.500000 -0.447214 0.000000 0.894427 0.999549 4.682411 
-2.000000 -0.000000 1.500000 -0.447214 0.000000 0.894427 1.391747 4.682411 
1.000000 -0.000000 3.000000 -0.447214 0.000000 0.894427 1.391748 3.366937 
1.000000 1.000000 3.000000 -0.447214 0.000000 0.894427 0.999549 3.366937 
-2.000000 1.000000 0.000000 0.000000 0.000000 -1.000000 -0.397418 -2.407861 
-2.000000 1.000000 0.000000 0.000000 1.000000 0.000000 3.706242 0.936331 
-2.000000 1.000000 1.500000 0.000000 1.000000 0.000000 3.706242 0.348033 
-3.000000 1.000000 0.000000 -0.000000 1.000000 0.000000 3.314044 0.936331 
-3.000000 1.000000 1.500000 0.000000 1.000000 0.000000 3.314044 0.348033 
-3.000000 -1.000000 0.000000 -1.000000 0.000000 -0.000000 -3.209634 4.951420 
-3.000000 -1.000000 1.500000 -1.000000 0.000000 -0.000000 -3.209634 4.363122 
-3.000000 1.000000 1.500000 -1.000000 0.000000 -0.000000 -2.425237 4.363122 
-3.000000 1.000000 0.000000 -1.000000 0.000000 -0.000000 -2.425236 4.951420 
-2.000000 1.000000 0.000000 0.000000 0.000000 -1.000000 -0.499438 -2.373856 
-2.000000 -1.000000 0.000000 0.000000 0.000000 -1.000000 -0.499438 -1.589458 
-3.000000 -1.000000 0.000000 0.000000 0.000000 -1.000000 -0.891636 -1.589458 
-3.000000 1.000000 0.000000 0.000000 -0.000000 -1.000000 -0.891634 -2.373856 
-2.000000 -1.000000 1.500000 -0.000000 0.000000 1.000000 1.783946 4.682411 
-3.000000 -1.000000 1.500000 -0.000000 0.000000 1.000000 1.783946 5.074610 
-3.000000 -1.000000 0.000000 0.000000 -1.000000 0.000000 3.318822 0.933665 
-3.000000 -1.000000 1.500000 0.000000 -1.000000 0.000000 3.318822 0.345367 
1.000000 -0.000000 0.000000 0.447214 -0.000000 0.894427 1.391747 3.366939 
-2.000000 -0.000000 1.500000 0.447214 -0.000000 0.894427 1.391747 4.682411 
0.999999 -1.000001 0.000000 0.447214 -0.000000 0.894427 1.783945 3.366939 
-2.000000 -1.000000 1.500000 0.447214 -0.000000 0.894427 1.783946 4.682411 
1.000000 -0.000000 0.000000 0.000000 0.000000 -1.000000 0.677157 -1.981657 
0.999999 -1.000001 0.000000 0.000000 0.000000 -1.000000 0.677157 -1.589458 
3 0 1 2
3 3 4 5
3 6 7 8
3 7 9 8
3 10 11 12
3 10 12 13
3 14 15 16
3 14 16 17
3 18 19 20
3 18 20 21
3 22 23 24
3 23 25 24
3 26 23 22
3 27 28 29
3 27 29 30
3 31 15 14
3 32 33 10
3 33 11 10
3 33 32 34
3 33 34 35
3 36 37 38
3 36 38 39
3 40 41 42
3 40 42 43
3 44 4 45
3 4 3 45
3 2 1 46
3 1 47 46
3 48 49 50
3 49 51 50
3 52 53 40
3 53 41 40
