ply
format ascii 1.0
comment Created by Blender 2.59 (sub 0) - www.blender.org, source file: 'walls.blend'
element vertex 80
property float x
property float y
property float z
property float nx
property float ny
property float nz
property float s
property float t
element face 44
property list uchar uint vertex_indices
end_header
-1.500000 1.400000 3.500000 -1.000000 0.000000 -0.000000 1.572122 -3.922498 
-1.500000 0.600000 3.000000 -1.000000 0.000000 -0.000000 1.306243 -3.756324 
-1.500000 0.600000 3.500000 -1.000000 0.000000 -0.000000 1.306243 -3.922498 
1.500000 1.400000 3.500000 1.000000 0.000000 -0.000000 1.572122 -3.922498 
1.500000 0.600000 3.500000 1.000000 0.000000 -0.000000 1.306243 -3.922498 
1.500000 0.600000 3.000000 1.000000 0.000000 -0.000000 1.306243 -3.756324 
-1.500000 -1.400000 3.500000 -1.000000 0.000000 0.000001 0.641545 -3.922498 
-1.500000 -1.000000 3.500000 -1.000000 0.000000 0.000001 0.774484 -3.922498 
-1.500000 -1.000000 3.000000 -1.000000 0.000000 0.000001 0.774484 -3.756324 
1.499999 -1.400001 3.500000 1.000000 -0.000002 -0.000001 0.641545 -3.922498 
1.500000 -1.000000 3.000000 1.000000 -0.000002 -0.000001 0.774485 -3.756324 
1.500000 -1.000000 3.500000 1.000000 -0.000002 -0.000001 0.774485 -3.922498 
1.100000 1.000000 3.500000 0.000000 0.000000 1.000000 0.291940 2.167200 
1.500000 1.400000 3.500000 0.000000 0.000000 1.000000 0.424880 2.034260 
-1.500000 1.400000 3.500000 0.000000 0.000000 1.000000 -0.572168 2.034260 
-1.100000 1.000000 3.500000 0.000000 0.000000 1.000000 -0.439227 2.167201 
1.500000 -1.400000 0.000000 1.000000 0.000000 0.000000 0.641545 -2.759276 
1.500000 1.400000 0.000000 1.000000 0.000000 0.000000 1.572122 -2.759276 
1.500000 -1.000000 3.000000 1.000000 -0.000000 0.000000 0.774485 -3.756324 
1.499999 -1.400001 3.500000 1.000000 -0.000000 0.000000 0.641545 -3.922498 
-1.500000 1.400000 0.000000 -1.000000 0.000000 -0.000000 1.572122 -2.759276 
-1.500000 -1.400000 0.000000 -1.000000 0.000000 -0.000000 0.641545 -2.759276 
-1.500000 -1.400000 3.500000 -1.000000 -0.000001 0.000000 0.641545 -3.922498 
-1.500000 -1.000000 3.000000 -1.000000 -0.000001 0.000000 0.774484 -3.756324 
-1.500000 -1.400000 0.000000 -1.000000 -0.000001 0.000000 0.641545 -2.759276 
-1.500000 -1.000000 3.000000 -1.000000 0.000000 0.000000 0.774484 -3.756324 
-1.100000 0.600000 3.000000 0.000000 0.000000 1.000000 -0.439228 2.404204 
-1.500000 0.600000 3.000000 0.000000 0.000000 1.000000 -0.572168 2.404204 
-1.500000 -1.000000 3.000000 0.000000 0.000000 1.000000 -0.572168 2.935962 
1.100000 0.600000 3.000000 0.000000 -0.000000 1.000000 0.291941 2.404202 
1.500000 -1.000000 3.000000 0.000000 0.000000 1.000000 0.424880 2.935962 
1.500000 0.600000 3.000000 0.000000 0.000000 1.000000 0.424880 2.404204 
-1.100000 1.000000 3.000000 0.000000 -0.000000 1.000000 -0.439228 2.271265 
1.100000 1.000000 3.000000 0.000000 0.000000 1.000000 0.291941 2.271265 
1.100000 1.000000 3.500000 0.000000 -1.000000 0.000000 2.274745 3.203473 
-1.100000 1.000000 3.500000 0.000000 -1.000000 0.000000 1.543576 3.203473 
-1.100000 1.000000 3.000000 0.000000 -1.000000 0.000000 1.543576 3.369647 
1.100000 1.000000 3.000000 0.000000 -1.000000 0.000000 2.274745 3.369647 
-1.500000 -1.000000 3.000000 0.000000 1.000000 0.000000 2.533923 -0.633772 
-1.500000 -1.000000 3.500000 0.000000 1.000000 0.000000 2.533923 -0.799947 
1.500000 -1.000000 3.000000 0.000000 1.000000 0.000000 3.530969 -0.633772 
1.500000 -1.000000 3.500000 -0.000000 1.000000 -0.000000 3.530969 -0.799947 
1.499999 -1.400001 3.500000 -0.000000 0.000000 1.000000 0.424879 3.193781 
1.500000 -1.000000 3.500000 -0.000000 0.000000 1.000000 0.424879 3.060840 
-1.500000 -1.000000 3.500000 -0.000000 0.000000 1.000000 -0.572166 3.060840 
-1.500000 -1.400000 3.500000 -0.000000 0.000000 1.000000 -0.572166 3.193781 
1.100000 1.000000 3.500000 -1.000000 0.000000 0.000000 4.483391 0.506706 
1.100000 1.000000 3.000000 -1.000000 0.000000 0.000000 4.483391 0.672881 
1.100000 0.600000 3.000000 -1.000000 0.000000 0.000000 4.350451 0.672881 
1.100000 0.600000 3.500000 -1.000000 0.000000 0.000000 4.350451 0.506706 
1.500000 0.600000 3.000000 -0.000001 -1.000000 0.000000 3.915904 -0.633772 
1.500000 0.600000 3.500000 -0.000001 -1.000000 0.000000 3.915904 -0.799947 
1.100000 0.600000 3.500000 -0.000001 -1.000000 0.000000 3.782964 -0.799947 
1.100000 0.600000 3.000000 -0.000001 -1.000000 0.000000 3.782964 -0.633772 
1.100000 0.600000 3.500000 0.000000 -0.000000 1.000000 0.291940 2.300138 
1.500000 0.600000 3.500000 0.000000 -0.000000 1.000000 0.424880 2.300138 
-1.100000 0.600000 3.000000 -0.000001 -1.000000 -0.000000 2.281928 -0.633772 
-1.100000 0.600000 3.500000 -0.000001 -1.000000 -0.000000 2.281928 -0.799947 
-1.500000 0.600000 3.500000 -0.000001 -1.000000 -0.000000 2.148989 -0.799947 
-1.100000 0.600000 3.000000 0.000000 -1.000000 0.000000 2.281928 -0.633772 
-1.500000 0.600000 3.500000 0.000000 -1.000000 0.000000 2.148989 -0.799947 
-1.500000 0.600000 3.000000 0.000000 -1.000000 0.000000 2.148989 -0.633772 
-1.100000 1.000000 3.000000 1.000000 -0.000000 0.000000 4.483391 0.672881 
-1.100000 1.000000 3.500000 1.000000 -0.000000 0.000000 4.483391 0.506706 
-1.100000 0.600000 3.500000 1.000000 -0.000000 0.000000 4.350451 0.506706 
-1.100000 0.600000 3.000000 1.000000 -0.000000 0.000000 4.350451 0.672881 
-1.500000 0.600000 3.500000 0.000000 -0.000000 1.000000 -0.572168 2.300138 
-1.100000 0.600000 3.500000 0.000000 0.000000 1.000000 -0.439227 2.300138 
1.500000 1.400000 3.500000 0.000000 1.000000 0.000000 -1.008143 0.104222 
1.500000 1.400000 0.000000 0.000000 1.000000 0.000000 -1.008143 1.267444 
-1.500000 1.400000 0.000000 0.000000 1.000000 0.000000 -2.005190 1.267444 
-1.500000 1.400000 3.500000 0.000000 1.000000 0.000000 -2.005190 0.104222 
1.500000 -1.400000 0.000000 -0.000000 -1.000000 -0.000000 0.936485 0.921124 
1.499999 -1.400001 3.500000 -0.000000 -1.000000 -0.000000 0.936484 -0.242098 
-1.500000 -1.400000 0.000000 -0.000000 -1.000000 -0.000000 -0.060563 0.921124 
-1.500000 -1.400000 3.500000 -0.000000 -1.000000 -0.000000 -0.060562 -0.242098 
1.500000 1.400000 0.000000 0.000000 0.000000 -1.000000 0.424880 2.138325 
1.500000 -1.400000 0.000000 0.000000 0.000000 -1.000000 0.424880 3.068902 
-1.500000 -1.400000 0.000000 0.000000 0.000000 -1.000000 -0.572168 3.068902 
-1.500000 1.400000 0.000000 0.000000 -0.000000 -1.000000 -0.572167 2.138325 
3 0 1 2
3 3 4 5
3 6 7 8
3 9 10 11
3 12 13 14
3 15 12 14
3 16 17 5
3 5 17 3
3 5 18 16
3 18 19 16
3 1 20 21
3 22 23 24
3 25 1 21
3 1 0 20
3 26 27 28
3 26 28 29
3 30 31 29
3 30 29 28
3 32 26 29
3 32 29 33
3 34 35 36
3 34 36 37
3 38 39 40
3 39 41 40
3 42 43 44
3 42 44 45
3 46 47 48
3 46 48 49
3 50 51 52
3 50 52 53
3 12 54 55
3 12 55 13
3 56 57 58
3 59 60 61
3 62 63 64
3 62 64 65
3 14 66 15
3 66 67 15
3 68 69 70
3 68 70 71
3 72 73 74
3 73 75 74
3 76 77 78
3 76 78 79
