ply
format ascii 1.0
comment Created by Blender 2.59 (sub 0) - www.blender.org, source file: 'walls.blend'
element vertex 99
property float x
property float y
property float z
property float nx
property float ny
property float nz
property float s
property float t
element face 40
property list uchar uint vertex_indices
end_header
1.999999 1.000000 3.500000 1.000000 0.000000 -0.000000 1.814741 3.617076 
1.999999 0.600000 3.500000 1.000000 0.000000 -0.000000 1.681370 3.617076 
1.999999 0.600001 3.000000 1.000000 0.000000 -0.000000 1.681370 3.783787 
-2.000001 0.600001 3.000000 -1.000000 -0.000000 0.000000 1.681370 3.783787 
-2.000001 0.600001 3.500000 -1.000000 -0.000000 0.000000 1.681372 3.617075 
-2.000001 1.000000 3.500000 -1.000000 -0.000000 0.000000 1.814741 3.617075 
-2.000001 0.600001 3.000000 -1.000000 0.000000 -0.000000 1.677103 3.791788 
-2.000000 1.000001 0.000000 -1.000000 0.000000 -0.000000 1.810474 4.792063 
-2.000000 -0.999999 0.000000 -1.000000 0.000000 -0.000000 1.143624 4.792063 
-2.000001 -0.999999 3.000000 -1.000000 -0.000000 -0.000000 1.143624 3.791788 
-2.000001 1.000000 3.500000 -1.000000 0.000000 -0.000000 1.810474 3.625076 
-2.000001 1.000000 3.500000 -0.000000 -0.780869 0.624695 -1.749255 2.858434 
-2.000001 0.600001 3.000000 -0.000000 -0.780869 0.624695 -1.749255 3.027176 
1.999999 1.000000 3.500000 -0.000000 -0.780869 0.624695 -0.061830 2.858434 
1.999999 0.600001 3.000000 1.000000 -0.000000 0.000000 1.677103 3.791788 
2.000000 1.000000 0.000000 1.000000 -0.000000 0.000000 1.810474 4.792063 
1.999999 1.000000 3.500000 1.000000 -0.000000 0.000000 1.810474 3.625076 
1.999999 0.600001 3.000000 0.000000 -0.780869 0.624694 -0.061830 3.027176 
1.999999 1.000000 3.500000 0.000000 -0.780869 0.624694 -0.061830 2.858434 
-2.000001 0.600001 3.000000 0.000000 -0.780869 0.624694 -1.749255 3.027176 
2.000000 -1.000000 0.000000 1.000000 0.000000 0.000000 1.143625 4.792063 
1.999999 -1.000000 3.000000 1.000000 -0.000000 0.000000 1.143625 3.791788 
1.999999 -1.000000 3.000000 -0.000000 0.000000 1.000000 -0.238693 3.548303 
1.999999 0.600001 3.000000 -0.000000 0.000000 1.000000 -0.238693 3.014823 
-2.000001 -0.999999 3.000000 -0.000000 0.000000 1.000000 -1.572392 3.548303 
-2.000001 0.600001 3.000000 0.000000 0.000000 1.000000 -1.572392 3.014823 
1.999999 0.600001 3.000000 -0.000000 -1.000000 -0.000001 -0.330695 2.389428 
1.999999 0.600000 3.500000 -0.000000 -1.000000 -0.000001 -0.330695 2.222716 
-2.000001 0.600001 3.500000 -0.000000 -1.000000 -0.000001 -1.664394 2.222716 
1.999999 0.600001 3.000000 0.000000 -1.000000 0.000001 -0.330695 2.389428 
-2.000001 0.600001 3.500000 0.000000 -1.000000 0.000001 -1.664394 2.222716 
-2.000001 0.600001 3.000000 0.000000 -1.000000 0.000001 -1.664394 2.389428 
1.999999 1.000000 3.500000 -0.000000 0.000000 1.000000 -0.238692 2.876120 
-2.000001 1.000000 3.500000 -0.000000 0.000000 1.000000 -1.572393 2.876120 
-2.000001 0.600001 3.500000 -0.000000 0.000000 1.000000 -1.572393 3.009489 
1.999999 0.600000 3.500000 0.000000 -0.000000 1.000000 -0.238692 3.009489 
1.999999 1.000000 3.500000 0.000000 0.780869 -0.624694 -0.061830 2.858434 
1.999999 0.600001 3.000000 0.000000 0.780869 -0.624694 -0.061830 3.027176 
-2.000001 0.600001 3.000000 0.000000 0.780869 -0.624694 -1.749255 3.027176 
1.999999 1.000000 3.500000 0.000000 0.780869 -0.624695 -0.061830 2.858434 
-2.000001 0.600001 3.000000 0.000000 0.780869 -0.624695 -1.749255 3.027176 
-2.000001 1.000000 3.500000 0.000000 0.780869 -0.624695 -1.749255 2.858434 
1.999999 1.000000 3.500000 -0.000000 1.000000 0.000001 2.099123 1.998079 
1.000000 1.000000 2.500000 -0.000000 1.000000 0.000001 1.765699 2.331504 
-1.000000 1.000000 2.500000 -0.000000 1.000000 0.000001 1.098850 2.331504 
1.999999 1.000000 3.500000 0.000000 1.000000 -0.000000 2.099123 1.998079 
-1.000000 1.000000 2.500000 0.000000 1.000000 -0.000000 1.098850 2.331504 
-2.000001 1.000000 3.500000 0.000000 1.000000 -0.000000 0.765425 1.998079 
1.000000 -1.000000 2.500000 0.000000 -1.000000 -0.000002 1.765699 2.332838 
1.999999 -1.000000 3.000000 0.000000 -1.000000 -0.000002 2.099123 2.166125 
-1.000001 -1.000000 2.500000 0.000000 -1.000000 -0.000002 1.098849 2.332838 
1.999999 -1.000000 3.000000 -0.000000 -1.000000 0.000001 2.099123 2.166125 
-2.000001 -0.999999 3.000000 -0.000000 -1.000000 0.000001 0.765425 2.166125 
-1.000001 -1.000000 2.500000 -0.000000 -1.000000 0.000001 1.098849 2.332838 
1.000000 1.000000 2.500000 0.000000 0.000000 -1.000000 -0.572117 2.880386 
1.000000 -1.000000 2.500000 0.000000 0.000000 -1.000000 -0.572117 3.547236 
-1.000000 1.000000 2.500000 0.000000 0.000000 -1.000000 -1.238967 2.880387 
-1.000001 -1.000000 2.500000 0.000000 -0.000000 -1.000000 -1.238967 3.547236 
-1.000000 1.000000 0.000000 0.000000 1.000000 0.000000 1.098850 3.165066 
-2.000000 1.000001 0.000000 0.000000 1.000000 0.000000 0.765425 3.165066 
-1.000000 1.000000 2.500000 0.000001 1.000000 0.000000 1.098850 2.331504 
-2.000000 1.000001 0.000000 0.000001 1.000000 0.000000 0.765425 3.165066 
-2.000001 1.000000 3.500000 0.000001 1.000000 0.000000 0.765425 1.998079 
-1.000000 -1.000000 0.000000 -0.000000 -1.000000 -0.000000 1.098850 3.166400 
-1.000001 -1.000000 2.500000 -0.000000 -1.000000 -0.000000 1.098849 2.332838 
-2.000000 -0.999999 0.000000 -0.000000 -1.000000 -0.000000 0.765425 3.166400 
-1.000001 -1.000000 2.500000 -0.000001 -1.000000 0.000000 1.098849 2.332838 
-2.000001 -0.999999 3.000000 -0.000001 -1.000000 0.000000 0.765425 2.166125 
-2.000000 -0.999999 0.000000 -0.000001 -1.000000 0.000000 0.765425 3.166400 
-1.000000 1.000000 0.000000 1.000000 0.000000 -0.000000 1.810474 4.794729 
-1.000000 1.000000 2.500000 1.000000 0.000000 -0.000000 1.810474 3.961167 
-1.000000 -1.000000 0.000000 1.000000 0.000000 -0.000000 1.143625 4.794729 
-1.000000 1.000000 2.500000 1.000000 -0.000001 0.000000 1.810474 3.961167 
-1.000001 -1.000000 2.500000 1.000000 -0.000001 0.000000 1.143625 3.961167 
-1.000000 -1.000000 0.000000 1.000000 -0.000001 0.000000 1.143625 4.794729 
-1.000000 1.000000 0.000000 0.000000 0.000000 -1.000000 -1.085764 4.155460 
-1.000000 -1.000000 0.000000 0.000000 0.000000 -1.000000 -1.085764 4.822309 
-2.000000 -0.999999 0.000000 0.000000 0.000000 -1.000000 -1.419189 4.822309 
-2.000000 1.000001 0.000000 0.000000 -0.000000 -1.000000 -1.419189 4.155460 
1.999999 1.000000 3.500000 0.000001 1.000000 0.000000 2.099123 1.998079 
2.000000 1.000000 0.000000 0.000001 1.000000 0.000000 2.099124 3.165066 
1.000000 1.000000 2.500000 0.000001 1.000000 0.000000 1.765699 2.331504 
2.000000 1.000000 0.000000 0.000000 1.000000 0.000000 2.099124 3.165066 
1.000000 1.000001 0.000000 0.000000 1.000000 0.000000 1.765699 3.165066 
1.000000 1.000000 2.500000 0.000000 1.000000 0.000000 1.765699 2.331504 
1.000000 -0.999999 0.000000 -1.000000 0.000000 0.000000 1.143625 4.794729 
1.000000 -1.000000 2.500000 -1.000000 0.000000 0.000000 1.143625 3.961167 
1.000000 1.000000 2.500000 -1.000000 0.000000 0.000000 1.810474 3.961167 
1.000000 1.000001 0.000000 -1.000000 0.000000 -0.000000 1.810474 4.794729 
2.000000 -1.000000 0.000000 -0.000001 -1.000000 -0.000000 2.099124 3.166400 
1.999999 -1.000000 3.000000 -0.000001 -1.000000 -0.000000 2.099123 2.166125 
1.000000 -1.000000 2.500000 -0.000001 -1.000000 -0.000000 1.765699 2.332838 
2.000000 -1.000000 0.000000 -0.000000 -1.000000 -0.000000 2.099124 3.166400 
1.000000 -1.000000 2.500000 -0.000000 -1.000000 -0.000000 1.765699 2.332838 
1.000000 -0.999999 0.000000 -0.000000 -1.000000 -0.000000 1.765699 3.166400 
2.000000 1.000000 0.000000 0.000000 0.000000 -1.000000 -0.069489 4.155459 
2.000000 -1.000000 0.000000 0.000000 0.000000 -1.000000 -0.069489 4.822309 
1.000000 -0.999999 0.000000 0.000000 0.000000 -1.000000 -0.402914 4.822309 
1.000000 1.000001 0.000000 0.000000 -0.000000 -1.000000 -0.402914 4.155459 
3 0 1 2
3 3 4 5
3 6 7 8
3 9 6 8
3 6 10 7
3 11 12 13
3 14 15 16
3 17 18 19
3 15 14 20
3 14 21 20
3 22 23 24
3 23 25 24
3 26 27 28
3 29 30 31
3 32 33 34
3 32 34 35
3 36 37 38
3 39 40 41
3 42 43 44
3 45 46 47
3 48 49 50
3 51 52 53
3 54 55 56
3 55 57 56
3 46 58 59
3 60 61 62
3 63 64 65
3 66 67 68
3 69 70 71
3 72 73 74
3 75 76 77
3 75 77 78
3 79 80 81
3 82 83 84
3 85 86 87
3 85 87 88
3 89 90 91
3 92 93 94
3 95 96 97
3 95 97 98
